G75*
%MOIN*%
%OFA0B0*%
%FSLAX25Y25*%
%IPPOS*%
%LPD*%
%AMOC8*
5,1,8,0,0,1.08239X$1,22.5*
%
%ADD10C,0.00400*%
D10*
X0123947Y0050211D02*
X0123947Y0051745D01*
X0125482Y0051745D01*
X0127017Y0053280D02*
X0127017Y0050211D01*
X0126249Y0049443D01*
X0124715Y0049443D01*
X0123947Y0050211D01*
X0123947Y0053280D02*
X0124715Y0054047D01*
X0126249Y0054047D01*
X0127017Y0053280D01*
X0128551Y0054047D02*
X0131621Y0054047D01*
X0131621Y0049443D01*
X0128551Y0049443D01*
X0130086Y0051745D02*
X0131621Y0051745D01*
X0133155Y0051745D02*
X0133923Y0050978D01*
X0136224Y0050978D01*
X0134690Y0050978D02*
X0133155Y0049443D01*
X0133155Y0051745D02*
X0133155Y0053280D01*
X0133923Y0054047D01*
X0136224Y0054047D01*
X0136224Y0049443D01*
X0137759Y0050211D02*
X0138526Y0049443D01*
X0140061Y0049443D01*
X0140828Y0050211D01*
X0142363Y0050211D02*
X0142363Y0053280D01*
X0143130Y0054047D01*
X0144665Y0054047D01*
X0145432Y0053280D01*
X0145432Y0050211D01*
X0144665Y0049443D01*
X0143130Y0049443D01*
X0142363Y0050211D01*
X0140828Y0052513D02*
X0140061Y0051745D01*
X0138526Y0051745D01*
X0137759Y0050978D01*
X0137759Y0050211D01*
X0137759Y0053280D02*
X0138526Y0054047D01*
X0140061Y0054047D01*
X0140828Y0053280D01*
X0140828Y0052513D01*
X0146967Y0053280D02*
X0146967Y0051745D01*
X0147734Y0050978D01*
X0150036Y0050978D01*
X0150036Y0049443D02*
X0150036Y0054047D01*
X0147734Y0054047D01*
X0146967Y0053280D01*
X0151571Y0053280D02*
X0152338Y0054047D01*
X0153873Y0054047D01*
X0154640Y0053280D01*
X0154640Y0050211D01*
X0153873Y0049443D01*
X0152338Y0049443D01*
X0151571Y0050211D01*
X0151571Y0053280D01*
X0156175Y0054047D02*
X0156175Y0049443D01*
X0159244Y0054047D01*
X0159244Y0049443D01*
X0072939Y0118918D02*
X0068335Y0118918D01*
X0068335Y0121987D02*
X0072939Y0121987D01*
X0072171Y0123522D02*
X0069102Y0123522D01*
X0068335Y0124289D01*
X0068335Y0125824D01*
X0069102Y0126591D01*
X0072171Y0126591D01*
X0072939Y0125824D01*
X0072939Y0124289D01*
X0072171Y0123522D01*
X0068335Y0121987D02*
X0072939Y0118918D01*
X0072939Y0128126D02*
X0068335Y0128126D01*
X0070637Y0128126D02*
X0070637Y0129661D01*
X0072939Y0128126D02*
X0072939Y0131195D01*
X0072939Y0132730D02*
X0069102Y0132730D01*
X0068335Y0133497D01*
X0068335Y0135032D01*
X0069102Y0135799D01*
X0072939Y0135799D01*
X0072171Y0137334D02*
X0071404Y0137334D01*
X0070637Y0138101D01*
X0070637Y0139636D01*
X0069869Y0140403D01*
X0069102Y0140403D01*
X0068335Y0139636D01*
X0068335Y0138101D01*
X0069102Y0137334D01*
X0072171Y0137334D02*
X0072939Y0138101D01*
X0072939Y0139636D01*
X0072171Y0140403D01*
X0072939Y0141938D02*
X0068335Y0141938D01*
X0068335Y0145007D01*
X0070637Y0143472D02*
X0070637Y0141938D01*
X0072939Y0141938D02*
X0072939Y0145007D01*
M02*
