%
M48
M72
T01C0.02362
T02C0.02756
T03C0.03150
T04C0.03200
T05C0.03543
T06C0.03937
T07C0.04000
T08C0.04331
T09C0.04400
T10C0.05200
T11C0.05512
T12C0.05900
T13C0.05906
T14C0.11000
T15C0.12598
%
T01
X85752Y49028
X122957Y50996
X237720Y125799
X249531Y125799
X294413Y125799
X304650Y125799
X316461Y125799
X328272Y125799
X340083Y125799
X351894Y125799
X363705Y125799
X375516Y125799
X532996Y134067
X542445Y134067
X542445Y143516
X532996Y143516
X532996Y152965
X542445Y152965
X662917Y152965
X672366Y152965
X672366Y143516
X662917Y143516
X662917Y134067
X672366Y134067
X795201Y134067
X804650Y134067
X804650Y143516
X795201Y143516
X795201Y152965
X804650Y152965
X923547Y152965
X932996Y152965
X932996Y143516
X923547Y143516
X923547Y134067
X932996Y134067
X1055831Y134067
X1065280Y134067
X1065280Y143516
X1055831Y143516
X1055831Y152965
X1065280Y152965
X1021185Y159264
X1031028Y169106
X1111736Y180917
X1159374Y173831
X1013705Y196665
X1017248Y202177
X987720Y202571
X948350Y200602
X887327Y202571
X851894Y196665
X851894Y180917
X759374Y202571
X721972Y196665
X629453Y204539
X595988Y200602
X529059Y204539
X532996Y218319
X529059Y222256
X720004Y220287
X751500Y218319
X949138Y216744
X982209Y224224
X1017248Y214776
X1112130Y202965
X1133390Y220287
X721972Y180917
X590083Y180917
X95962Y176954
X1159374Y116350
T02
X1132827Y31123
X1122827Y31123
X1002827Y31425
X992827Y31425
X872827Y31726
X862827Y31726
X742720Y31469
X732720Y31469
X617720Y31469
X607720Y31469
X492720Y31469
X482720Y31469
X482720Y208437
X492720Y208437
X607720Y208437
X617720Y208437
X737720Y208437
X747720Y208437
X867341Y208694
X877341Y208694
X997341Y209393
X1007341Y209393
X1127341Y209092
X1137341Y209092
T03
X273665Y198437
X253665Y198437
X249728Y38437
X269728Y38437
T04
X288067Y46311
X307767Y46311
X311704Y190563
X292004Y190563
X383941Y200720
X398941Y201705
X413941Y200720
X428941Y200720
X443941Y200720
X458941Y200720
X507878Y200720
X522878Y200720
X537878Y200720
X552878Y200720
X567878Y200720
X582878Y200720
X636815Y200720
X651815Y200720
X666815Y200720
X681815Y200720
X696815Y200720
X711815Y200720
X696815Y210720
X666815Y210720
X636815Y210720
X651815Y220720
X681815Y220720
X711815Y220720
X766943Y210419
X797233Y210419
X827088Y210419
X827088Y200419
X841593Y201419
X811343Y200419
X797233Y200419
X782093Y201419
X766943Y200419
X811343Y220419
X782093Y221419
X841593Y221419
X896943Y210725
X926088Y210906
X957233Y209544
X957233Y199544
X971593Y200118
X941343Y201118
X926088Y200906
X912093Y201118
X896943Y200725
X912093Y221118
X941343Y221118
X971593Y220118
X1028911Y209424
X1059056Y209243
X1088201Y209243
X1088201Y199243
X1101561Y200817
X1072311Y200817
X1059056Y199243
X1044061Y199817
X1028911Y199424
X1044061Y219817
X1072311Y220817
X1101561Y220817
X582878Y220720
X552878Y220720
X522878Y220720
X537878Y210720
X507878Y210720
X458941Y220720
X428941Y220720
X398941Y221705
X413941Y210720
X443941Y210720
X383941Y210720
X567878Y210720
T05
X344453Y196012
X344453Y176327
X314531Y159996
X314531Y140311
X314531Y113429
X314531Y93744
X343272Y75051
X343272Y55366
T06
X48744Y36035
X48744Y49815
X223665Y61350
X223665Y75130
X223665Y131350
X223665Y145130
X223665Y161350
X223665Y175130
X48744Y205327
X48744Y219106
T07
X457720Y173437
X482720Y171343
X497720Y171343
X457720Y163437
X457720Y153437
X482720Y148417
X492720Y148417
X492720Y138417
X482720Y138417
X482720Y128417
X492720Y128417
X457720Y128437
X457720Y118437
X482720Y118417
X492720Y118417
X492720Y108417
X482720Y108417
X457720Y108437
X482720Y98417
X492720Y98417
X492720Y88417
X482720Y88417
X457720Y83437
X482720Y78417
X492720Y78417
X457720Y73437
X457720Y63437
X482220Y50563
X493220Y50563
X582720Y63437
X582720Y73437
X607720Y78437
X617720Y78437
X582720Y83437
X607720Y88437
X617720Y88437
X617720Y98437
X607720Y98437
X607720Y108437
X617720Y108437
X582720Y108437
X582720Y118437
X607720Y118437
X617720Y118437
X617720Y128437
X607720Y128437
X582720Y128437
X607720Y138437
X617720Y138437
X617720Y148437
X607720Y148437
X582720Y153437
X582720Y163437
X582720Y173437
X607720Y173843
X622720Y173843
X622720Y184843
X607720Y184843
X497720Y182343
X482720Y182343
X712720Y173437
X737720Y173843
X752720Y173843
X712720Y163437
X712720Y153437
X737720Y148437
X747720Y148437
X747720Y138437
X737720Y138437
X737720Y128437
X747720Y128437
X712720Y128437
X712720Y118437
X737720Y118437
X747720Y118437
X747720Y108437
X737720Y108437
X712720Y108437
X737720Y98437
X747720Y98437
X747720Y88437
X737720Y88437
X712720Y83437
X737720Y78437
X747720Y78437
X712720Y73437
X712720Y63437
X737220Y50563
X748220Y50563
X842798Y63331
X842798Y73331
X867798Y78770
X877798Y78770
X842798Y83331
X867798Y88770
X877798Y88770
X877798Y98770
X867798Y98770
X867798Y108770
X877798Y108770
X842798Y108937
X842798Y118937
X867798Y118770
X877798Y118770
X877798Y128770
X867798Y128770
X842798Y128937
X867798Y138770
X877798Y138770
X877798Y148770
X867798Y148770
X842998Y154472
X842998Y164472
X842998Y174472
X867798Y174542
X882798Y174526
X882798Y185526
X867798Y185542
X971998Y174171
X997798Y173241
X1012798Y173241
X1012798Y184241
X997798Y184241
X1102998Y173870
X1129798Y173940
X1142798Y173940
X1102998Y163870
X1102998Y153870
X1127956Y148522
X1137956Y148522
X1137956Y138522
X1127956Y138522
X1127956Y128522
X1137956Y128522
X1102798Y128335
X1102798Y118335
X1127956Y118522
X1137956Y118522
X1137956Y108522
X1127956Y108522
X1102798Y108335
X1127956Y98522
X1137956Y98522
X1137956Y88522
X1127956Y88522
X1101592Y83516
X1127956Y78522
X1137956Y78522
X1101592Y73516
X1101592Y63516
X1127298Y53628
X1138298Y53628
X1008298Y52929
X997298Y52929
X972198Y63423
X972198Y73423
X997798Y78469
X1007798Y78469
X972198Y83423
X997798Y88469
X1007798Y88469
X1007798Y98469
X997798Y98469
X997798Y108469
X1007798Y108469
X972798Y108636
X972798Y118636
X997798Y118469
X1007798Y118469
X1007798Y128469
X997798Y128469
X972798Y128636
X997798Y138469
X1007798Y138469
X1007798Y148469
X997798Y148469
X971998Y154171
X971998Y164171
X1129798Y184940
X1142798Y184940
X752720Y184843
X737720Y184843
X867298Y52230
X878298Y52230
X618220Y50563
X607220Y50563
T08
X153547Y36350
X133547Y36350
X93547Y36350
X83547Y216350
X123547Y216350
X163547Y216350
T09
X418783Y187531
X458783Y187531
X543783Y187531
X583783Y187531
X671500Y187531
X711500Y187531
X801628Y187397
X841628Y187397
X932022Y187309
X972022Y187309
X1061628Y187614
X1101628Y187614
X1087948Y44670
X1047948Y44670
X957948Y44971
X917948Y44971
X827948Y45272
X787948Y45272
X697720Y45406
X657720Y45406
X570909Y45406
X530909Y45406
X445004Y45406
X405004Y45406
T10
X36933Y103673
X36933Y163673
T11
X206972Y196469
X226657Y196469
X226657Y211469
X206972Y211469
X206697Y113437
X226382Y113437
X226382Y98437
X206697Y98437
X206697Y45406
X226382Y45406
X226382Y30406
X206697Y30406
T12
X263169Y63593
X283690Y119974
X269123Y122412
X248602Y178793
T13
X163547Y169736
X123547Y169736
X83547Y169736
X83547Y89736
X113547Y89736
X133547Y89736
T14
X36933Y133673
T15
X201539Y136980
X397909Y118594
X522957Y118594
X652957Y117610
X783862Y119579
X913694Y118879
X1042957Y118594
X1158783Y39343
X339846Y31311
X25122Y43122
X25122Y212413
X319650Y215720
X1157996Y217689
M30
