G75*
%MOIN*%
%OFA0B0*%
%FSLAX25Y25*%
%IPPOS*%
%LPD*%
%AMOC8*
5,1,8,0,0,1.08239X$1,22.5*
%
%ADD10C,0.13398*%
%ADD11C,0.00100*%
%ADD12OC8,0.06800*%
%ADD13C,0.00500*%
%ADD14C,0.06800*%
%ADD15R,0.07300X0.07300*%
%ADD16C,0.07300*%
%ADD17C,0.07400*%
%ADD18C,0.08200*%
%ADD19C,0.09650*%
%ADD20OC8,0.06000*%
%ADD21C,0.09400*%
%ADD22C,0.10800*%
%ADD23R,0.07874X0.07874*%
%ADD24C,0.07700*%
%ADD25C,0.07296*%
%ADD26R,0.12611X0.12611*%
%ADD27R,0.14186X0.18910*%
%ADD28C,0.11800*%
%ADD29R,0.18910X0.14186*%
%ADD30C,0.04762*%
%ADD31R,0.04762X0.04762*%
D10*
X0025122Y0043122D03*
X0339846Y0031311D03*
X0652957Y0117610D03*
X0783862Y0119579D03*
X0913694Y0118879D03*
X1042957Y0118594D03*
X1158783Y0039343D03*
X0522957Y0118594D03*
X0397909Y0118594D03*
X0201539Y0136980D03*
X0025122Y0212413D03*
X0319650Y0215720D03*
X1157996Y0217689D03*
D11*
X0486970Y0107674D02*
X0486961Y0106783D01*
X0483568Y0106837D01*
X0483550Y0110176D01*
X0484414Y0110176D01*
X0486970Y0107674D01*
X0486970Y0107664D02*
X0483564Y0107664D01*
X0483565Y0107566D02*
X0486969Y0107566D01*
X0486968Y0107467D02*
X0483565Y0107467D01*
X0483566Y0107369D02*
X0486967Y0107369D01*
X0486966Y0107270D02*
X0483566Y0107270D01*
X0483567Y0107172D02*
X0486965Y0107172D01*
X0486964Y0107073D02*
X0483567Y0107073D01*
X0483568Y0106975D02*
X0486963Y0106975D01*
X0486962Y0106876D02*
X0483568Y0106876D01*
X0483563Y0107763D02*
X0486880Y0107763D01*
X0486779Y0107861D02*
X0483563Y0107861D01*
X0483562Y0107960D02*
X0486679Y0107960D01*
X0486578Y0108058D02*
X0483562Y0108058D01*
X0483561Y0108157D02*
X0486477Y0108157D01*
X0486377Y0108255D02*
X0483561Y0108255D01*
X0483560Y0108354D02*
X0486276Y0108354D01*
X0486175Y0108452D02*
X0483560Y0108452D01*
X0483559Y0108551D02*
X0486075Y0108551D01*
X0485974Y0108649D02*
X0483559Y0108649D01*
X0483558Y0108748D02*
X0485873Y0108748D01*
X0485773Y0108846D02*
X0483558Y0108846D01*
X0483557Y0108945D02*
X0485672Y0108945D01*
X0485572Y0109043D02*
X0483557Y0109043D01*
X0483556Y0109142D02*
X0485471Y0109142D01*
X0485370Y0109240D02*
X0483556Y0109240D01*
X0483555Y0109339D02*
X0485270Y0109339D01*
X0485169Y0109437D02*
X0483554Y0109437D01*
X0483554Y0109536D02*
X0485068Y0109536D01*
X0484968Y0109634D02*
X0483553Y0109634D01*
X0483553Y0109733D02*
X0484867Y0109733D01*
X0484766Y0109831D02*
X0483552Y0109831D01*
X0483552Y0109930D02*
X0484666Y0109930D01*
X0484565Y0110028D02*
X0483551Y0110028D01*
X0483551Y0110127D02*
X0484465Y0110127D01*
D12*
X0482720Y0108417D03*
X0492720Y0108417D03*
X0492720Y0098417D03*
X0482720Y0098417D03*
X0482720Y0088417D03*
X0492720Y0088417D03*
X0492720Y0078417D03*
X0482720Y0078417D03*
X0607720Y0078437D03*
X0617720Y0078437D03*
X0617720Y0088437D03*
X0607720Y0088437D03*
X0607720Y0098437D03*
X0617720Y0098437D03*
X0617720Y0108437D03*
X0607720Y0108437D03*
X0607720Y0118437D03*
X0617720Y0118437D03*
X0617720Y0128437D03*
X0607720Y0128437D03*
X0607720Y0138437D03*
X0617720Y0138437D03*
X0617720Y0148437D03*
X0607720Y0148437D03*
X0492720Y0148417D03*
X0482720Y0148417D03*
X0482720Y0138417D03*
X0492720Y0138417D03*
X0492720Y0128417D03*
X0482720Y0128417D03*
X0482720Y0118417D03*
X0492720Y0118417D03*
X0737720Y0118437D03*
X0747720Y0118437D03*
X0747720Y0108437D03*
X0737720Y0108437D03*
X0737720Y0098437D03*
X0747720Y0098437D03*
X0747720Y0088437D03*
X0737720Y0088437D03*
X0737720Y0078437D03*
X0747720Y0078437D03*
X0867798Y0078770D03*
X0877798Y0078770D03*
X0877798Y0088770D03*
X0867798Y0088770D03*
X0867798Y0098770D03*
X0877798Y0098770D03*
X0877798Y0108770D03*
X0867798Y0108770D03*
X0867798Y0118770D03*
X0877798Y0118770D03*
X0877798Y0128770D03*
X0867798Y0128770D03*
X0867798Y0138770D03*
X0877798Y0138770D03*
X0877798Y0148770D03*
X0867798Y0148770D03*
X0747720Y0148437D03*
X0737720Y0148437D03*
X0737720Y0138437D03*
X0747720Y0138437D03*
X0747720Y0128437D03*
X0737720Y0128437D03*
X0997798Y0128469D03*
X1007798Y0128469D03*
X1007798Y0118469D03*
X0997798Y0118469D03*
X0997798Y0108469D03*
X1007798Y0108469D03*
X1007798Y0098469D03*
X0997798Y0098469D03*
X0997798Y0088469D03*
X1007798Y0088469D03*
X1007798Y0078469D03*
X0997798Y0078469D03*
X1127956Y0078522D03*
X1137956Y0078522D03*
X1137956Y0088522D03*
X1127956Y0088522D03*
X1127956Y0098522D03*
X1137956Y0098522D03*
X1137956Y0108522D03*
X1127956Y0108522D03*
X1127956Y0118522D03*
X1137956Y0118522D03*
X1137956Y0128522D03*
X1127956Y0128522D03*
X1127956Y0138522D03*
X1137956Y0138522D03*
X1137956Y0148522D03*
X1127956Y0148522D03*
X1007798Y0148469D03*
X0997798Y0148469D03*
X0997798Y0138469D03*
X1007798Y0138469D03*
D13*
X1011999Y0169589D02*
X1012718Y0169510D01*
X1013378Y0169558D01*
X1014020Y0169720D01*
X1014623Y0169991D01*
X1015171Y0170363D01*
X1015645Y0170824D01*
X1016033Y0171360D01*
X1016321Y0171956D01*
X1016501Y0172592D01*
X1016569Y0173250D01*
X1016503Y0173909D01*
X1016324Y0174546D01*
X1016038Y0175142D01*
X1015652Y0175679D01*
X1015178Y0176141D01*
X1014632Y0176514D01*
X1014029Y0176787D01*
X1013388Y0176950D01*
X1012728Y0177000D01*
X1012006Y0176919D01*
X1011312Y0176699D01*
X1010676Y0176347D01*
X1010120Y0175878D01*
X1009666Y0175310D01*
X1009332Y0174664D01*
X1009130Y0173965D01*
X1009068Y0173241D01*
X1009131Y0172520D01*
X1009333Y0171825D01*
X1009668Y0171183D01*
X1010120Y0170619D01*
X1010675Y0170154D01*
X1011309Y0169806D01*
X1011999Y0169589D01*
X1010957Y0169999D02*
X1014635Y0169999D01*
X1015310Y0170498D02*
X1010265Y0170498D01*
X1009818Y0170996D02*
X1015770Y0170996D01*
X1016098Y0171495D02*
X1009505Y0171495D01*
X1009284Y0171993D02*
X1016332Y0171993D01*
X1016473Y0172492D02*
X1009139Y0172492D01*
X1009090Y0172990D02*
X1016542Y0172990D01*
X1016545Y0173489D02*
X1009089Y0173489D01*
X1009136Y0173987D02*
X1016481Y0173987D01*
X1016341Y0174486D02*
X1009280Y0174486D01*
X1009497Y0174984D02*
X1016113Y0174984D01*
X1015793Y0175483D02*
X1009804Y0175483D01*
X1010242Y0175981D02*
X1015342Y0175981D01*
X1014682Y0176480D02*
X1010916Y0176480D01*
X1012537Y0176978D02*
X1013013Y0176978D01*
X1012718Y0180530D02*
X1011999Y0180609D01*
X1011309Y0180826D01*
X1010675Y0181174D01*
X1010120Y0181639D01*
X1009668Y0182204D01*
X1009333Y0182845D01*
X1009131Y0183540D01*
X1009068Y0184261D01*
X1009130Y0184985D01*
X1009332Y0185684D01*
X1009666Y0186330D01*
X1010120Y0186898D01*
X1010676Y0187367D01*
X1011312Y0187719D01*
X1012006Y0187939D01*
X1012728Y0188020D01*
X1013388Y0187970D01*
X1014029Y0187807D01*
X1014632Y0187534D01*
X1015178Y0187161D01*
X1015652Y0186699D01*
X1016038Y0186162D01*
X1016324Y0185566D01*
X1016503Y0184929D01*
X1016569Y0184270D01*
X1016501Y0183612D01*
X1016321Y0182976D01*
X1016033Y0182380D01*
X1015645Y0181844D01*
X1015171Y0181383D01*
X1014623Y0181011D01*
X1014020Y0180740D01*
X1013378Y0180578D01*
X1012718Y0180530D01*
X1011053Y0180967D02*
X1014524Y0180967D01*
X1015255Y0181465D02*
X1010328Y0181465D01*
X1009860Y0181964D02*
X1015732Y0181964D01*
X1016072Y0182462D02*
X1009533Y0182462D01*
X1009300Y0182961D02*
X1016314Y0182961D01*
X1016458Y0183459D02*
X1009155Y0183459D01*
X1009095Y0183958D02*
X1016537Y0183958D01*
X1016550Y0184456D02*
X1009085Y0184456D01*
X1009127Y0184955D02*
X1016496Y0184955D01*
X1016356Y0185453D02*
X1009265Y0185453D01*
X1009470Y0185952D02*
X1016139Y0185952D01*
X1015831Y0186450D02*
X1009762Y0186450D01*
X1010179Y0186949D02*
X1015396Y0186949D01*
X1014760Y0187447D02*
X1010821Y0187447D01*
X1012065Y0187946D02*
X1013484Y0187946D01*
X1001466Y0184961D02*
X1001529Y0184241D01*
X1001467Y0183516D01*
X1001265Y0182817D01*
X1000931Y0182171D01*
X1000477Y0181603D01*
X0999921Y0181134D01*
X0999284Y0180782D01*
X0998591Y0180562D01*
X0997869Y0180481D01*
X0997209Y0180531D01*
X0996568Y0180694D01*
X0995965Y0180967D01*
X0995419Y0181340D01*
X0994945Y0181802D01*
X0994559Y0182339D01*
X0994273Y0182935D01*
X0994094Y0183572D01*
X0994028Y0184231D01*
X0994096Y0184889D01*
X0994276Y0185525D01*
X0994564Y0186121D01*
X0994952Y0186657D01*
X0995426Y0187118D01*
X0995974Y0187490D01*
X0996577Y0187761D01*
X0997219Y0187923D01*
X0997879Y0187971D01*
X0998598Y0187892D01*
X0999288Y0187675D01*
X0999922Y0187327D01*
X1000477Y0186862D01*
X1000929Y0186298D01*
X1001263Y0185656D01*
X1001466Y0184961D01*
X1001466Y0184955D02*
X0994114Y0184955D01*
X0994051Y0184456D02*
X1001510Y0184456D01*
X1001505Y0183958D02*
X0994056Y0183958D01*
X0994126Y0183459D02*
X1001451Y0183459D01*
X1001307Y0182961D02*
X0994266Y0182961D01*
X0994500Y0182462D02*
X1001082Y0182462D01*
X1000765Y0181964D02*
X0994829Y0181964D01*
X0995290Y0181465D02*
X1000314Y0181465D01*
X0999618Y0180967D02*
X0995965Y0180967D01*
X0997219Y0176903D02*
X0997879Y0176951D01*
X0998598Y0176872D01*
X0999288Y0176655D01*
X0999922Y0176307D01*
X1000477Y0175842D01*
X1000929Y0175278D01*
X1001263Y0174636D01*
X1001466Y0173941D01*
X1001529Y0173220D01*
X1001467Y0172496D01*
X1001265Y0171797D01*
X1000931Y0171151D01*
X1000477Y0170583D01*
X0999921Y0170114D01*
X0999284Y0169762D01*
X0998591Y0169542D01*
X0997869Y0169461D01*
X0997209Y0169511D01*
X0996568Y0169674D01*
X0995965Y0169947D01*
X0995419Y0170320D01*
X0994945Y0170782D01*
X0994559Y0171319D01*
X0994273Y0171915D01*
X0994094Y0172552D01*
X0994028Y0173211D01*
X0994096Y0173869D01*
X0994276Y0174505D01*
X0994564Y0175101D01*
X0994952Y0175637D01*
X0995426Y0176098D01*
X0995974Y0176470D01*
X0996577Y0176741D01*
X0997219Y0176903D01*
X0995996Y0176480D02*
X0999607Y0176480D01*
X1000310Y0175981D02*
X0995306Y0175981D01*
X0994840Y0175483D02*
X1000765Y0175483D01*
X1001082Y0174984D02*
X0994508Y0174984D01*
X0994271Y0174486D02*
X1001307Y0174486D01*
X1001452Y0173987D02*
X0994129Y0173987D01*
X0994057Y0173489D02*
X1001505Y0173489D01*
X1001509Y0172990D02*
X0994050Y0172990D01*
X0994111Y0172492D02*
X1001466Y0172492D01*
X1001322Y0171993D02*
X0994251Y0171993D01*
X0994475Y0171495D02*
X1001109Y0171495D01*
X1000808Y0170996D02*
X0994791Y0170996D01*
X0995236Y0170498D02*
X1000377Y0170498D01*
X0999714Y0169999D02*
X0995888Y0169999D01*
X0997340Y0169501D02*
X0998224Y0169501D01*
X1001323Y0185453D02*
X0994256Y0185453D01*
X0994482Y0185952D02*
X1001109Y0185952D01*
X1000807Y0186450D02*
X0994802Y0186450D01*
X0995252Y0186949D02*
X1000373Y0186949D01*
X0999703Y0187447D02*
X0995911Y0187447D01*
X0997535Y0187946D02*
X0998108Y0187946D01*
X0886569Y0185556D02*
X0886501Y0184897D01*
X0886321Y0184261D01*
X0886033Y0183665D01*
X0885645Y0183129D01*
X0885171Y0182668D01*
X0884623Y0182296D01*
X0884020Y0182026D01*
X0883378Y0181864D01*
X0882718Y0181816D01*
X0881999Y0181894D01*
X0881309Y0182112D01*
X0880675Y0182460D01*
X0880120Y0182925D01*
X0879668Y0183489D01*
X0879333Y0184131D01*
X0879131Y0184825D01*
X0879068Y0185546D01*
X0879130Y0186271D01*
X0879332Y0186969D01*
X0879666Y0187615D01*
X0880120Y0188184D01*
X0880676Y0188653D01*
X0881312Y0189004D01*
X0882006Y0189224D01*
X0882728Y0189305D01*
X0883388Y0189256D01*
X0884029Y0189092D01*
X0884632Y0188820D01*
X0885178Y0188447D01*
X0885652Y0187985D01*
X0886038Y0187447D01*
X0886324Y0186851D01*
X0886503Y0186214D01*
X0886569Y0185556D01*
X0886558Y0185453D02*
X0879076Y0185453D01*
X0879103Y0185952D02*
X0886529Y0185952D01*
X0886437Y0186450D02*
X0879182Y0186450D01*
X0879326Y0186949D02*
X0886277Y0186949D01*
X0886038Y0187447D02*
X0879579Y0187447D01*
X0879930Y0187946D02*
X0885680Y0187946D01*
X0885181Y0188444D02*
X0880429Y0188444D01*
X0881202Y0188943D02*
X0884359Y0188943D01*
X0886507Y0184955D02*
X0879120Y0184955D01*
X0879239Y0184456D02*
X0886376Y0184456D01*
X0886174Y0183958D02*
X0879423Y0183958D01*
X0879691Y0183459D02*
X0885884Y0183459D01*
X0885472Y0182961D02*
X0880091Y0182961D01*
X0880671Y0182462D02*
X0884867Y0182462D01*
X0883774Y0181964D02*
X0881779Y0181964D01*
X0871467Y0184817D02*
X0871265Y0184118D01*
X0870931Y0183472D01*
X0870477Y0182904D01*
X0869921Y0182435D01*
X0869284Y0182083D01*
X0868591Y0181863D01*
X0867869Y0181782D01*
X0867209Y0181832D01*
X0866568Y0181995D01*
X0865965Y0182268D01*
X0865419Y0182641D01*
X0864945Y0183103D01*
X0864559Y0183640D01*
X0864273Y0184236D01*
X0864094Y0184873D01*
X0864028Y0185532D01*
X0864096Y0186190D01*
X0864276Y0186826D01*
X0864564Y0187422D01*
X0864952Y0187958D01*
X0865426Y0188419D01*
X0865974Y0188791D01*
X0866577Y0189062D01*
X0867219Y0189224D01*
X0867879Y0189272D01*
X0868598Y0189193D01*
X0869288Y0188976D01*
X0869922Y0188628D01*
X0870477Y0188163D01*
X0870929Y0187599D01*
X0871263Y0186957D01*
X0871466Y0186262D01*
X0871529Y0185542D01*
X0871467Y0184817D01*
X0871479Y0184955D02*
X0864086Y0184955D01*
X0864036Y0185453D02*
X0871521Y0185453D01*
X0871493Y0185952D02*
X0864071Y0185952D01*
X0864169Y0186450D02*
X0871411Y0186450D01*
X0871266Y0186949D02*
X0864335Y0186949D01*
X0864583Y0187447D02*
X0871008Y0187447D01*
X0870651Y0187946D02*
X0864943Y0187946D01*
X0865463Y0188444D02*
X0870141Y0188444D01*
X0869348Y0188943D02*
X0866312Y0188943D01*
X0864211Y0184456D02*
X0871363Y0184456D01*
X0871182Y0183958D02*
X0864407Y0183958D01*
X0864689Y0183459D02*
X0870921Y0183459D01*
X0870523Y0182961D02*
X0865091Y0182961D01*
X0865680Y0182462D02*
X0869954Y0182462D01*
X0868908Y0181964D02*
X0866692Y0181964D01*
X0867219Y0178204D02*
X0867879Y0178252D01*
X0868598Y0178173D01*
X0869288Y0177956D01*
X0869922Y0177608D01*
X0870477Y0177143D01*
X0870929Y0176579D01*
X0871263Y0175937D01*
X0871466Y0175242D01*
X0871529Y0174521D01*
X0871467Y0173797D01*
X0871265Y0173098D01*
X0870931Y0172452D01*
X0870477Y0171884D01*
X0869921Y0171415D01*
X0869284Y0171063D01*
X0868591Y0170843D01*
X0867869Y0170762D01*
X0867209Y0170812D01*
X0866568Y0170975D01*
X0865965Y0171248D01*
X0865419Y0171621D01*
X0864945Y0172083D01*
X0864559Y0172620D01*
X0864273Y0173216D01*
X0864094Y0173853D01*
X0864028Y0174512D01*
X0864096Y0175170D01*
X0864276Y0175806D01*
X0864564Y0176402D01*
X0864952Y0176938D01*
X0865426Y0177399D01*
X0865974Y0177771D01*
X0866577Y0178042D01*
X0867219Y0178204D01*
X0866430Y0177976D02*
X0869225Y0177976D01*
X0870078Y0177477D02*
X0865541Y0177477D01*
X0864993Y0176978D02*
X0870608Y0176978D01*
X0870981Y0176480D02*
X0864621Y0176480D01*
X0864361Y0175981D02*
X0871240Y0175981D01*
X0871396Y0175483D02*
X0864184Y0175483D01*
X0864077Y0174984D02*
X0871488Y0174984D01*
X0871526Y0174486D02*
X0864031Y0174486D01*
X0864081Y0173987D02*
X0871483Y0173987D01*
X0871378Y0173489D02*
X0864196Y0173489D01*
X0864381Y0172990D02*
X0871210Y0172990D01*
X0870952Y0172492D02*
X0864651Y0172492D01*
X0865037Y0171993D02*
X0870565Y0171993D01*
X0870016Y0171495D02*
X0865603Y0171495D01*
X0866521Y0170996D02*
X0869074Y0170996D01*
X0879131Y0173805D02*
X0879068Y0174526D01*
X0879130Y0175250D01*
X0879332Y0175949D01*
X0879666Y0176595D01*
X0880120Y0177164D01*
X0880676Y0177632D01*
X0881312Y0177984D01*
X0882006Y0178204D01*
X0882728Y0178285D01*
X0883388Y0178235D01*
X0884029Y0178072D01*
X0884632Y0177800D01*
X0885178Y0177427D01*
X0885652Y0176964D01*
X0886038Y0176427D01*
X0886324Y0175831D01*
X0886503Y0175194D01*
X0886569Y0174536D01*
X0886501Y0173877D01*
X0886321Y0173241D01*
X0886033Y0172645D01*
X0885645Y0172109D01*
X0885171Y0171648D01*
X0884623Y0171276D01*
X0884020Y0171005D01*
X0883378Y0170844D01*
X0882718Y0170795D01*
X0881999Y0170874D01*
X0881309Y0171092D01*
X0880675Y0171439D01*
X0880120Y0171904D01*
X0879668Y0172469D01*
X0879333Y0173110D01*
X0879131Y0173805D01*
X0879115Y0173987D02*
X0886513Y0173987D01*
X0886563Y0174486D02*
X0879072Y0174486D01*
X0879107Y0174984D02*
X0886524Y0174984D01*
X0886422Y0175483D02*
X0879197Y0175483D01*
X0879348Y0175981D02*
X0886252Y0175981D01*
X0886000Y0176480D02*
X0879606Y0176480D01*
X0879972Y0176978D02*
X0885637Y0176978D01*
X0885105Y0177477D02*
X0880491Y0177477D01*
X0881297Y0177976D02*
X0884243Y0177976D01*
X0886391Y0173489D02*
X0879223Y0173489D01*
X0879396Y0172990D02*
X0886200Y0172990D01*
X0885922Y0172492D02*
X0879655Y0172492D01*
X0880049Y0171993D02*
X0885526Y0171993D01*
X0884945Y0171495D02*
X0880609Y0171495D01*
X0881611Y0170996D02*
X0883983Y0170996D01*
X0756491Y0173852D02*
X0756423Y0173194D01*
X0756243Y0172558D01*
X0755955Y0171962D01*
X0755567Y0171426D01*
X0755093Y0170965D01*
X0754545Y0170593D01*
X0753942Y0170322D01*
X0753300Y0170160D01*
X0752640Y0170112D01*
X0751921Y0170191D01*
X0751231Y0170408D01*
X0750597Y0170756D01*
X0750042Y0171221D01*
X0749590Y0171785D01*
X0749255Y0172427D01*
X0749053Y0173122D01*
X0748990Y0173843D01*
X0749052Y0174567D01*
X0749254Y0175266D01*
X0749588Y0175912D01*
X0750042Y0176480D01*
X0750598Y0176949D01*
X0751234Y0177301D01*
X0751928Y0177521D01*
X0752650Y0177602D01*
X0753310Y0177552D01*
X0753951Y0177389D01*
X0754554Y0177116D01*
X0755100Y0176743D01*
X0755574Y0176281D01*
X0755960Y0175744D01*
X0756246Y0175148D01*
X0756425Y0174511D01*
X0756491Y0173852D01*
X0756477Y0173987D02*
X0749002Y0173987D01*
X0749021Y0173489D02*
X0756453Y0173489D01*
X0756366Y0172990D02*
X0749091Y0172990D01*
X0749237Y0172492D02*
X0756211Y0172492D01*
X0755970Y0171993D02*
X0749481Y0171993D01*
X0749823Y0171495D02*
X0755617Y0171495D01*
X0755125Y0170996D02*
X0750310Y0170996D01*
X0751068Y0170498D02*
X0754333Y0170498D01*
X0741389Y0173098D02*
X0741187Y0172399D01*
X0740853Y0171753D01*
X0740399Y0171185D01*
X0739843Y0170716D01*
X0739206Y0170364D01*
X0738513Y0170144D01*
X0737791Y0170063D01*
X0737131Y0170113D01*
X0736490Y0170276D01*
X0735887Y0170549D01*
X0735341Y0170922D01*
X0734867Y0171384D01*
X0734481Y0171921D01*
X0734195Y0172517D01*
X0734016Y0173154D01*
X0733950Y0173813D01*
X0734018Y0174471D01*
X0734198Y0175107D01*
X0734486Y0175703D01*
X0734874Y0176239D01*
X0735348Y0176700D01*
X0735896Y0177072D01*
X0736499Y0177343D01*
X0737141Y0177505D01*
X0737801Y0177553D01*
X0738520Y0177474D01*
X0739210Y0177257D01*
X0739844Y0176909D01*
X0740399Y0176444D01*
X0740851Y0175880D01*
X0741185Y0175238D01*
X0741388Y0174543D01*
X0741451Y0173822D01*
X0741389Y0173098D01*
X0741358Y0172990D02*
X0734062Y0172990D01*
X0733983Y0173489D02*
X0741422Y0173489D01*
X0741436Y0173987D02*
X0733968Y0173987D01*
X0734022Y0174486D02*
X0741393Y0174486D01*
X0741259Y0174984D02*
X0734163Y0174984D01*
X0734380Y0175483D02*
X0741058Y0175483D01*
X0740770Y0175981D02*
X0734688Y0175981D01*
X0735122Y0176480D02*
X0740355Y0176480D01*
X0739717Y0176978D02*
X0735758Y0176978D01*
X0737031Y0177477D02*
X0738494Y0177477D01*
X0737791Y0181083D02*
X0737131Y0181133D01*
X0736490Y0181296D01*
X0735887Y0181569D01*
X0735341Y0181942D01*
X0734867Y0182404D01*
X0734481Y0182941D01*
X0734195Y0183537D01*
X0734016Y0184174D01*
X0733950Y0184833D01*
X0734018Y0185491D01*
X0734198Y0186127D01*
X0734486Y0186723D01*
X0734874Y0187259D01*
X0735348Y0187720D01*
X0735896Y0188092D01*
X0736499Y0188363D01*
X0737141Y0188525D01*
X0737801Y0188573D01*
X0738520Y0188494D01*
X0739210Y0188277D01*
X0739844Y0187929D01*
X0740399Y0187464D01*
X0740851Y0186900D01*
X0741185Y0186258D01*
X0741388Y0185563D01*
X0741451Y0184843D01*
X0741389Y0184118D01*
X0741187Y0183419D01*
X0740853Y0182773D01*
X0740399Y0182205D01*
X0739843Y0181736D01*
X0739206Y0181384D01*
X0738513Y0181164D01*
X0737791Y0181083D01*
X0739353Y0181465D02*
X0736116Y0181465D01*
X0735318Y0181964D02*
X0740113Y0181964D01*
X0740605Y0182462D02*
X0734825Y0182462D01*
X0734472Y0182961D02*
X0740950Y0182961D01*
X0741199Y0183459D02*
X0734232Y0183459D01*
X0734077Y0183958D02*
X0741343Y0183958D01*
X0741418Y0184456D02*
X0733988Y0184456D01*
X0733963Y0184955D02*
X0741441Y0184955D01*
X0741397Y0185453D02*
X0734014Y0185453D01*
X0734148Y0185952D02*
X0741275Y0185952D01*
X0741085Y0186450D02*
X0734354Y0186450D01*
X0734649Y0186949D02*
X0740812Y0186949D01*
X0740412Y0187447D02*
X0735067Y0187447D01*
X0735680Y0187946D02*
X0739814Y0187946D01*
X0738679Y0188444D02*
X0736822Y0188444D01*
X0749052Y0185587D02*
X0749254Y0186286D01*
X0749588Y0186932D01*
X0750042Y0187500D01*
X0750598Y0187969D01*
X0751234Y0188321D01*
X0751928Y0188541D01*
X0752650Y0188622D01*
X0753310Y0188572D01*
X0753951Y0188409D01*
X0754554Y0188136D01*
X0755100Y0187763D01*
X0755574Y0187301D01*
X0755960Y0186764D01*
X0756246Y0186168D01*
X0756425Y0185531D01*
X0756491Y0184872D01*
X0756423Y0184214D01*
X0756243Y0183578D01*
X0755955Y0182982D01*
X0755567Y0182446D01*
X0755093Y0181985D01*
X0754545Y0181613D01*
X0753942Y0181342D01*
X0753300Y0181180D01*
X0752640Y0181132D01*
X0751921Y0181211D01*
X0751231Y0181428D01*
X0750597Y0181776D01*
X0750042Y0182241D01*
X0749590Y0182806D01*
X0749255Y0183447D01*
X0749053Y0184142D01*
X0748990Y0184863D01*
X0749052Y0185587D01*
X0749040Y0185453D02*
X0756433Y0185453D01*
X0756482Y0184955D02*
X0748998Y0184955D01*
X0749026Y0184456D02*
X0756448Y0184456D01*
X0756351Y0183958D02*
X0749107Y0183958D01*
X0749252Y0183459D02*
X0756185Y0183459D01*
X0755939Y0182961D02*
X0749509Y0182961D01*
X0749865Y0182462D02*
X0755579Y0182462D01*
X0755061Y0181964D02*
X0750373Y0181964D01*
X0751164Y0181465D02*
X0754215Y0181465D01*
X0753605Y0177477D02*
X0751789Y0177477D01*
X0750651Y0176978D02*
X0754756Y0176978D01*
X0755370Y0176480D02*
X0750041Y0176480D01*
X0749643Y0175981D02*
X0755789Y0175981D01*
X0756085Y0175483D02*
X0749366Y0175483D01*
X0749172Y0174984D02*
X0756292Y0174984D01*
X0756428Y0174486D02*
X0749045Y0174486D01*
X0741214Y0172492D02*
X0734207Y0172492D01*
X0734447Y0171993D02*
X0740978Y0171993D01*
X0740647Y0171495D02*
X0734787Y0171495D01*
X0735264Y0170996D02*
X0740176Y0170996D01*
X0739448Y0170498D02*
X0735999Y0170498D01*
X0749157Y0185952D02*
X0756307Y0185952D01*
X0756110Y0186450D02*
X0749338Y0186450D01*
X0749601Y0186949D02*
X0755827Y0186949D01*
X0755424Y0187447D02*
X0749999Y0187447D01*
X0750570Y0187946D02*
X0754833Y0187946D01*
X0753812Y0188444D02*
X0751623Y0188444D01*
X0626491Y0184872D02*
X0626423Y0184214D01*
X0626243Y0183578D01*
X0625955Y0182982D01*
X0625567Y0182446D01*
X0625093Y0181985D01*
X0624545Y0181613D01*
X0623942Y0181342D01*
X0623300Y0181180D01*
X0622640Y0181132D01*
X0621921Y0181211D01*
X0621231Y0181428D01*
X0620597Y0181776D01*
X0620042Y0182241D01*
X0619590Y0182806D01*
X0619255Y0183447D01*
X0619053Y0184142D01*
X0618990Y0184863D01*
X0619052Y0185587D01*
X0619254Y0186286D01*
X0619588Y0186932D01*
X0620042Y0187500D01*
X0620598Y0187969D01*
X0621234Y0188321D01*
X0621928Y0188541D01*
X0622650Y0188622D01*
X0623310Y0188572D01*
X0623951Y0188409D01*
X0624554Y0188136D01*
X0625100Y0187763D01*
X0625574Y0187301D01*
X0625960Y0186764D01*
X0626246Y0186168D01*
X0626425Y0185531D01*
X0626491Y0184872D01*
X0626482Y0184955D02*
X0618998Y0184955D01*
X0619026Y0184456D02*
X0626448Y0184456D01*
X0626351Y0183958D02*
X0619107Y0183958D01*
X0619252Y0183459D02*
X0626185Y0183459D01*
X0625939Y0182961D02*
X0619509Y0182961D01*
X0619865Y0182462D02*
X0625579Y0182462D01*
X0625061Y0181964D02*
X0620373Y0181964D01*
X0621164Y0181465D02*
X0624215Y0181465D01*
X0623310Y0177552D02*
X0623951Y0177389D01*
X0624554Y0177116D01*
X0625100Y0176743D01*
X0625574Y0176281D01*
X0625960Y0175744D01*
X0626246Y0175148D01*
X0626425Y0174511D01*
X0626491Y0173852D01*
X0626423Y0173194D01*
X0626243Y0172558D01*
X0625955Y0171962D01*
X0625567Y0171426D01*
X0625093Y0170965D01*
X0624545Y0170593D01*
X0623942Y0170322D01*
X0623300Y0170160D01*
X0622640Y0170112D01*
X0621921Y0170191D01*
X0621231Y0170408D01*
X0620597Y0170756D01*
X0620042Y0171221D01*
X0619590Y0171785D01*
X0619255Y0172427D01*
X0619053Y0173122D01*
X0618990Y0173843D01*
X0619052Y0174567D01*
X0619254Y0175266D01*
X0619588Y0175912D01*
X0620042Y0176480D01*
X0620598Y0176949D01*
X0621234Y0177301D01*
X0621928Y0177521D01*
X0622650Y0177602D01*
X0623310Y0177552D01*
X0623605Y0177477D02*
X0621789Y0177477D01*
X0620651Y0176978D02*
X0624756Y0176978D01*
X0625370Y0176480D02*
X0620041Y0176480D01*
X0619643Y0175981D02*
X0625789Y0175981D01*
X0626085Y0175483D02*
X0619366Y0175483D01*
X0619172Y0174984D02*
X0626292Y0174984D01*
X0626428Y0174486D02*
X0619045Y0174486D01*
X0619002Y0173987D02*
X0626477Y0173987D01*
X0626453Y0173489D02*
X0619021Y0173489D01*
X0619091Y0172990D02*
X0626366Y0172990D01*
X0626211Y0172492D02*
X0619237Y0172492D01*
X0619481Y0171993D02*
X0625970Y0171993D01*
X0625617Y0171495D02*
X0619823Y0171495D01*
X0620310Y0170996D02*
X0625125Y0170996D01*
X0624333Y0170498D02*
X0621068Y0170498D01*
X0611389Y0173098D02*
X0611187Y0172399D01*
X0610853Y0171753D01*
X0610399Y0171185D01*
X0609843Y0170716D01*
X0609206Y0170364D01*
X0608513Y0170144D01*
X0607791Y0170063D01*
X0607131Y0170113D01*
X0606490Y0170276D01*
X0605887Y0170549D01*
X0605341Y0170922D01*
X0604867Y0171384D01*
X0604481Y0171921D01*
X0604195Y0172517D01*
X0604016Y0173154D01*
X0603950Y0173813D01*
X0604018Y0174471D01*
X0604198Y0175107D01*
X0604486Y0175703D01*
X0604874Y0176239D01*
X0605348Y0176700D01*
X0605896Y0177072D01*
X0606499Y0177343D01*
X0607141Y0177505D01*
X0607801Y0177553D01*
X0608520Y0177474D01*
X0609210Y0177257D01*
X0609844Y0176909D01*
X0610399Y0176444D01*
X0610851Y0175880D01*
X0611185Y0175238D01*
X0611388Y0174543D01*
X0611451Y0173822D01*
X0611389Y0173098D01*
X0611358Y0172990D02*
X0604062Y0172990D01*
X0603983Y0173489D02*
X0611422Y0173489D01*
X0611436Y0173987D02*
X0603968Y0173987D01*
X0604022Y0174486D02*
X0611393Y0174486D01*
X0611259Y0174984D02*
X0604163Y0174984D01*
X0604380Y0175483D02*
X0611058Y0175483D01*
X0610770Y0175981D02*
X0604688Y0175981D01*
X0605122Y0176480D02*
X0610355Y0176480D01*
X0609717Y0176978D02*
X0605758Y0176978D01*
X0607031Y0177477D02*
X0608494Y0177477D01*
X0607791Y0181083D02*
X0607131Y0181133D01*
X0606490Y0181296D01*
X0605887Y0181569D01*
X0605341Y0181942D01*
X0604867Y0182404D01*
X0604481Y0182941D01*
X0604195Y0183537D01*
X0604016Y0184174D01*
X0603950Y0184833D01*
X0604018Y0185491D01*
X0604198Y0186127D01*
X0604486Y0186723D01*
X0604874Y0187259D01*
X0605348Y0187720D01*
X0605896Y0188092D01*
X0606499Y0188363D01*
X0607141Y0188525D01*
X0607801Y0188573D01*
X0608520Y0188494D01*
X0609210Y0188277D01*
X0609844Y0187929D01*
X0610399Y0187464D01*
X0610851Y0186900D01*
X0611185Y0186258D01*
X0611388Y0185563D01*
X0611451Y0184843D01*
X0611389Y0184118D01*
X0611187Y0183419D01*
X0610853Y0182773D01*
X0610399Y0182205D01*
X0609843Y0181736D01*
X0609206Y0181384D01*
X0608513Y0181164D01*
X0607791Y0181083D01*
X0609353Y0181465D02*
X0606116Y0181465D01*
X0605318Y0181964D02*
X0610113Y0181964D01*
X0610605Y0182462D02*
X0604825Y0182462D01*
X0604472Y0182961D02*
X0610950Y0182961D01*
X0611199Y0183459D02*
X0604232Y0183459D01*
X0604077Y0183958D02*
X0611343Y0183958D01*
X0611418Y0184456D02*
X0603988Y0184456D01*
X0603963Y0184955D02*
X0611441Y0184955D01*
X0611397Y0185453D02*
X0604014Y0185453D01*
X0604148Y0185952D02*
X0611275Y0185952D01*
X0611085Y0186450D02*
X0604354Y0186450D01*
X0604649Y0186949D02*
X0610812Y0186949D01*
X0610412Y0187447D02*
X0605067Y0187447D01*
X0605680Y0187946D02*
X0609814Y0187946D01*
X0608679Y0188444D02*
X0606822Y0188444D01*
X0619040Y0185453D02*
X0626433Y0185453D01*
X0626307Y0185952D02*
X0619157Y0185952D01*
X0619338Y0186450D02*
X0626110Y0186450D01*
X0625827Y0186949D02*
X0619601Y0186949D01*
X0619999Y0187447D02*
X0625424Y0187447D01*
X0624833Y0187946D02*
X0620570Y0187946D01*
X0621623Y0188444D02*
X0623812Y0188444D01*
X0611214Y0172492D02*
X0604207Y0172492D01*
X0604447Y0171993D02*
X0610978Y0171993D01*
X0610647Y0171495D02*
X0604787Y0171495D01*
X0605264Y0170996D02*
X0610176Y0170996D01*
X0609448Y0170498D02*
X0605999Y0170498D01*
X0501491Y0171352D02*
X0501423Y0170694D01*
X0501243Y0170058D01*
X0500955Y0169462D01*
X0500567Y0168926D01*
X0500093Y0168465D01*
X0499545Y0168093D01*
X0498942Y0167822D01*
X0498300Y0167660D01*
X0497640Y0167612D01*
X0496921Y0167691D01*
X0496231Y0167908D01*
X0495597Y0168256D01*
X0495042Y0168721D01*
X0494590Y0169285D01*
X0494255Y0169927D01*
X0494053Y0170622D01*
X0493990Y0171343D01*
X0494052Y0172067D01*
X0494254Y0172766D01*
X0494588Y0173412D01*
X0495042Y0173980D01*
X0495598Y0174449D01*
X0496234Y0174801D01*
X0496928Y0175021D01*
X0497650Y0175102D01*
X0498310Y0175052D01*
X0498951Y0174889D01*
X0499554Y0174616D01*
X0500100Y0174243D01*
X0500574Y0173781D01*
X0500960Y0173244D01*
X0501246Y0172648D01*
X0501425Y0172011D01*
X0501491Y0171352D01*
X0501476Y0171495D02*
X0494003Y0171495D01*
X0494020Y0170996D02*
X0501454Y0170996D01*
X0501368Y0170498D02*
X0494089Y0170498D01*
X0494234Y0169999D02*
X0501215Y0169999D01*
X0500973Y0169501D02*
X0494477Y0169501D01*
X0494817Y0169002D02*
X0500623Y0169002D01*
X0500133Y0168504D02*
X0495301Y0168504D01*
X0496054Y0168005D02*
X0499349Y0168005D01*
X0501427Y0171993D02*
X0494045Y0171993D01*
X0494174Y0172492D02*
X0501290Y0172492D01*
X0501081Y0172990D02*
X0494370Y0172990D01*
X0494649Y0173489D02*
X0500784Y0173489D01*
X0500362Y0173987D02*
X0495050Y0173987D01*
X0495664Y0174486D02*
X0499745Y0174486D01*
X0498576Y0174984D02*
X0496813Y0174984D01*
X0496921Y0178711D02*
X0496231Y0178928D01*
X0495597Y0179276D01*
X0495042Y0179741D01*
X0494590Y0180306D01*
X0494255Y0180947D01*
X0494053Y0181642D01*
X0493990Y0182363D01*
X0494052Y0183087D01*
X0494254Y0183786D01*
X0494588Y0184432D01*
X0495042Y0185000D01*
X0495598Y0185469D01*
X0496234Y0185821D01*
X0496928Y0186041D01*
X0497650Y0186122D01*
X0498310Y0186072D01*
X0498951Y0185909D01*
X0499554Y0185636D01*
X0500100Y0185263D01*
X0500574Y0184801D01*
X0500960Y0184264D01*
X0501246Y0183668D01*
X0501425Y0183031D01*
X0501491Y0182372D01*
X0501423Y0181714D01*
X0501243Y0181078D01*
X0500955Y0180482D01*
X0500567Y0179946D01*
X0500093Y0179485D01*
X0499545Y0179113D01*
X0498942Y0178842D01*
X0498300Y0178680D01*
X0497640Y0178632D01*
X0496921Y0178711D01*
X0496150Y0178973D02*
X0499232Y0178973D01*
X0500072Y0179471D02*
X0495364Y0179471D01*
X0494859Y0179970D02*
X0500584Y0179970D01*
X0500944Y0180468D02*
X0494505Y0180468D01*
X0494250Y0180967D02*
X0501189Y0180967D01*
X0501353Y0181465D02*
X0494105Y0181465D01*
X0494025Y0181964D02*
X0501449Y0181964D01*
X0501482Y0182462D02*
X0493999Y0182462D01*
X0494041Y0182961D02*
X0501432Y0182961D01*
X0501305Y0183459D02*
X0494159Y0183459D01*
X0494342Y0183958D02*
X0501107Y0183958D01*
X0500822Y0184456D02*
X0494607Y0184456D01*
X0495005Y0184955D02*
X0500417Y0184955D01*
X0499822Y0185453D02*
X0495579Y0185453D01*
X0496647Y0185952D02*
X0498783Y0185952D01*
X0486388Y0183063D02*
X0486451Y0182343D01*
X0486389Y0181618D01*
X0486187Y0180919D01*
X0485853Y0180273D01*
X0485399Y0179705D01*
X0484843Y0179236D01*
X0484206Y0178884D01*
X0483513Y0178664D01*
X0482791Y0178583D01*
X0482131Y0178633D01*
X0481490Y0178796D01*
X0480887Y0179069D01*
X0480341Y0179442D01*
X0479867Y0179904D01*
X0479481Y0180441D01*
X0479195Y0181037D01*
X0479016Y0181674D01*
X0478950Y0182333D01*
X0479018Y0182991D01*
X0479198Y0183627D01*
X0479486Y0184223D01*
X0479874Y0184759D01*
X0480348Y0185220D01*
X0480896Y0185592D01*
X0481499Y0185863D01*
X0482141Y0186025D01*
X0482801Y0186073D01*
X0483520Y0185994D01*
X0484210Y0185777D01*
X0484844Y0185429D01*
X0485399Y0184964D01*
X0485851Y0184400D01*
X0486185Y0183758D01*
X0486388Y0183063D01*
X0486397Y0182961D02*
X0479015Y0182961D01*
X0478964Y0182462D02*
X0486440Y0182462D01*
X0486419Y0181964D02*
X0478987Y0181964D01*
X0479075Y0181465D02*
X0486345Y0181465D01*
X0486201Y0180967D02*
X0479229Y0180967D01*
X0479468Y0180468D02*
X0485954Y0180468D01*
X0485611Y0179970D02*
X0479820Y0179970D01*
X0480310Y0179471D02*
X0485122Y0179471D01*
X0484366Y0178973D02*
X0481100Y0178973D01*
X0482141Y0175005D02*
X0481499Y0174843D01*
X0480896Y0174572D01*
X0480348Y0174200D01*
X0479874Y0173739D01*
X0479486Y0173203D01*
X0479198Y0172607D01*
X0479018Y0171971D01*
X0478950Y0171313D01*
X0479016Y0170654D01*
X0479195Y0170017D01*
X0479481Y0169421D01*
X0479867Y0168884D01*
X0480341Y0168422D01*
X0480887Y0168049D01*
X0481490Y0167776D01*
X0482131Y0167613D01*
X0482791Y0167563D01*
X0483513Y0167644D01*
X0484206Y0167864D01*
X0484843Y0168216D01*
X0485399Y0168685D01*
X0485853Y0169253D01*
X0486187Y0169899D01*
X0486389Y0170598D01*
X0486451Y0171322D01*
X0486388Y0172043D01*
X0486185Y0172738D01*
X0485851Y0173380D01*
X0485399Y0173944D01*
X0484844Y0174409D01*
X0484210Y0174757D01*
X0483520Y0174974D01*
X0482801Y0175053D01*
X0482141Y0175005D01*
X0482061Y0174984D02*
X0483426Y0174984D01*
X0484704Y0174486D02*
X0480769Y0174486D01*
X0480129Y0173987D02*
X0485347Y0173987D01*
X0485764Y0173489D02*
X0479693Y0173489D01*
X0479384Y0172990D02*
X0486054Y0172990D01*
X0486257Y0172492D02*
X0479165Y0172492D01*
X0479024Y0171993D02*
X0486392Y0171993D01*
X0486436Y0171495D02*
X0478969Y0171495D01*
X0478982Y0170996D02*
X0486423Y0170996D01*
X0486360Y0170498D02*
X0479060Y0170498D01*
X0479203Y0169999D02*
X0486216Y0169999D01*
X0485981Y0169501D02*
X0479443Y0169501D01*
X0479782Y0169002D02*
X0485653Y0169002D01*
X0485185Y0168504D02*
X0480256Y0168504D01*
X0480983Y0168005D02*
X0484462Y0168005D01*
X0486273Y0183459D02*
X0479150Y0183459D01*
X0479358Y0183958D02*
X0486081Y0183958D01*
X0485806Y0184456D02*
X0479655Y0184456D01*
X0480075Y0184955D02*
X0485406Y0184955D01*
X0484800Y0185453D02*
X0480691Y0185453D01*
X0481852Y0185952D02*
X0483655Y0185952D01*
X1126068Y0184960D02*
X1126131Y0184239D01*
X1126333Y0183544D01*
X1126668Y0182903D01*
X1127120Y0182338D01*
X1127675Y0181873D01*
X1128309Y0181525D01*
X1128999Y0181308D01*
X1129718Y0181229D01*
X1130378Y0181277D01*
X1131020Y0181439D01*
X1131623Y0181710D01*
X1132171Y0182082D01*
X1132645Y0182543D01*
X1133033Y0183079D01*
X1133321Y0183675D01*
X1133501Y0184311D01*
X1133569Y0184969D01*
X1133503Y0185628D01*
X1133324Y0186265D01*
X1133038Y0186861D01*
X1132652Y0187398D01*
X1132178Y0187860D01*
X1131632Y0188233D01*
X1131029Y0188506D01*
X1130388Y0188669D01*
X1129728Y0188719D01*
X1129006Y0188638D01*
X1128312Y0188418D01*
X1127676Y0188066D01*
X1127120Y0187597D01*
X1126666Y0187029D01*
X1126332Y0186383D01*
X1126130Y0185684D01*
X1126068Y0184960D01*
X1126069Y0184955D02*
X1133567Y0184955D01*
X1133520Y0185453D02*
X1126110Y0185453D01*
X1126207Y0185952D02*
X1133412Y0185952D01*
X1133235Y0186450D02*
X1126366Y0186450D01*
X1126624Y0186949D02*
X1132975Y0186949D01*
X1132602Y0187447D02*
X1127000Y0187447D01*
X1127533Y0187946D02*
X1132053Y0187946D01*
X1131165Y0188444D02*
X1128396Y0188444D01*
X1126112Y0184456D02*
X1133516Y0184456D01*
X1133401Y0183958D02*
X1126213Y0183958D01*
X1126378Y0183459D02*
X1133216Y0183459D01*
X1132947Y0182961D02*
X1126637Y0182961D01*
X1127021Y0182462D02*
X1132562Y0182462D01*
X1131997Y0181964D02*
X1127567Y0181964D01*
X1128500Y0181465D02*
X1131077Y0181465D01*
X1130388Y0177649D02*
X1131029Y0177486D01*
X1131632Y0177213D01*
X1132178Y0176840D01*
X1132652Y0176378D01*
X1133038Y0175841D01*
X1133324Y0175245D01*
X1133503Y0174608D01*
X1133569Y0173949D01*
X1133501Y0173291D01*
X1133321Y0172655D01*
X1133033Y0172059D01*
X1132645Y0171523D01*
X1132171Y0171062D01*
X1131623Y0170690D01*
X1131020Y0170419D01*
X1130378Y0170257D01*
X1129718Y0170209D01*
X1128999Y0170288D01*
X1128309Y0170505D01*
X1127675Y0170853D01*
X1127120Y0171318D01*
X1126668Y0171882D01*
X1126333Y0172524D01*
X1126131Y0173219D01*
X1126068Y0173940D01*
X1126130Y0174664D01*
X1126332Y0175363D01*
X1126666Y0176009D01*
X1127120Y0176577D01*
X1127676Y0177046D01*
X1128312Y0177398D01*
X1129006Y0177618D01*
X1129728Y0177699D01*
X1130388Y0177649D01*
X1131048Y0177477D02*
X1128562Y0177477D01*
X1127595Y0176978D02*
X1131976Y0176978D01*
X1132547Y0176480D02*
X1127042Y0176480D01*
X1126652Y0175981D02*
X1132937Y0175981D01*
X1133210Y0175483D02*
X1126394Y0175483D01*
X1126222Y0174984D02*
X1133397Y0174984D01*
X1133515Y0174486D02*
X1126115Y0174486D01*
X1126072Y0173987D02*
X1133565Y0173987D01*
X1133522Y0173489D02*
X1126108Y0173489D01*
X1126198Y0172990D02*
X1133416Y0172990D01*
X1133242Y0172492D02*
X1126350Y0172492D01*
X1126610Y0171993D02*
X1132985Y0171993D01*
X1132617Y0171495D02*
X1126979Y0171495D01*
X1127504Y0170996D02*
X1132074Y0170996D01*
X1131195Y0170498D02*
X1128332Y0170498D01*
X1139131Y0173219D02*
X1139068Y0173940D01*
X1139130Y0174664D01*
X1139332Y0175363D01*
X1139666Y0176009D01*
X1140120Y0176577D01*
X1140676Y0177046D01*
X1141312Y0177398D01*
X1142006Y0177618D01*
X1142728Y0177699D01*
X1143388Y0177649D01*
X1144029Y0177486D01*
X1144632Y0177213D01*
X1145178Y0176840D01*
X1145652Y0176378D01*
X1146038Y0175841D01*
X1146324Y0175245D01*
X1146503Y0174608D01*
X1146569Y0173949D01*
X1146501Y0173291D01*
X1146321Y0172655D01*
X1146033Y0172059D01*
X1145645Y0171523D01*
X1145171Y0171062D01*
X1144623Y0170690D01*
X1144020Y0170419D01*
X1143378Y0170257D01*
X1142718Y0170209D01*
X1141999Y0170288D01*
X1141309Y0170505D01*
X1140675Y0170853D01*
X1140120Y0171318D01*
X1139668Y0171882D01*
X1139333Y0172524D01*
X1139131Y0173219D01*
X1139198Y0172990D02*
X1146416Y0172990D01*
X1146522Y0173489D02*
X1139108Y0173489D01*
X1139072Y0173987D02*
X1146565Y0173987D01*
X1146515Y0174486D02*
X1139115Y0174486D01*
X1139222Y0174984D02*
X1146397Y0174984D01*
X1146210Y0175483D02*
X1139394Y0175483D01*
X1139652Y0175981D02*
X1145937Y0175981D01*
X1145547Y0176480D02*
X1140042Y0176480D01*
X1140595Y0176978D02*
X1144976Y0176978D01*
X1144048Y0177477D02*
X1141562Y0177477D01*
X1141999Y0181308D02*
X1141309Y0181525D01*
X1140675Y0181873D01*
X1140120Y0182338D01*
X1139668Y0182903D01*
X1139333Y0183544D01*
X1139131Y0184239D01*
X1139068Y0184960D01*
X1139130Y0185684D01*
X1139332Y0186383D01*
X1139666Y0187029D01*
X1140120Y0187597D01*
X1140676Y0188066D01*
X1141312Y0188418D01*
X1142006Y0188638D01*
X1142728Y0188719D01*
X1143388Y0188669D01*
X1144029Y0188506D01*
X1144632Y0188233D01*
X1145178Y0187860D01*
X1145652Y0187398D01*
X1146038Y0186861D01*
X1146324Y0186265D01*
X1146503Y0185628D01*
X1146569Y0184969D01*
X1146501Y0184311D01*
X1146321Y0183675D01*
X1146033Y0183079D01*
X1145645Y0182543D01*
X1145171Y0182082D01*
X1144623Y0181710D01*
X1144020Y0181439D01*
X1143378Y0181277D01*
X1142718Y0181229D01*
X1141999Y0181308D01*
X1141500Y0181465D02*
X1144077Y0181465D01*
X1144997Y0181964D02*
X1140567Y0181964D01*
X1140021Y0182462D02*
X1145562Y0182462D01*
X1145947Y0182961D02*
X1139637Y0182961D01*
X1139378Y0183459D02*
X1146216Y0183459D01*
X1146401Y0183958D02*
X1139213Y0183958D01*
X1139112Y0184456D02*
X1146516Y0184456D01*
X1146567Y0184955D02*
X1139069Y0184955D01*
X1139110Y0185453D02*
X1146520Y0185453D01*
X1146412Y0185952D02*
X1139207Y0185952D01*
X1139366Y0186450D02*
X1146235Y0186450D01*
X1145975Y0186949D02*
X1139624Y0186949D01*
X1140000Y0187447D02*
X1145602Y0187447D01*
X1145053Y0187946D02*
X1140533Y0187946D01*
X1141396Y0188444D02*
X1144165Y0188444D01*
X1146242Y0172492D02*
X1139350Y0172492D01*
X1139610Y0171993D02*
X1145985Y0171993D01*
X1145617Y0171495D02*
X1139979Y0171495D01*
X1140504Y0170996D02*
X1145074Y0170996D01*
X1144195Y0170498D02*
X1141332Y0170498D01*
X1138289Y0057399D02*
X1138947Y0057331D01*
X1139583Y0057151D01*
X1140179Y0056863D01*
X1140715Y0056475D01*
X1141176Y0056001D01*
X1141548Y0055453D01*
X1141819Y0054850D01*
X1141981Y0054208D01*
X1142029Y0053548D01*
X1141950Y0052829D01*
X1141733Y0052139D01*
X1141385Y0051505D01*
X1140920Y0050950D01*
X1140356Y0050498D01*
X1139714Y0050163D01*
X1139019Y0049961D01*
X1138298Y0049898D01*
X1137574Y0049960D01*
X1136875Y0050162D01*
X1136229Y0050496D01*
X1135661Y0050950D01*
X1135192Y0051506D01*
X1134840Y0052142D01*
X1134620Y0052836D01*
X1134539Y0053558D01*
X1134589Y0054218D01*
X1134752Y0054859D01*
X1135025Y0055462D01*
X1135398Y0056008D01*
X1135860Y0056482D01*
X1136397Y0056868D01*
X1136993Y0057154D01*
X1137630Y0057333D01*
X1138289Y0057399D01*
X1138903Y0057336D02*
X1137657Y0057336D01*
X1136355Y0056837D02*
X1140214Y0056837D01*
X1140848Y0056339D02*
X1135720Y0056339D01*
X1135283Y0055840D02*
X1141285Y0055840D01*
X1141598Y0055342D02*
X1134970Y0055342D01*
X1134748Y0054843D02*
X1141820Y0054843D01*
X1141946Y0054345D02*
X1134621Y0054345D01*
X1134561Y0053846D02*
X1142007Y0053846D01*
X1142007Y0053348D02*
X1134563Y0053348D01*
X1134618Y0052849D02*
X1141952Y0052849D01*
X1141799Y0052351D02*
X1134774Y0052351D01*
X1135001Y0051852D02*
X1141575Y0051852D01*
X1141258Y0051354D02*
X1135320Y0051354D01*
X1135779Y0050855D02*
X1140801Y0050855D01*
X1140085Y0050357D02*
X1136498Y0050357D01*
X1130713Y0052139D02*
X1130365Y0051505D01*
X1129900Y0050950D01*
X1129335Y0050498D01*
X1128694Y0050163D01*
X1127999Y0049961D01*
X1127278Y0049898D01*
X1126554Y0049960D01*
X1125855Y0050162D01*
X1125209Y0050496D01*
X1124641Y0050950D01*
X1124172Y0051506D01*
X1123820Y0052142D01*
X1123600Y0052836D01*
X1123519Y0053558D01*
X1123569Y0054218D01*
X1123732Y0054859D01*
X1124005Y0055462D01*
X1124378Y0056008D01*
X1124840Y0056482D01*
X1125377Y0056868D01*
X1125973Y0057154D01*
X1126610Y0057333D01*
X1127269Y0057399D01*
X1127927Y0057331D01*
X1128563Y0057151D01*
X1129159Y0056863D01*
X1129695Y0056475D01*
X1130156Y0056001D01*
X1130528Y0055453D01*
X1130799Y0054850D01*
X1130961Y0054208D01*
X1131009Y0053548D01*
X1130930Y0052829D01*
X1130713Y0052139D01*
X1130779Y0052351D02*
X1123754Y0052351D01*
X1123598Y0052849D02*
X1130932Y0052849D01*
X1130987Y0053348D02*
X1123543Y0053348D01*
X1123541Y0053846D02*
X1130987Y0053846D01*
X1130926Y0054345D02*
X1123601Y0054345D01*
X1123728Y0054843D02*
X1130800Y0054843D01*
X1130578Y0055342D02*
X1123950Y0055342D01*
X1124263Y0055840D02*
X1130265Y0055840D01*
X1129828Y0056339D02*
X1124700Y0056339D01*
X1125335Y0056837D02*
X1129194Y0056837D01*
X1127883Y0057336D02*
X1126637Y0057336D01*
X1123981Y0051852D02*
X1130555Y0051852D01*
X1130238Y0051354D02*
X1124300Y0051354D01*
X1124759Y0050855D02*
X1129781Y0050855D01*
X1129065Y0050357D02*
X1125478Y0050357D01*
X1012078Y0053000D02*
X1012028Y0052340D01*
X1011865Y0051699D01*
X1011592Y0051096D01*
X1011219Y0050550D01*
X1010757Y0050076D01*
X1010220Y0049690D01*
X1009624Y0049404D01*
X1008987Y0049225D01*
X1008328Y0049159D01*
X1007670Y0049227D01*
X1007034Y0049407D01*
X1006438Y0049695D01*
X1005902Y0050083D01*
X1005441Y0050557D01*
X1005069Y0051105D01*
X1004798Y0051708D01*
X1004636Y0052350D01*
X1004588Y0053010D01*
X1004667Y0053729D01*
X1004884Y0054419D01*
X1005232Y0055053D01*
X1005697Y0055608D01*
X1006261Y0056060D01*
X1006903Y0056394D01*
X1007598Y0056597D01*
X1008319Y0056660D01*
X1009043Y0056598D01*
X1009742Y0056396D01*
X1010388Y0056062D01*
X1010956Y0055608D01*
X1011425Y0055052D01*
X1011777Y0054415D01*
X1011997Y0053722D01*
X1012078Y0053000D01*
X1012067Y0052849D02*
X1004600Y0052849D01*
X1004625Y0053348D02*
X1012039Y0053348D01*
X1011958Y0053846D02*
X1004704Y0053846D01*
X1004861Y0054345D02*
X1011799Y0054345D01*
X1011541Y0054843D02*
X1005117Y0054843D01*
X1005474Y0055342D02*
X1011181Y0055342D01*
X1010666Y0055840D02*
X1005987Y0055840D01*
X1006796Y0056339D02*
X1009853Y0056339D01*
X1012029Y0052351D02*
X1004636Y0052351D01*
X1004762Y0051852D02*
X1011904Y0051852D01*
X1011709Y0051354D02*
X1004957Y0051354D01*
X1005239Y0050855D02*
X1011428Y0050855D01*
X1011031Y0050357D02*
X1005636Y0050357D01*
X1006213Y0049858D02*
X1010453Y0049858D01*
X1009467Y0049360D02*
X1007201Y0049360D01*
X1000845Y0051699D02*
X1000572Y0051096D01*
X1000199Y0050550D01*
X0999737Y0050076D01*
X0999200Y0049690D01*
X0998604Y0049404D01*
X0997967Y0049225D01*
X0997308Y0049159D01*
X0996650Y0049227D01*
X0996014Y0049407D01*
X0995418Y0049695D01*
X0994882Y0050083D01*
X0994421Y0050557D01*
X0994049Y0051105D01*
X0993778Y0051708D01*
X0993616Y0052350D01*
X0993568Y0053010D01*
X0993647Y0053729D01*
X0993864Y0054419D01*
X0994212Y0055053D01*
X0994677Y0055608D01*
X0995241Y0056060D01*
X0995883Y0056394D01*
X0996578Y0056597D01*
X0997298Y0056660D01*
X0998023Y0056598D01*
X0998722Y0056396D01*
X0999368Y0056062D01*
X0999936Y0055608D01*
X1000405Y0055052D01*
X1000757Y0054415D01*
X1000977Y0053722D01*
X1001058Y0053000D01*
X1001008Y0052340D01*
X1000845Y0051699D01*
X1000884Y0051852D02*
X0993742Y0051852D01*
X0993616Y0052351D02*
X1001009Y0052351D01*
X1001047Y0052849D02*
X0993580Y0052849D01*
X0993605Y0053348D02*
X1001019Y0053348D01*
X1000938Y0053846D02*
X0993684Y0053846D01*
X0993841Y0054345D02*
X1000779Y0054345D01*
X1000521Y0054843D02*
X0994097Y0054843D01*
X0994454Y0055342D02*
X1000161Y0055342D01*
X0999646Y0055840D02*
X0994967Y0055840D01*
X0995776Y0056339D02*
X0998833Y0056339D01*
X1000689Y0051354D02*
X0993937Y0051354D01*
X0994219Y0050855D02*
X1000408Y0050855D01*
X1000011Y0050357D02*
X0994616Y0050357D01*
X0995193Y0049858D02*
X0999433Y0049858D01*
X0998447Y0049360D02*
X0996181Y0049360D01*
X0882078Y0052301D02*
X0882028Y0051641D01*
X0881865Y0051000D01*
X0881592Y0050397D01*
X0881219Y0049851D01*
X0880757Y0049377D01*
X0880220Y0048991D01*
X0879624Y0048705D01*
X0878987Y0048526D01*
X0878328Y0048460D01*
X0877670Y0048528D01*
X0877034Y0048708D01*
X0876438Y0048996D01*
X0875902Y0049384D01*
X0875441Y0049858D01*
X0881225Y0049858D01*
X0881565Y0050357D02*
X0875103Y0050357D01*
X0875069Y0050406D02*
X0874798Y0051009D01*
X0874636Y0051651D01*
X0874588Y0052311D01*
X0874667Y0053030D01*
X0874884Y0053720D01*
X0875232Y0054354D01*
X0875697Y0054909D01*
X0876261Y0055361D01*
X0876903Y0055695D01*
X0877598Y0055898D01*
X0878319Y0055961D01*
X0879043Y0055899D01*
X0879742Y0055697D01*
X0880388Y0055363D01*
X0880956Y0054909D01*
X0881425Y0054353D01*
X0881777Y0053716D01*
X0881997Y0053023D01*
X0882078Y0052301D01*
X0882072Y0052351D02*
X0874593Y0052351D01*
X0874622Y0051852D02*
X0882044Y0051852D01*
X0881955Y0051354D02*
X0874711Y0051354D01*
X0874868Y0050855D02*
X0881799Y0050855D01*
X0880733Y0049360D02*
X0875935Y0049360D01*
X0875441Y0049858D02*
X0875069Y0050406D01*
X0876718Y0048861D02*
X0879949Y0048861D01*
X0870845Y0051000D02*
X0870572Y0050397D01*
X0870199Y0049851D01*
X0869737Y0049377D01*
X0869200Y0048991D01*
X0868604Y0048705D01*
X0867967Y0048526D01*
X0867308Y0048460D01*
X0866650Y0048528D01*
X0866014Y0048708D01*
X0865418Y0048996D01*
X0864882Y0049384D01*
X0864421Y0049858D01*
X0870204Y0049858D01*
X0870545Y0050357D02*
X0864082Y0050357D01*
X0864049Y0050406D02*
X0863778Y0051009D01*
X0863616Y0051651D01*
X0863568Y0052311D01*
X0863647Y0053030D01*
X0863864Y0053720D01*
X0864212Y0054354D01*
X0864677Y0054909D01*
X0865241Y0055361D01*
X0865883Y0055695D01*
X0866578Y0055898D01*
X0867298Y0055961D01*
X0868023Y0055899D01*
X0868722Y0055697D01*
X0869368Y0055363D01*
X0869936Y0054909D01*
X0870405Y0054353D01*
X0870757Y0053716D01*
X0870977Y0053023D01*
X0871058Y0052301D01*
X0871008Y0051641D01*
X0870845Y0051000D01*
X0870779Y0050855D02*
X0863847Y0050855D01*
X0864049Y0050406D02*
X0864421Y0049858D01*
X0864915Y0049360D02*
X0869713Y0049360D01*
X0868929Y0048861D02*
X0865698Y0048861D01*
X0863691Y0051354D02*
X0870935Y0051354D01*
X0871024Y0051852D02*
X0863602Y0051852D01*
X0863573Y0052351D02*
X0871052Y0052351D01*
X0870996Y0052849D02*
X0863627Y0052849D01*
X0863747Y0053348D02*
X0870874Y0053348D01*
X0870685Y0053846D02*
X0863933Y0053846D01*
X0864207Y0054345D02*
X0870410Y0054345D01*
X0869992Y0054843D02*
X0864622Y0054843D01*
X0865217Y0055342D02*
X0869395Y0055342D01*
X0868227Y0055840D02*
X0866380Y0055840D01*
X0874767Y0053348D02*
X0881894Y0053348D01*
X0882017Y0052849D02*
X0874647Y0052849D01*
X0874953Y0053846D02*
X0881705Y0053846D01*
X0881430Y0054345D02*
X0875227Y0054345D01*
X0875642Y0054843D02*
X0881012Y0054843D01*
X0880415Y0055342D02*
X0876237Y0055342D01*
X0877400Y0055840D02*
X0879247Y0055840D01*
X0752000Y0050633D02*
X0751950Y0049973D01*
X0751787Y0049332D01*
X0751514Y0048729D01*
X0751141Y0048183D01*
X0750679Y0047710D01*
X0750142Y0047324D01*
X0749546Y0047037D01*
X0748909Y0046858D01*
X0748250Y0046793D01*
X0747592Y0046860D01*
X0746956Y0047041D01*
X0746360Y0047329D01*
X0745824Y0047716D01*
X0745363Y0048191D01*
X0744991Y0048738D01*
X0744720Y0049342D01*
X0744558Y0049983D01*
X0744510Y0050643D01*
X0744589Y0051362D01*
X0744806Y0052053D01*
X0745154Y0052687D01*
X0745619Y0053241D01*
X0746183Y0053694D01*
X0746825Y0054028D01*
X0747520Y0054230D01*
X0748241Y0054293D01*
X0748965Y0054232D01*
X0749664Y0054030D01*
X0750310Y0053696D01*
X0750878Y0053242D01*
X0751347Y0052686D01*
X0751699Y0052049D01*
X0751919Y0051356D01*
X0752000Y0050633D01*
X0751975Y0050855D02*
X0744533Y0050855D01*
X0744531Y0050357D02*
X0751979Y0050357D01*
X0751921Y0049858D02*
X0744590Y0049858D01*
X0744716Y0049360D02*
X0751794Y0049360D01*
X0751574Y0048861D02*
X0744936Y0048861D01*
X0745246Y0048363D02*
X0751264Y0048363D01*
X0750830Y0047864D02*
X0745680Y0047864D01*
X0746309Y0047366D02*
X0750200Y0047366D01*
X0748940Y0046867D02*
X0747568Y0046867D01*
X0744588Y0051354D02*
X0751919Y0051354D01*
X0751761Y0051852D02*
X0744743Y0051852D01*
X0744970Y0052351D02*
X0751532Y0052351D01*
X0751209Y0052849D02*
X0745290Y0052849D01*
X0745752Y0053348D02*
X0750746Y0053348D01*
X0750019Y0053846D02*
X0746476Y0053846D01*
X0740679Y0052049D02*
X0740899Y0051356D01*
X0740980Y0050633D01*
X0740930Y0049973D01*
X0740767Y0049332D01*
X0740494Y0048729D01*
X0740121Y0048183D01*
X0739659Y0047710D01*
X0739122Y0047324D01*
X0738526Y0047037D01*
X0737889Y0046858D01*
X0737230Y0046793D01*
X0736572Y0046860D01*
X0735936Y0047041D01*
X0735340Y0047329D01*
X0734804Y0047716D01*
X0734343Y0048191D01*
X0733971Y0048738D01*
X0733700Y0049342D01*
X0733538Y0049983D01*
X0733490Y0050643D01*
X0733569Y0051362D01*
X0733786Y0052053D01*
X0734134Y0052687D01*
X0734599Y0053241D01*
X0735163Y0053694D01*
X0735805Y0054028D01*
X0736500Y0054230D01*
X0737220Y0054293D01*
X0737945Y0054232D01*
X0738644Y0054030D01*
X0739290Y0053696D01*
X0739858Y0053242D01*
X0740327Y0052686D01*
X0740679Y0052049D01*
X0740741Y0051852D02*
X0733723Y0051852D01*
X0733568Y0051354D02*
X0740899Y0051354D01*
X0740955Y0050855D02*
X0733513Y0050855D01*
X0733511Y0050357D02*
X0740959Y0050357D01*
X0740901Y0049858D02*
X0733570Y0049858D01*
X0733696Y0049360D02*
X0740774Y0049360D01*
X0740554Y0048861D02*
X0733916Y0048861D01*
X0734226Y0048363D02*
X0740244Y0048363D01*
X0739810Y0047864D02*
X0734660Y0047864D01*
X0735289Y0047366D02*
X0739180Y0047366D01*
X0737920Y0046867D02*
X0736548Y0046867D01*
X0733950Y0052351D02*
X0740512Y0052351D01*
X0740189Y0052849D02*
X0734270Y0052849D01*
X0734732Y0053348D02*
X0739726Y0053348D01*
X0738999Y0053846D02*
X0735456Y0053846D01*
X0622000Y0050633D02*
X0621950Y0049973D01*
X0621787Y0049332D01*
X0621514Y0048729D01*
X0621141Y0048183D01*
X0620679Y0047710D01*
X0620142Y0047324D01*
X0619546Y0047037D01*
X0618909Y0046858D01*
X0618250Y0046793D01*
X0617592Y0046860D01*
X0616956Y0047041D01*
X0616360Y0047329D01*
X0615824Y0047716D01*
X0615363Y0048191D01*
X0614991Y0048738D01*
X0614720Y0049342D01*
X0614558Y0049983D01*
X0614510Y0050643D01*
X0614589Y0051362D01*
X0614806Y0052053D01*
X0615154Y0052687D01*
X0615619Y0053241D01*
X0616183Y0053694D01*
X0616825Y0054028D01*
X0617520Y0054230D01*
X0618241Y0054293D01*
X0618965Y0054232D01*
X0619664Y0054030D01*
X0620310Y0053696D01*
X0620878Y0053242D01*
X0621347Y0052686D01*
X0621699Y0052049D01*
X0621919Y0051356D01*
X0622000Y0050633D01*
X0621975Y0050855D02*
X0614533Y0050855D01*
X0614531Y0050357D02*
X0621979Y0050357D01*
X0621921Y0049858D02*
X0614590Y0049858D01*
X0614716Y0049360D02*
X0621794Y0049360D01*
X0621574Y0048861D02*
X0614936Y0048861D01*
X0615246Y0048363D02*
X0621264Y0048363D01*
X0620830Y0047864D02*
X0615680Y0047864D01*
X0616309Y0047366D02*
X0620200Y0047366D01*
X0618940Y0046867D02*
X0617568Y0046867D01*
X0614588Y0051354D02*
X0621919Y0051354D01*
X0621761Y0051852D02*
X0614743Y0051852D01*
X0614970Y0052351D02*
X0621532Y0052351D01*
X0621209Y0052849D02*
X0615290Y0052849D01*
X0615752Y0053348D02*
X0620746Y0053348D01*
X0620019Y0053846D02*
X0616476Y0053846D01*
X0610679Y0052049D02*
X0610899Y0051356D01*
X0610980Y0050633D01*
X0610930Y0049973D01*
X0610767Y0049332D01*
X0610494Y0048729D01*
X0610121Y0048183D01*
X0609659Y0047710D01*
X0609122Y0047324D01*
X0608526Y0047037D01*
X0607889Y0046858D01*
X0607230Y0046793D01*
X0606572Y0046860D01*
X0605936Y0047041D01*
X0605340Y0047329D01*
X0604804Y0047716D01*
X0604343Y0048191D01*
X0603971Y0048738D01*
X0603700Y0049342D01*
X0603538Y0049983D01*
X0603490Y0050643D01*
X0603569Y0051362D01*
X0603786Y0052053D01*
X0604134Y0052687D01*
X0604599Y0053241D01*
X0605163Y0053694D01*
X0605805Y0054028D01*
X0606500Y0054230D01*
X0607220Y0054293D01*
X0607945Y0054232D01*
X0608644Y0054030D01*
X0609290Y0053696D01*
X0609858Y0053242D01*
X0610327Y0052686D01*
X0610679Y0052049D01*
X0610741Y0051852D02*
X0603723Y0051852D01*
X0603568Y0051354D02*
X0610899Y0051354D01*
X0610955Y0050855D02*
X0603513Y0050855D01*
X0603511Y0050357D02*
X0610959Y0050357D01*
X0610901Y0049858D02*
X0603570Y0049858D01*
X0603696Y0049360D02*
X0610774Y0049360D01*
X0610554Y0048861D02*
X0603916Y0048861D01*
X0604226Y0048363D02*
X0610244Y0048363D01*
X0609810Y0047864D02*
X0604660Y0047864D01*
X0605289Y0047366D02*
X0609180Y0047366D01*
X0607920Y0046867D02*
X0606548Y0046867D01*
X0603950Y0052351D02*
X0610512Y0052351D01*
X0610189Y0052849D02*
X0604270Y0052849D01*
X0604732Y0053348D02*
X0609726Y0053348D01*
X0608999Y0053846D02*
X0605456Y0053846D01*
X0497000Y0050633D02*
X0496950Y0049973D01*
X0496787Y0049332D01*
X0496514Y0048729D01*
X0496141Y0048183D01*
X0495679Y0047710D01*
X0495142Y0047324D01*
X0494546Y0047037D01*
X0493909Y0046858D01*
X0493250Y0046793D01*
X0492592Y0046860D01*
X0491956Y0047041D01*
X0491360Y0047329D01*
X0490824Y0047716D01*
X0490363Y0048191D01*
X0489991Y0048738D01*
X0489720Y0049342D01*
X0489558Y0049983D01*
X0489510Y0050643D01*
X0489589Y0051362D01*
X0489806Y0052053D01*
X0490154Y0052687D01*
X0490619Y0053241D01*
X0491183Y0053694D01*
X0491825Y0054028D01*
X0492520Y0054230D01*
X0493241Y0054293D01*
X0493965Y0054232D01*
X0494664Y0054030D01*
X0495310Y0053696D01*
X0495878Y0053242D01*
X0496347Y0052686D01*
X0496699Y0052049D01*
X0496919Y0051356D01*
X0497000Y0050633D01*
X0496975Y0050855D02*
X0489533Y0050855D01*
X0489531Y0050357D02*
X0496979Y0050357D01*
X0496921Y0049858D02*
X0489590Y0049858D01*
X0489716Y0049360D02*
X0496794Y0049360D01*
X0496574Y0048861D02*
X0489936Y0048861D01*
X0490246Y0048363D02*
X0496264Y0048363D01*
X0495830Y0047864D02*
X0490680Y0047864D01*
X0491309Y0047366D02*
X0495200Y0047366D01*
X0493940Y0046867D02*
X0492568Y0046867D01*
X0489588Y0051354D02*
X0496919Y0051354D01*
X0496761Y0051852D02*
X0489743Y0051852D01*
X0489970Y0052351D02*
X0496532Y0052351D01*
X0496209Y0052849D02*
X0490290Y0052849D01*
X0490752Y0053348D02*
X0495746Y0053348D01*
X0495019Y0053846D02*
X0491476Y0053846D01*
X0485679Y0052049D02*
X0485899Y0051356D01*
X0485980Y0050633D01*
X0485930Y0049973D01*
X0485767Y0049332D01*
X0485494Y0048729D01*
X0485121Y0048183D01*
X0484659Y0047710D01*
X0484122Y0047324D01*
X0483526Y0047037D01*
X0482889Y0046858D01*
X0482230Y0046793D01*
X0481572Y0046860D01*
X0480936Y0047041D01*
X0480340Y0047329D01*
X0479804Y0047716D01*
X0479343Y0048191D01*
X0478971Y0048738D01*
X0478700Y0049342D01*
X0478538Y0049983D01*
X0478490Y0050643D01*
X0478569Y0051362D01*
X0478786Y0052053D01*
X0479134Y0052687D01*
X0479599Y0053241D01*
X0480163Y0053694D01*
X0480805Y0054028D01*
X0481500Y0054230D01*
X0482220Y0054293D01*
X0482945Y0054232D01*
X0483644Y0054030D01*
X0484290Y0053696D01*
X0484858Y0053242D01*
X0485327Y0052686D01*
X0485679Y0052049D01*
X0485741Y0051852D02*
X0478723Y0051852D01*
X0478568Y0051354D02*
X0485899Y0051354D01*
X0485955Y0050855D02*
X0478513Y0050855D01*
X0478511Y0050357D02*
X0485959Y0050357D01*
X0485901Y0049858D02*
X0478570Y0049858D01*
X0478696Y0049360D02*
X0485774Y0049360D01*
X0485554Y0048861D02*
X0478916Y0048861D01*
X0479226Y0048363D02*
X0485244Y0048363D01*
X0484810Y0047864D02*
X0479660Y0047864D01*
X0480289Y0047366D02*
X0484180Y0047366D01*
X0482920Y0046867D02*
X0481548Y0046867D01*
X0478950Y0052351D02*
X0485512Y0052351D01*
X0485189Y0052849D02*
X0479270Y0052849D01*
X0479732Y0053348D02*
X0484726Y0053348D01*
X0483999Y0053846D02*
X0480456Y0053846D01*
D14*
X0460720Y0063437D02*
X0454720Y0063437D01*
X0454720Y0073437D02*
X0460720Y0073437D01*
X0460720Y0083437D02*
X0454720Y0083437D01*
X0579720Y0083437D02*
X0585720Y0083437D01*
X0585720Y0073437D02*
X0579720Y0073437D01*
X0579720Y0063437D02*
X0585720Y0063437D01*
X0709720Y0063437D02*
X0715720Y0063437D01*
X0715720Y0073437D02*
X0709720Y0073437D01*
X0709720Y0083437D02*
X0715720Y0083437D01*
X0839798Y0083331D02*
X0845798Y0083331D01*
X0845798Y0073331D02*
X0839798Y0073331D01*
X0839798Y0063331D02*
X0845798Y0063331D01*
X0969198Y0063423D02*
X0975198Y0063423D01*
X0975198Y0073423D02*
X0969198Y0073423D01*
X0969198Y0083423D02*
X0975198Y0083423D01*
X1098592Y0083516D02*
X1104592Y0083516D01*
X1104592Y0073516D02*
X1098592Y0073516D01*
X1098592Y0063516D02*
X1104592Y0063516D01*
X1105798Y0108335D02*
X1099798Y0108335D01*
X1099798Y0118335D02*
X1105798Y0118335D01*
X1105798Y0128335D02*
X1099798Y0128335D01*
X0975798Y0128636D02*
X0969798Y0128636D01*
X0969798Y0118636D02*
X0975798Y0118636D01*
X0975798Y0108636D02*
X0969798Y0108636D01*
X0845798Y0108937D02*
X0839798Y0108937D01*
X0839798Y0118937D02*
X0845798Y0118937D01*
X0845798Y0128937D02*
X0839798Y0128937D01*
X0715720Y0128437D02*
X0709720Y0128437D01*
X0709720Y0118437D02*
X0715720Y0118437D01*
X0715720Y0108437D02*
X0709720Y0108437D01*
X0585720Y0108437D02*
X0579720Y0108437D01*
X0579720Y0118437D02*
X0585720Y0118437D01*
X0585720Y0128437D02*
X0579720Y0128437D01*
X0460720Y0128437D02*
X0454720Y0128437D01*
X0454720Y0118437D02*
X0460720Y0118437D01*
X0460720Y0108437D02*
X0454720Y0108437D01*
X0454720Y0153437D02*
X0460720Y0153437D01*
X0460720Y0163437D02*
X0454720Y0163437D01*
X0454720Y0173437D02*
X0460720Y0173437D01*
X0579720Y0173437D02*
X0585720Y0173437D01*
X0585720Y0163437D02*
X0579720Y0163437D01*
X0579720Y0153437D02*
X0585720Y0153437D01*
X0709720Y0153437D02*
X0715720Y0153437D01*
X0715720Y0163437D02*
X0709720Y0163437D01*
X0709720Y0173437D02*
X0715720Y0173437D01*
X0839998Y0174472D02*
X0845998Y0174472D01*
X0845998Y0164472D02*
X0839998Y0164472D01*
X0839998Y0154472D02*
X0845998Y0154472D01*
X0968998Y0154171D02*
X0974998Y0154171D01*
X0974998Y0164171D02*
X0968998Y0164171D01*
X0968998Y0174171D02*
X0974998Y0174171D01*
X1099998Y0173870D02*
X1105998Y0173870D01*
X1105998Y0163870D02*
X1099998Y0163870D01*
X1099998Y0153870D02*
X1105998Y0153870D01*
D15*
X0867341Y0208694D03*
X0737720Y0208437D03*
X0607720Y0208437D03*
X0482720Y0208437D03*
X0997341Y0209393D03*
X1127341Y0209092D03*
X1122827Y0031123D03*
X0992827Y0031425D03*
X0862827Y0031726D03*
X0732720Y0031469D03*
X0607720Y0031469D03*
X0482720Y0031469D03*
D16*
X0492720Y0031469D03*
X0617720Y0031469D03*
X0742720Y0031469D03*
X0872827Y0031726D03*
X1002827Y0031425D03*
X1132827Y0031123D03*
X0307767Y0046311D03*
X0288067Y0046311D03*
X0292004Y0190563D03*
X0311704Y0190563D03*
X0492720Y0208437D03*
X0617720Y0208437D03*
X0747720Y0208437D03*
X0877341Y0208694D03*
X1007341Y0209393D03*
X1137341Y0209092D03*
D17*
X1101628Y0187614D03*
X1061628Y0187614D03*
X0972022Y0187309D03*
X0932022Y0187309D03*
X0841628Y0187397D03*
X0801628Y0187397D03*
X0711500Y0187531D03*
X0671500Y0187531D03*
X0583783Y0187531D03*
X0543783Y0187531D03*
X0458783Y0187531D03*
X0418783Y0187531D03*
X0405004Y0045406D03*
X0445004Y0045406D03*
X0530909Y0045406D03*
X0570909Y0045406D03*
X0657720Y0045406D03*
X0697720Y0045406D03*
X0787948Y0045272D03*
X0827948Y0045272D03*
X0917948Y0044971D03*
X0957948Y0044971D03*
X1047948Y0044670D03*
X1087948Y0044670D03*
D18*
X0269728Y0038437D03*
X0249728Y0038437D03*
X0253665Y0198437D03*
X0273665Y0198437D03*
D19*
X0247088Y0182951D02*
X0250115Y0174635D01*
X0267609Y0126570D02*
X0270636Y0118253D01*
X0282176Y0115816D02*
X0285203Y0124132D01*
X0264682Y0067751D02*
X0261655Y0059435D01*
D20*
X0383941Y0200720D03*
X0398941Y0201705D03*
X0413941Y0200720D03*
X0428941Y0200720D03*
X0443941Y0200720D03*
X0458941Y0200720D03*
X0507878Y0200720D03*
X0522878Y0200720D03*
X0537878Y0200720D03*
X0552878Y0200720D03*
X0567878Y0200720D03*
X0582878Y0200720D03*
X0636815Y0200720D03*
X0651815Y0200720D03*
X0666815Y0200720D03*
X0681815Y0200720D03*
X0696815Y0200720D03*
X0711815Y0200720D03*
X0696815Y0210720D03*
X0666815Y0210720D03*
X0636815Y0210720D03*
X0651815Y0220720D03*
X0681815Y0220720D03*
X0711815Y0220720D03*
X0766943Y0210419D03*
X0797233Y0210419D03*
X0827088Y0210419D03*
X0827088Y0200419D03*
X0841593Y0201419D03*
X0811343Y0200419D03*
X0797233Y0200419D03*
X0782093Y0201419D03*
X0766943Y0200419D03*
X0811343Y0220419D03*
X0782093Y0221419D03*
X0841593Y0221419D03*
X0896943Y0210725D03*
X0926088Y0210906D03*
X0957233Y0209544D03*
X0957233Y0199544D03*
X0971593Y0200118D03*
X0941343Y0201118D03*
X0926088Y0200906D03*
X0912093Y0201118D03*
X0896943Y0200725D03*
X0912093Y0221118D03*
X0941343Y0221118D03*
X0971593Y0220118D03*
X1028911Y0209424D03*
X1059056Y0209243D03*
X1088201Y0209243D03*
X1088201Y0199243D03*
X1101561Y0200817D03*
X1072311Y0200817D03*
X1059056Y0199243D03*
X1044061Y0199817D03*
X1028911Y0199424D03*
X1044061Y0219817D03*
X1072311Y0220817D03*
X1101561Y0220817D03*
X0582878Y0220720D03*
X0552878Y0220720D03*
X0522878Y0220720D03*
X0537878Y0210720D03*
X0507878Y0210720D03*
X0458941Y0220720D03*
X0428941Y0220720D03*
X0398941Y0221705D03*
X0413941Y0210720D03*
X0443941Y0210720D03*
X0383941Y0210720D03*
X0567878Y0210720D03*
D21*
X0048744Y0036035D03*
X0048744Y0049815D03*
X0223665Y0061350D03*
X0223665Y0075130D03*
X0223665Y0131350D03*
X0223665Y0145130D03*
X0223665Y0161350D03*
X0223665Y0175130D03*
X0048744Y0205327D03*
X0048744Y0219106D03*
D22*
X0201972Y0211469D02*
X0211972Y0211469D01*
X0221657Y0211469D02*
X0231657Y0211469D01*
X0231657Y0196469D02*
X0221657Y0196469D01*
X0211972Y0196469D02*
X0201972Y0196469D01*
X0041933Y0163673D02*
X0031933Y0163673D01*
X0201697Y0113437D02*
X0211697Y0113437D01*
X0221382Y0113437D02*
X0231382Y0113437D01*
X0231382Y0098437D02*
X0221382Y0098437D01*
X0211697Y0098437D02*
X0201697Y0098437D01*
X0041933Y0103673D02*
X0031933Y0103673D01*
X0201697Y0045406D02*
X0211697Y0045406D01*
X0221382Y0045406D02*
X0231382Y0045406D01*
X0231382Y0030406D02*
X0221382Y0030406D01*
X0211697Y0030406D02*
X0201697Y0030406D01*
D23*
X0343272Y0055366D03*
X0314531Y0093744D03*
X0314531Y0159996D03*
X0344453Y0196012D03*
D24*
X0344453Y0176327D03*
X0314531Y0140311D03*
X0314531Y0113429D03*
X0343272Y0075051D03*
D25*
X0153547Y0036350D03*
X0133547Y0036350D03*
X0093547Y0036350D03*
X0083547Y0216350D03*
X0123547Y0216350D03*
X0163547Y0216350D03*
D26*
X0163547Y0169736D03*
X0123547Y0169736D03*
X0083547Y0169736D03*
X0083547Y0089736D03*
X0113547Y0089736D03*
X0133547Y0089736D03*
D27*
X0111369Y0050996D03*
X0095569Y0050996D03*
D28*
X0036933Y0133673D03*
D29*
X0056618Y0125773D03*
X0056618Y0141573D03*
D30*
X0529059Y0204539D03*
X0532996Y0218319D03*
X0529059Y0222256D03*
X0629453Y0204539D03*
X0595988Y0200602D03*
X0590083Y0180917D03*
X0721972Y0180917D03*
X0721972Y0196665D03*
X0759374Y0202571D03*
X0751500Y0218319D03*
X0720004Y0220287D03*
X0851894Y0196665D03*
X0887327Y0202571D03*
X0948350Y0200602D03*
X0987720Y0202571D03*
X1013705Y0196665D03*
X1017248Y0202177D03*
X1017248Y0214776D03*
X0982209Y0224224D03*
X0949138Y0216744D03*
X1112130Y0202965D03*
X1133390Y0220287D03*
X1111736Y0180917D03*
X1159374Y0173831D03*
X1031028Y0169106D03*
X1021185Y0159264D03*
X0851894Y0180917D03*
X1159374Y0116350D03*
X0122957Y0050996D03*
X0085752Y0049028D03*
D31*
X0237720Y0125799D03*
X0249531Y0125799D03*
X0294413Y0125799D03*
X0304650Y0125799D03*
X0316461Y0125799D03*
X0328272Y0125799D03*
X0340083Y0125799D03*
X0351894Y0125799D03*
X0363705Y0125799D03*
X0375516Y0125799D03*
X0532996Y0134067D03*
X0542445Y0134067D03*
X0542445Y0143516D03*
X0532996Y0143516D03*
X0532996Y0152965D03*
X0542445Y0152965D03*
X0662917Y0152965D03*
X0672366Y0152965D03*
X0672366Y0143516D03*
X0662917Y0143516D03*
X0662917Y0134067D03*
X0672366Y0134067D03*
X0795201Y0134067D03*
X0804650Y0134067D03*
X0804650Y0143516D03*
X0795201Y0143516D03*
X0795201Y0152965D03*
X0804650Y0152965D03*
X0923547Y0152965D03*
X0932996Y0152965D03*
X0932996Y0143516D03*
X0923547Y0143516D03*
X0923547Y0134067D03*
X0932996Y0134067D03*
X1055831Y0134067D03*
X1065280Y0134067D03*
X1065280Y0143516D03*
X1055831Y0143516D03*
X1055831Y0152965D03*
X1065280Y0152965D03*
X0095962Y0176954D03*
M02*
