G75*
%MOIN*%
%OFA0B0*%
%FSLAX25Y25*%
%IPPOS*%
%LPD*%
%AMOC8*
5,1,8,0,0,1.08239X$1,22.5*
%
%ADD10C,0.13398*%
%ADD11OC8,0.06800*%
%ADD12C,0.00500*%
%ADD13C,0.06800*%
%ADD14R,0.07300X0.07300*%
%ADD15C,0.07300*%
%ADD16C,0.07400*%
%ADD17C,0.08200*%
%ADD18C,0.09650*%
%ADD19OC8,0.06000*%
%ADD20C,0.09400*%
%ADD21C,0.22300*%
%ADD22C,0.10643*%
%ADD23C,0.04762*%
%ADD24R,0.04762X0.04762*%
D10*
X0167923Y0019500D03*
X0229923Y0124500D03*
X0357923Y0124500D03*
X0487923Y0124500D03*
X0612923Y0124500D03*
X0744723Y0123800D03*
X0877923Y0124500D03*
X0982923Y0029500D03*
X0982923Y0229500D03*
X0072923Y0229500D03*
D11*
X0427923Y0144500D03*
X0437923Y0144500D03*
X0437923Y0134500D03*
X0427923Y0134500D03*
X0427923Y0124500D03*
X0437923Y0124500D03*
X0437923Y0114500D03*
X0427923Y0114500D03*
X0427923Y0104500D03*
X0437923Y0104500D03*
X0437923Y0094500D03*
X0427923Y0094500D03*
X0427923Y0084500D03*
X0437923Y0084500D03*
X0437923Y0074500D03*
X0427923Y0074500D03*
X0312923Y0072000D03*
X0302923Y0072000D03*
X0302923Y0082000D03*
X0312923Y0082000D03*
X0312923Y0092000D03*
X0302923Y0092000D03*
X0302923Y0102000D03*
X0312923Y0102000D03*
X0312923Y0112000D03*
X0302923Y0112000D03*
X0302923Y0122000D03*
X0312923Y0122000D03*
X0312923Y0132000D03*
X0302923Y0132000D03*
X0302923Y0142000D03*
X0312923Y0142000D03*
X0557923Y0144500D03*
X0567923Y0144500D03*
X0567923Y0134500D03*
X0557923Y0134500D03*
X0557923Y0124500D03*
X0567923Y0124500D03*
X0567923Y0114500D03*
X0557923Y0114500D03*
X0557923Y0104500D03*
X0567923Y0104500D03*
X0567923Y0094500D03*
X0557923Y0094500D03*
X0557923Y0084500D03*
X0567923Y0084500D03*
X0567923Y0074500D03*
X0557923Y0074500D03*
X0688001Y0074833D03*
X0698001Y0074833D03*
X0698001Y0084833D03*
X0688001Y0084833D03*
X0688001Y0094833D03*
X0698001Y0094833D03*
X0698001Y0104833D03*
X0688001Y0104833D03*
X0688001Y0114833D03*
X0698001Y0114833D03*
X0698001Y0124833D03*
X0688001Y0124833D03*
X0688001Y0134833D03*
X0698001Y0134833D03*
X0698001Y0144833D03*
X0688001Y0144833D03*
X0818001Y0144532D03*
X0828001Y0144532D03*
X0828001Y0134532D03*
X0818001Y0134532D03*
X0818001Y0124532D03*
X0828001Y0124532D03*
X0828001Y0114532D03*
X0818001Y0114532D03*
X0818001Y0104532D03*
X0828001Y0104532D03*
X0828001Y0094532D03*
X0818001Y0094532D03*
X0818001Y0084532D03*
X0828001Y0084532D03*
X0828001Y0074532D03*
X0818001Y0074532D03*
X0948001Y0074231D03*
X0958001Y0074231D03*
X0958001Y0084231D03*
X0948001Y0084231D03*
X0948001Y0094231D03*
X0958001Y0094231D03*
X0958001Y0104231D03*
X0948001Y0104231D03*
X0948001Y0114231D03*
X0958001Y0114231D03*
X0958001Y0124231D03*
X0948001Y0124231D03*
X0948001Y0134231D03*
X0958001Y0134231D03*
X0958001Y0144231D03*
X0948001Y0144231D03*
D12*
X0949661Y0162352D02*
X0949278Y0162475D01*
X0948932Y0162681D01*
X0948641Y0162958D01*
X0948419Y0163293D01*
X0948276Y0163669D01*
X0948221Y0164067D01*
X0948272Y0164460D01*
X0948410Y0164832D01*
X0948626Y0165164D01*
X0948911Y0165439D01*
X0949250Y0165645D01*
X0949626Y0165769D01*
X0950021Y0165807D01*
X0950404Y0165760D01*
X0950768Y0165630D01*
X0951093Y0165421D01*
X0951364Y0165146D01*
X0951567Y0164817D01*
X0951691Y0164451D01*
X0951731Y0164067D01*
X0951697Y0163686D01*
X0951579Y0163321D01*
X0951383Y0162992D01*
X0951119Y0162715D01*
X0950799Y0162504D01*
X0950441Y0162369D01*
X0950061Y0162317D01*
X0949661Y0162352D01*
X0949114Y0162573D02*
X0950904Y0162573D01*
X0951430Y0163071D02*
X0948566Y0163071D01*
X0948314Y0163570D02*
X0951660Y0163570D01*
X0951731Y0164068D02*
X0948222Y0164068D01*
X0948312Y0164567D02*
X0951652Y0164567D01*
X0951414Y0165065D02*
X0948562Y0165065D01*
X0949117Y0165564D02*
X0950871Y0165564D01*
X0961305Y0164488D02*
X0961423Y0164853D01*
X0961619Y0165182D01*
X0961883Y0165459D01*
X0962203Y0165670D01*
X0962561Y0165805D01*
X0962941Y0165857D01*
X0963341Y0165822D01*
X0963724Y0165699D01*
X0964070Y0165493D01*
X0964361Y0165216D01*
X0964583Y0164881D01*
X0964725Y0164505D01*
X0964780Y0164107D01*
X0964729Y0163714D01*
X0964592Y0163342D01*
X0964376Y0163010D01*
X0964091Y0162735D01*
X0963752Y0162529D01*
X0963375Y0162405D01*
X0962981Y0162367D01*
X0962597Y0162414D01*
X0962234Y0162544D01*
X0961908Y0162753D01*
X0961638Y0163028D01*
X0961435Y0163357D01*
X0961311Y0163723D01*
X0961271Y0164107D01*
X0961305Y0164488D01*
X0961330Y0164567D02*
X0964702Y0164567D01*
X0964775Y0164068D02*
X0961275Y0164068D01*
X0961363Y0163570D02*
X0964676Y0163570D01*
X0964416Y0163071D02*
X0961611Y0163071D01*
X0962189Y0162573D02*
X0963823Y0162573D01*
X0964461Y0165065D02*
X0961549Y0165065D01*
X0962042Y0165564D02*
X0963951Y0165564D01*
X0963375Y0173425D02*
X0962981Y0173387D01*
X0962597Y0173434D01*
X0962234Y0173564D01*
X0961908Y0173773D01*
X0961638Y0174048D01*
X0961435Y0174377D01*
X0961311Y0174743D01*
X0961271Y0175127D01*
X0961305Y0175508D01*
X0961423Y0175873D01*
X0961619Y0176202D01*
X0961883Y0176479D01*
X0962203Y0176690D01*
X0962561Y0176825D01*
X0962941Y0176877D01*
X0963341Y0176842D01*
X0963724Y0176719D01*
X0964070Y0176513D01*
X0964361Y0176236D01*
X0964583Y0175901D01*
X0964725Y0175525D01*
X0964780Y0175127D01*
X0964729Y0174734D01*
X0964592Y0174362D01*
X0964376Y0174030D01*
X0964091Y0173755D01*
X0963752Y0173549D01*
X0963375Y0173425D01*
X0963723Y0173540D02*
X0962302Y0173540D01*
X0961647Y0174039D02*
X0964381Y0174039D01*
X0964657Y0174537D02*
X0961381Y0174537D01*
X0961280Y0175036D02*
X0964769Y0175036D01*
X0964722Y0175534D02*
X0961313Y0175534D01*
X0961518Y0176033D02*
X0964496Y0176033D01*
X0964040Y0176531D02*
X0961962Y0176531D01*
X0951691Y0175471D02*
X0951731Y0175087D01*
X0951697Y0174706D01*
X0951579Y0174341D01*
X0951383Y0174012D01*
X0951119Y0173735D01*
X0950799Y0173524D01*
X0950441Y0173389D01*
X0950061Y0173337D01*
X0949661Y0173372D01*
X0949278Y0173495D01*
X0948932Y0173701D01*
X0948641Y0173978D01*
X0948419Y0174313D01*
X0948276Y0174689D01*
X0948221Y0175087D01*
X0948272Y0175480D01*
X0948410Y0175852D01*
X0948626Y0176184D01*
X0948911Y0176459D01*
X0949250Y0176665D01*
X0949626Y0176789D01*
X0950021Y0176827D01*
X0950404Y0176780D01*
X0950768Y0176650D01*
X0951093Y0176441D01*
X0951364Y0176166D01*
X0951567Y0175837D01*
X0951691Y0175471D01*
X0951670Y0175534D02*
X0948292Y0175534D01*
X0948229Y0175036D02*
X0951727Y0175036D01*
X0951643Y0174537D02*
X0948334Y0174537D01*
X0948601Y0174039D02*
X0951399Y0174039D01*
X0950824Y0173540D02*
X0949203Y0173540D01*
X0948527Y0176033D02*
X0951446Y0176033D01*
X0950953Y0176531D02*
X0949029Y0176531D01*
X0834780Y0174428D02*
X0834729Y0174035D01*
X0834592Y0173663D01*
X0834376Y0173331D01*
X0834091Y0173056D01*
X0833752Y0172850D01*
X0833375Y0172726D01*
X0832981Y0172688D01*
X0832597Y0172735D01*
X0832234Y0172865D01*
X0831908Y0173074D01*
X0831638Y0173349D01*
X0831435Y0173678D01*
X0831311Y0174044D01*
X0831271Y0174428D01*
X0831305Y0174809D01*
X0831423Y0175174D01*
X0831619Y0175503D01*
X0831883Y0175780D01*
X0832203Y0175991D01*
X0832561Y0176126D01*
X0832941Y0176178D01*
X0833341Y0176143D01*
X0833724Y0176020D01*
X0834070Y0175814D01*
X0834361Y0175537D01*
X0834583Y0175202D01*
X0834725Y0174826D01*
X0834780Y0174428D01*
X0834765Y0174537D02*
X0831280Y0174537D01*
X0831312Y0174039D02*
X0834730Y0174039D01*
X0834512Y0173540D02*
X0831520Y0173540D01*
X0831959Y0173041D02*
X0834067Y0173041D01*
X0834646Y0175036D02*
X0831378Y0175036D01*
X0831648Y0175534D02*
X0834363Y0175534D01*
X0833684Y0176033D02*
X0832312Y0176033D01*
X0819691Y0174772D02*
X0819731Y0174388D01*
X0819697Y0174007D01*
X0819579Y0173642D01*
X0819383Y0173313D01*
X0819119Y0173036D01*
X0818799Y0172825D01*
X0818441Y0172690D01*
X0818061Y0172638D01*
X0817661Y0172673D01*
X0817278Y0172796D01*
X0816932Y0173002D01*
X0816641Y0173279D01*
X0816419Y0173614D01*
X0816276Y0173990D01*
X0816221Y0174388D01*
X0816272Y0174781D01*
X0816410Y0175153D01*
X0816626Y0175485D01*
X0816911Y0175760D01*
X0817250Y0175966D01*
X0817626Y0176090D01*
X0818021Y0176128D01*
X0818404Y0176081D01*
X0818768Y0175951D01*
X0819093Y0175742D01*
X0819364Y0175467D01*
X0819567Y0175138D01*
X0819691Y0174772D01*
X0819716Y0174537D02*
X0816241Y0174537D01*
X0816270Y0174039D02*
X0819700Y0174039D01*
X0819518Y0173540D02*
X0816468Y0173540D01*
X0816891Y0173041D02*
X0819124Y0173041D01*
X0819602Y0175036D02*
X0816366Y0175036D01*
X0816677Y0175534D02*
X0819298Y0175534D01*
X0818540Y0176033D02*
X0817452Y0176033D01*
X0818021Y0165108D02*
X0818404Y0165061D01*
X0818768Y0164931D01*
X0819093Y0164722D01*
X0819364Y0164447D01*
X0819567Y0164118D01*
X0819691Y0163752D01*
X0819731Y0163368D01*
X0819697Y0162987D01*
X0819579Y0162622D01*
X0819383Y0162293D01*
X0819119Y0162016D01*
X0818799Y0161805D01*
X0818441Y0161670D01*
X0818061Y0161618D01*
X0817661Y0161653D01*
X0817278Y0161776D01*
X0816932Y0161982D01*
X0816641Y0162259D01*
X0816419Y0162594D01*
X0816276Y0162970D01*
X0816221Y0163368D01*
X0816272Y0163761D01*
X0816410Y0164133D01*
X0816626Y0164465D01*
X0816911Y0164740D01*
X0817250Y0164946D01*
X0817626Y0165070D01*
X0818021Y0165108D01*
X0818372Y0165065D02*
X0817612Y0165065D01*
X0816732Y0164567D02*
X0819246Y0164567D01*
X0819584Y0164068D02*
X0816386Y0164068D01*
X0816248Y0163570D02*
X0819710Y0163570D01*
X0819705Y0163071D02*
X0816262Y0163071D01*
X0816433Y0162573D02*
X0819550Y0162573D01*
X0819174Y0162074D02*
X0816835Y0162074D01*
X0831271Y0163408D02*
X0831311Y0163024D01*
X0831435Y0162658D01*
X0831638Y0162329D01*
X0831908Y0162054D01*
X0832234Y0161845D01*
X0832597Y0161715D01*
X0832981Y0161668D01*
X0833375Y0161706D01*
X0833752Y0161830D01*
X0834091Y0162036D01*
X0834376Y0162311D01*
X0834592Y0162643D01*
X0834729Y0163015D01*
X0834780Y0163408D01*
X0834725Y0163806D01*
X0834583Y0164182D01*
X0834361Y0164517D01*
X0834070Y0164794D01*
X0833724Y0165000D01*
X0833341Y0165123D01*
X0832941Y0165158D01*
X0832561Y0165106D01*
X0832203Y0164971D01*
X0831883Y0164760D01*
X0831619Y0164483D01*
X0831423Y0164154D01*
X0831305Y0163789D01*
X0831271Y0163408D01*
X0831285Y0163570D02*
X0834758Y0163570D01*
X0834737Y0163071D02*
X0831306Y0163071D01*
X0831487Y0162573D02*
X0834546Y0162573D01*
X0834131Y0162074D02*
X0831888Y0162074D01*
X0831395Y0164068D02*
X0834626Y0164068D01*
X0834309Y0164567D02*
X0831699Y0164567D01*
X0832453Y0165065D02*
X0833520Y0165065D01*
X0704780Y0163709D02*
X0704729Y0163316D01*
X0704592Y0162944D01*
X0704376Y0162612D01*
X0704091Y0162337D01*
X0703752Y0162131D01*
X0703375Y0162007D01*
X0702981Y0161969D01*
X0702597Y0162016D01*
X0702234Y0162146D01*
X0701908Y0162355D01*
X0701638Y0162630D01*
X0701435Y0162959D01*
X0701311Y0163325D01*
X0701271Y0163709D01*
X0701305Y0164090D01*
X0701423Y0164455D01*
X0701619Y0164784D01*
X0701883Y0165061D01*
X0702203Y0165272D01*
X0702561Y0165407D01*
X0702941Y0165459D01*
X0703341Y0165424D01*
X0703724Y0165301D01*
X0704070Y0165095D01*
X0704361Y0164818D01*
X0704583Y0164483D01*
X0704725Y0164107D01*
X0704780Y0163709D01*
X0704762Y0163570D02*
X0701285Y0163570D01*
X0701303Y0164068D02*
X0704731Y0164068D01*
X0704528Y0164567D02*
X0701489Y0164567D01*
X0701890Y0165065D02*
X0704101Y0165065D01*
X0704639Y0163071D02*
X0701397Y0163071D01*
X0701694Y0162573D02*
X0704335Y0162573D01*
X0703579Y0162074D02*
X0702434Y0162074D01*
X0689697Y0164288D02*
X0689579Y0163923D01*
X0689383Y0163594D01*
X0689119Y0163317D01*
X0688799Y0163106D01*
X0688441Y0162971D01*
X0688061Y0162919D01*
X0687661Y0162954D01*
X0687278Y0163077D01*
X0686932Y0163283D01*
X0686641Y0163560D01*
X0686419Y0163895D01*
X0686276Y0164271D01*
X0686221Y0164669D01*
X0686272Y0165062D01*
X0686410Y0165434D01*
X0686626Y0165766D01*
X0686911Y0166041D01*
X0687250Y0166247D01*
X0687626Y0166371D01*
X0688021Y0166409D01*
X0688404Y0166362D01*
X0688768Y0166232D01*
X0689093Y0166023D01*
X0689364Y0165748D01*
X0689567Y0165419D01*
X0689691Y0165053D01*
X0689731Y0164669D01*
X0689697Y0164288D01*
X0689626Y0164068D02*
X0686353Y0164068D01*
X0686236Y0164567D02*
X0689722Y0164567D01*
X0689687Y0165065D02*
X0686274Y0165065D01*
X0686494Y0165564D02*
X0689478Y0165564D01*
X0689032Y0166062D02*
X0686946Y0166062D01*
X0686634Y0163570D02*
X0689360Y0163570D01*
X0688708Y0163071D02*
X0687297Y0163071D01*
X0701638Y0173650D02*
X0701435Y0173979D01*
X0701311Y0174345D01*
X0701271Y0174729D01*
X0701305Y0175110D01*
X0701423Y0175475D01*
X0701619Y0175804D01*
X0701883Y0176081D01*
X0702203Y0176292D01*
X0702561Y0176427D01*
X0702941Y0176479D01*
X0703341Y0176444D01*
X0703724Y0176321D01*
X0704070Y0176115D01*
X0704361Y0175838D01*
X0704583Y0175503D01*
X0704725Y0175127D01*
X0704780Y0174729D01*
X0704729Y0174336D01*
X0704592Y0173964D01*
X0704376Y0173632D01*
X0704091Y0173357D01*
X0703752Y0173151D01*
X0703375Y0173027D01*
X0702981Y0172989D01*
X0702597Y0173036D01*
X0702234Y0173166D01*
X0701908Y0173375D01*
X0701638Y0173650D01*
X0701746Y0173540D02*
X0704280Y0173540D01*
X0704620Y0174039D02*
X0701415Y0174039D01*
X0701291Y0174537D02*
X0704756Y0174537D01*
X0704738Y0175036D02*
X0701298Y0175036D01*
X0701458Y0175534D02*
X0704563Y0175534D01*
X0704157Y0176033D02*
X0701837Y0176033D01*
X0702581Y0173041D02*
X0703420Y0173041D01*
X0689697Y0175308D02*
X0689579Y0174943D01*
X0689383Y0174614D01*
X0689119Y0174337D01*
X0688799Y0174126D01*
X0688441Y0173991D01*
X0688061Y0173939D01*
X0687661Y0173974D01*
X0687278Y0174097D01*
X0686932Y0174303D01*
X0686641Y0174580D01*
X0686419Y0174915D01*
X0686276Y0175291D01*
X0686221Y0175689D01*
X0686272Y0176082D01*
X0686410Y0176454D01*
X0686626Y0176786D01*
X0686911Y0177061D01*
X0687250Y0177267D01*
X0687626Y0177391D01*
X0688021Y0177429D01*
X0688404Y0177382D01*
X0688768Y0177252D01*
X0689093Y0177043D01*
X0689364Y0176768D01*
X0689567Y0176439D01*
X0689691Y0176073D01*
X0689731Y0175689D01*
X0689697Y0175308D01*
X0689717Y0175534D02*
X0686243Y0175534D01*
X0686266Y0176033D02*
X0689696Y0176033D01*
X0689510Y0176531D02*
X0686460Y0176531D01*
X0686878Y0177030D02*
X0689107Y0177030D01*
X0689609Y0175036D02*
X0686373Y0175036D01*
X0686686Y0174537D02*
X0689309Y0174537D01*
X0688567Y0174039D02*
X0687461Y0174039D01*
X0574702Y0175030D02*
X0574651Y0174637D01*
X0574514Y0174265D01*
X0574298Y0173933D01*
X0574013Y0173658D01*
X0573674Y0173452D01*
X0573297Y0173328D01*
X0572903Y0173290D01*
X0572519Y0173337D01*
X0572156Y0173467D01*
X0571830Y0173676D01*
X0571560Y0173951D01*
X0571357Y0174280D01*
X0571233Y0174646D01*
X0571193Y0175030D01*
X0571227Y0175411D01*
X0571345Y0175776D01*
X0571541Y0176105D01*
X0571805Y0176382D01*
X0572125Y0176593D01*
X0572483Y0176728D01*
X0572863Y0176780D01*
X0573263Y0176745D01*
X0573646Y0176622D01*
X0573992Y0176416D01*
X0574283Y0176139D01*
X0574505Y0175804D01*
X0574647Y0175428D01*
X0574702Y0175030D01*
X0574702Y0175036D02*
X0571193Y0175036D01*
X0571266Y0175534D02*
X0574607Y0175534D01*
X0574354Y0176033D02*
X0571498Y0176033D01*
X0572031Y0176531D02*
X0573798Y0176531D01*
X0574615Y0174537D02*
X0571270Y0174537D01*
X0571506Y0174039D02*
X0574366Y0174039D01*
X0573818Y0173540D02*
X0572042Y0173540D01*
X0559619Y0174609D02*
X0559501Y0174244D01*
X0559305Y0173915D01*
X0559041Y0173638D01*
X0558721Y0173427D01*
X0558363Y0173292D01*
X0557983Y0173240D01*
X0557583Y0173275D01*
X0557200Y0173398D01*
X0556854Y0173604D01*
X0556563Y0173881D01*
X0556341Y0174216D01*
X0556198Y0174592D01*
X0556143Y0174990D01*
X0556194Y0175383D01*
X0556332Y0175755D01*
X0556548Y0176087D01*
X0556833Y0176362D01*
X0557172Y0176568D01*
X0557548Y0176692D01*
X0557943Y0176730D01*
X0558326Y0176683D01*
X0558690Y0176553D01*
X0559015Y0176344D01*
X0559286Y0176069D01*
X0559489Y0175740D01*
X0559613Y0175374D01*
X0559653Y0174990D01*
X0559619Y0174609D01*
X0559596Y0174537D02*
X0556219Y0174537D01*
X0556149Y0175036D02*
X0559649Y0175036D01*
X0559559Y0175534D02*
X0556250Y0175534D01*
X0556513Y0176033D02*
X0559309Y0176033D01*
X0558724Y0176531D02*
X0557112Y0176531D01*
X0556458Y0174039D02*
X0559379Y0174039D01*
X0558892Y0173540D02*
X0556962Y0173540D01*
X0557548Y0165672D02*
X0557943Y0165710D01*
X0558326Y0165663D01*
X0558690Y0165533D01*
X0559015Y0165324D01*
X0559286Y0165049D01*
X0559489Y0164720D01*
X0559613Y0164354D01*
X0559653Y0163970D01*
X0559619Y0163589D01*
X0559501Y0163224D01*
X0559305Y0162895D01*
X0559041Y0162618D01*
X0558721Y0162407D01*
X0558363Y0162272D01*
X0557983Y0162220D01*
X0557583Y0162255D01*
X0557200Y0162378D01*
X0556854Y0162584D01*
X0556563Y0162861D01*
X0556341Y0163196D01*
X0556198Y0163572D01*
X0556143Y0163970D01*
X0556194Y0164363D01*
X0556332Y0164735D01*
X0556548Y0165067D01*
X0556833Y0165342D01*
X0557172Y0165548D01*
X0557548Y0165672D01*
X0557221Y0165564D02*
X0558603Y0165564D01*
X0559270Y0165065D02*
X0556547Y0165065D01*
X0556270Y0164567D02*
X0559541Y0164567D01*
X0559643Y0164068D02*
X0556156Y0164068D01*
X0556199Y0163570D02*
X0559613Y0163570D01*
X0559410Y0163071D02*
X0556423Y0163071D01*
X0556873Y0162573D02*
X0558972Y0162573D01*
X0571193Y0164010D02*
X0571233Y0163626D01*
X0571357Y0163260D01*
X0571560Y0162931D01*
X0571830Y0162656D01*
X0572156Y0162447D01*
X0572519Y0162317D01*
X0572903Y0162270D01*
X0573297Y0162308D01*
X0573674Y0162432D01*
X0574013Y0162638D01*
X0574298Y0162913D01*
X0574514Y0163245D01*
X0574651Y0163617D01*
X0574702Y0164010D01*
X0574647Y0164408D01*
X0574505Y0164784D01*
X0574283Y0165119D01*
X0573992Y0165396D01*
X0573646Y0165602D01*
X0573263Y0165725D01*
X0572863Y0165760D01*
X0572483Y0165708D01*
X0572125Y0165573D01*
X0571805Y0165362D01*
X0571541Y0165085D01*
X0571345Y0164756D01*
X0571227Y0164391D01*
X0571193Y0164010D01*
X0571198Y0164068D02*
X0574694Y0164068D01*
X0574634Y0163570D02*
X0571252Y0163570D01*
X0571473Y0163071D02*
X0574401Y0163071D01*
X0573906Y0162573D02*
X0571960Y0162573D01*
X0571283Y0164567D02*
X0574587Y0164567D01*
X0574319Y0165065D02*
X0571529Y0165065D01*
X0572110Y0165564D02*
X0573709Y0165564D01*
X0444702Y0164010D02*
X0444651Y0163617D01*
X0444514Y0163245D01*
X0444298Y0162913D01*
X0444013Y0162638D01*
X0443674Y0162432D01*
X0443297Y0162308D01*
X0442903Y0162270D01*
X0442519Y0162317D01*
X0442156Y0162447D01*
X0441830Y0162656D01*
X0441560Y0162931D01*
X0441357Y0163260D01*
X0441233Y0163626D01*
X0441193Y0164010D01*
X0441227Y0164391D01*
X0441345Y0164756D01*
X0441541Y0165085D01*
X0441805Y0165362D01*
X0442125Y0165573D01*
X0442483Y0165708D01*
X0442863Y0165760D01*
X0443263Y0165725D01*
X0443646Y0165602D01*
X0443992Y0165396D01*
X0444283Y0165119D01*
X0444505Y0164784D01*
X0444647Y0164408D01*
X0444702Y0164010D01*
X0444694Y0164068D02*
X0441198Y0164068D01*
X0441252Y0163570D02*
X0444634Y0163570D01*
X0444401Y0163071D02*
X0441473Y0163071D01*
X0441960Y0162573D02*
X0443906Y0162573D01*
X0444587Y0164567D02*
X0441283Y0164567D01*
X0441529Y0165065D02*
X0444319Y0165065D01*
X0443709Y0165564D02*
X0442110Y0165564D01*
X0429613Y0164354D02*
X0429653Y0163970D01*
X0429619Y0163589D01*
X0429501Y0163224D01*
X0429305Y0162895D01*
X0429041Y0162618D01*
X0428721Y0162407D01*
X0428363Y0162272D01*
X0427983Y0162220D01*
X0427583Y0162255D01*
X0427200Y0162378D01*
X0426854Y0162584D01*
X0426563Y0162861D01*
X0426341Y0163196D01*
X0426198Y0163572D01*
X0426143Y0163970D01*
X0426194Y0164363D01*
X0426332Y0164735D01*
X0426548Y0165067D01*
X0426833Y0165342D01*
X0427172Y0165548D01*
X0427548Y0165672D01*
X0427943Y0165710D01*
X0428326Y0165663D01*
X0428690Y0165533D01*
X0429015Y0165324D01*
X0429286Y0165049D01*
X0429489Y0164720D01*
X0429613Y0164354D01*
X0429541Y0164567D02*
X0426270Y0164567D01*
X0426156Y0164068D02*
X0429643Y0164068D01*
X0429613Y0163570D02*
X0426199Y0163570D01*
X0426423Y0163071D02*
X0429410Y0163071D01*
X0428972Y0162573D02*
X0426873Y0162573D01*
X0426547Y0165065D02*
X0429270Y0165065D01*
X0428603Y0165564D02*
X0427221Y0165564D01*
X0427983Y0173240D02*
X0427583Y0173275D01*
X0427200Y0173398D01*
X0426854Y0173604D01*
X0426563Y0173881D01*
X0426341Y0174216D01*
X0426198Y0174592D01*
X0426143Y0174990D01*
X0426194Y0175383D01*
X0426332Y0175755D01*
X0426548Y0176087D01*
X0426833Y0176362D01*
X0427172Y0176568D01*
X0427548Y0176692D01*
X0427943Y0176730D01*
X0428326Y0176683D01*
X0428690Y0176553D01*
X0429015Y0176344D01*
X0429286Y0176069D01*
X0429489Y0175740D01*
X0429613Y0175374D01*
X0429653Y0174990D01*
X0429619Y0174609D01*
X0429501Y0174244D01*
X0429305Y0173915D01*
X0429041Y0173638D01*
X0428721Y0173427D01*
X0428363Y0173292D01*
X0427983Y0173240D01*
X0428892Y0173540D02*
X0426962Y0173540D01*
X0426458Y0174039D02*
X0429379Y0174039D01*
X0429596Y0174537D02*
X0426219Y0174537D01*
X0426149Y0175036D02*
X0429649Y0175036D01*
X0429559Y0175534D02*
X0426250Y0175534D01*
X0426513Y0176033D02*
X0429309Y0176033D01*
X0428724Y0176531D02*
X0427112Y0176531D01*
X0441227Y0175411D02*
X0441345Y0175776D01*
X0441541Y0176105D01*
X0441805Y0176382D01*
X0442125Y0176593D01*
X0442483Y0176728D01*
X0442863Y0176780D01*
X0443263Y0176745D01*
X0443646Y0176622D01*
X0443992Y0176416D01*
X0444283Y0176139D01*
X0444505Y0175804D01*
X0444647Y0175428D01*
X0444702Y0175030D01*
X0444651Y0174637D01*
X0444514Y0174265D01*
X0444298Y0173933D01*
X0444013Y0173658D01*
X0443674Y0173452D01*
X0443297Y0173328D01*
X0442903Y0173290D01*
X0442519Y0173337D01*
X0442156Y0173467D01*
X0441830Y0173676D01*
X0441560Y0173951D01*
X0441357Y0174280D01*
X0441233Y0174646D01*
X0441193Y0175030D01*
X0441227Y0175411D01*
X0441266Y0175534D02*
X0444607Y0175534D01*
X0444702Y0175036D02*
X0441193Y0175036D01*
X0441270Y0174537D02*
X0444615Y0174537D01*
X0444366Y0174039D02*
X0441506Y0174039D01*
X0442042Y0173540D02*
X0443818Y0173540D01*
X0444354Y0176033D02*
X0441498Y0176033D01*
X0442031Y0176531D02*
X0443798Y0176531D01*
X0319702Y0172530D02*
X0319651Y0172137D01*
X0319514Y0171765D01*
X0319298Y0171433D01*
X0319013Y0171158D01*
X0318674Y0170952D01*
X0318297Y0170828D01*
X0317903Y0170790D01*
X0317519Y0170837D01*
X0317156Y0170967D01*
X0316830Y0171176D01*
X0316560Y0171451D01*
X0316357Y0171780D01*
X0316233Y0172146D01*
X0316193Y0172530D01*
X0316227Y0172911D01*
X0316345Y0173276D01*
X0316541Y0173605D01*
X0316805Y0173882D01*
X0317125Y0174093D01*
X0317483Y0174228D01*
X0317863Y0174280D01*
X0318263Y0174245D01*
X0318646Y0174122D01*
X0318992Y0173916D01*
X0319283Y0173639D01*
X0319505Y0173304D01*
X0319647Y0172928D01*
X0319702Y0172530D01*
X0319701Y0172543D02*
X0316194Y0172543D01*
X0316267Y0172044D02*
X0319617Y0172044D01*
X0319371Y0171546D02*
X0316501Y0171546D01*
X0317031Y0171047D02*
X0318831Y0171047D01*
X0319605Y0173041D02*
X0316269Y0173041D01*
X0316502Y0173540D02*
X0319349Y0173540D01*
X0318786Y0174039D02*
X0317042Y0174039D01*
X0304613Y0172874D02*
X0304653Y0172490D01*
X0304619Y0172109D01*
X0304501Y0171744D01*
X0304305Y0171415D01*
X0304041Y0171138D01*
X0303721Y0170927D01*
X0303363Y0170792D01*
X0302983Y0170740D01*
X0302583Y0170775D01*
X0302200Y0170898D01*
X0301854Y0171104D01*
X0301563Y0171381D01*
X0301341Y0171716D01*
X0301198Y0172092D01*
X0301143Y0172490D01*
X0301194Y0172883D01*
X0301332Y0173255D01*
X0301548Y0173587D01*
X0301833Y0173862D01*
X0302172Y0174068D01*
X0302548Y0174192D01*
X0302943Y0174230D01*
X0303326Y0174183D01*
X0303690Y0174053D01*
X0304015Y0173844D01*
X0304286Y0173569D01*
X0304489Y0173240D01*
X0304613Y0172874D01*
X0304556Y0173041D02*
X0301253Y0173041D01*
X0301150Y0172543D02*
X0304648Y0172543D01*
X0304599Y0172044D02*
X0301216Y0172044D01*
X0301453Y0171546D02*
X0304383Y0171546D01*
X0303904Y0171047D02*
X0301949Y0171047D01*
X0301517Y0173540D02*
X0304304Y0173540D01*
X0303712Y0174039D02*
X0302124Y0174039D01*
X0302943Y0163210D02*
X0303326Y0163163D01*
X0303690Y0163033D01*
X0304015Y0162824D01*
X0304286Y0162549D01*
X0304489Y0162220D01*
X0304613Y0161854D01*
X0304653Y0161470D01*
X0304619Y0161089D01*
X0304501Y0160724D01*
X0304305Y0160395D01*
X0304041Y0160118D01*
X0303721Y0159907D01*
X0303363Y0159772D01*
X0302983Y0159720D01*
X0302583Y0159755D01*
X0302200Y0159878D01*
X0301854Y0160084D01*
X0301563Y0160361D01*
X0301341Y0160696D01*
X0301198Y0161072D01*
X0301143Y0161470D01*
X0301194Y0161863D01*
X0301332Y0162235D01*
X0301548Y0162567D01*
X0301833Y0162842D01*
X0302172Y0163048D01*
X0302548Y0163172D01*
X0302943Y0163210D01*
X0303583Y0163071D02*
X0302244Y0163071D01*
X0301554Y0162573D02*
X0304263Y0162573D01*
X0304538Y0162074D02*
X0301272Y0162074D01*
X0301157Y0161576D02*
X0304642Y0161576D01*
X0304616Y0161077D02*
X0301198Y0161077D01*
X0301418Y0160579D02*
X0304415Y0160579D01*
X0303984Y0160080D02*
X0301860Y0160080D01*
X0316193Y0161510D02*
X0316233Y0161126D01*
X0316357Y0160760D01*
X0316560Y0160431D01*
X0316830Y0160156D01*
X0317156Y0159947D01*
X0317519Y0159817D01*
X0317903Y0159770D01*
X0318297Y0159808D01*
X0318674Y0159932D01*
X0319013Y0160138D01*
X0319298Y0160413D01*
X0319514Y0160745D01*
X0319651Y0161117D01*
X0319702Y0161510D01*
X0319647Y0161908D01*
X0319505Y0162284D01*
X0319283Y0162619D01*
X0318992Y0162896D01*
X0318646Y0163102D01*
X0318263Y0163225D01*
X0317863Y0163260D01*
X0317483Y0163208D01*
X0317125Y0163073D01*
X0316805Y0162862D01*
X0316541Y0162585D01*
X0316345Y0162256D01*
X0316227Y0161891D01*
X0316193Y0161510D01*
X0316198Y0161576D02*
X0319693Y0161576D01*
X0319637Y0161077D02*
X0316249Y0161077D01*
X0316469Y0160579D02*
X0319406Y0160579D01*
X0318918Y0160080D02*
X0316948Y0160080D01*
X0316286Y0162074D02*
X0319585Y0162074D01*
X0319314Y0162573D02*
X0316534Y0162573D01*
X0317122Y0163071D02*
X0318697Y0163071D01*
X0313453Y0056230D02*
X0313069Y0056190D01*
X0312703Y0056066D01*
X0312374Y0055863D01*
X0312099Y0055592D01*
X0311890Y0055267D01*
X0311760Y0054904D01*
X0311713Y0054520D01*
X0311751Y0054126D01*
X0311875Y0053749D01*
X0312081Y0053410D01*
X0312356Y0053125D01*
X0312688Y0052909D01*
X0313060Y0052772D01*
X0313453Y0052720D01*
X0313851Y0052775D01*
X0314227Y0052918D01*
X0314562Y0053140D01*
X0314839Y0053431D01*
X0315045Y0053777D01*
X0315168Y0054160D01*
X0315203Y0054560D01*
X0315151Y0054940D01*
X0315016Y0055298D01*
X0314805Y0055618D01*
X0314528Y0055882D01*
X0314199Y0056078D01*
X0313834Y0056196D01*
X0313453Y0056230D01*
X0312420Y0055891D02*
X0314513Y0055891D01*
X0314954Y0055393D02*
X0311971Y0055393D01*
X0311758Y0054894D02*
X0315157Y0054894D01*
X0315188Y0054396D02*
X0311725Y0054396D01*
X0311826Y0053897D02*
X0315083Y0053897D01*
X0314808Y0053399D02*
X0312092Y0053399D01*
X0312711Y0052900D02*
X0314181Y0052900D01*
X0304148Y0054160D02*
X0304024Y0053777D01*
X0303819Y0053431D01*
X0303542Y0053140D01*
X0303207Y0052918D01*
X0302831Y0052775D01*
X0302433Y0052720D01*
X0302040Y0052772D01*
X0301668Y0052909D01*
X0301336Y0053125D01*
X0301060Y0053410D01*
X0300855Y0053749D01*
X0300731Y0054126D01*
X0300693Y0054520D01*
X0300739Y0054904D01*
X0300870Y0055267D01*
X0301078Y0055592D01*
X0301354Y0055863D01*
X0301683Y0056066D01*
X0302049Y0056190D01*
X0302433Y0056230D01*
X0302814Y0056196D01*
X0303179Y0056078D01*
X0303508Y0055882D01*
X0303785Y0055618D01*
X0303996Y0055298D01*
X0304131Y0054940D01*
X0304183Y0054560D01*
X0304148Y0054160D01*
X0304168Y0054396D02*
X0300705Y0054396D01*
X0300738Y0054894D02*
X0304137Y0054894D01*
X0303934Y0055393D02*
X0300951Y0055393D01*
X0301400Y0055891D02*
X0303492Y0055891D01*
X0304063Y0053897D02*
X0300806Y0053897D01*
X0301071Y0053399D02*
X0303788Y0053399D01*
X0303161Y0052900D02*
X0301691Y0052900D01*
X0425693Y0054520D02*
X0425739Y0054904D01*
X0425870Y0055267D01*
X0426078Y0055592D01*
X0426354Y0055863D01*
X0426683Y0056066D01*
X0427049Y0056190D01*
X0427433Y0056230D01*
X0427814Y0056196D01*
X0428179Y0056078D01*
X0428508Y0055882D01*
X0428785Y0055618D01*
X0428996Y0055298D01*
X0429131Y0054940D01*
X0429183Y0054560D01*
X0429148Y0054160D01*
X0429024Y0053777D01*
X0428819Y0053431D01*
X0428542Y0053140D01*
X0428207Y0052918D01*
X0427831Y0052775D01*
X0427433Y0052720D01*
X0427040Y0052772D01*
X0426668Y0052909D01*
X0426336Y0053125D01*
X0426060Y0053410D01*
X0425855Y0053749D01*
X0425731Y0054126D01*
X0425693Y0054520D01*
X0425705Y0054396D02*
X0429168Y0054396D01*
X0429137Y0054894D02*
X0425738Y0054894D01*
X0425951Y0055393D02*
X0428934Y0055393D01*
X0428492Y0055891D02*
X0426400Y0055891D01*
X0425806Y0053897D02*
X0429063Y0053897D01*
X0428788Y0053399D02*
X0426071Y0053399D01*
X0426691Y0052900D02*
X0428161Y0052900D01*
X0436751Y0054126D02*
X0436713Y0054520D01*
X0436760Y0054904D01*
X0436890Y0055267D01*
X0437099Y0055592D01*
X0437374Y0055863D01*
X0437703Y0056066D01*
X0438069Y0056190D01*
X0438453Y0056230D01*
X0438834Y0056196D01*
X0439199Y0056078D01*
X0439528Y0055882D01*
X0439805Y0055618D01*
X0440016Y0055298D01*
X0440151Y0054940D01*
X0440203Y0054560D01*
X0440168Y0054160D01*
X0440045Y0053777D01*
X0439839Y0053431D01*
X0439562Y0053140D01*
X0439227Y0052918D01*
X0438851Y0052775D01*
X0438453Y0052720D01*
X0438060Y0052772D01*
X0437688Y0052909D01*
X0437356Y0053125D01*
X0437081Y0053410D01*
X0436875Y0053749D01*
X0436751Y0054126D01*
X0436826Y0053897D02*
X0440083Y0053897D01*
X0440188Y0054396D02*
X0436725Y0054396D01*
X0436758Y0054894D02*
X0440157Y0054894D01*
X0439954Y0055393D02*
X0436971Y0055393D01*
X0437420Y0055891D02*
X0439513Y0055891D01*
X0439808Y0053399D02*
X0437092Y0053399D01*
X0437711Y0052900D02*
X0439181Y0052900D01*
X0555693Y0054520D02*
X0555739Y0054904D01*
X0555870Y0055267D01*
X0556078Y0055592D01*
X0556354Y0055863D01*
X0556683Y0056066D01*
X0557049Y0056190D01*
X0557433Y0056230D01*
X0557814Y0056196D01*
X0558179Y0056078D01*
X0558508Y0055882D01*
X0558785Y0055618D01*
X0558996Y0055298D01*
X0559131Y0054940D01*
X0559183Y0054560D01*
X0559148Y0054160D01*
X0559024Y0053777D01*
X0558819Y0053431D01*
X0558542Y0053140D01*
X0558207Y0052918D01*
X0557831Y0052775D01*
X0557433Y0052720D01*
X0557040Y0052772D01*
X0556668Y0052909D01*
X0556336Y0053125D01*
X0556060Y0053410D01*
X0555855Y0053749D01*
X0555731Y0054126D01*
X0555693Y0054520D01*
X0555705Y0054396D02*
X0559168Y0054396D01*
X0559137Y0054894D02*
X0555738Y0054894D01*
X0555951Y0055393D02*
X0558934Y0055393D01*
X0558492Y0055891D02*
X0556400Y0055891D01*
X0555806Y0053897D02*
X0559063Y0053897D01*
X0558788Y0053399D02*
X0556071Y0053399D01*
X0556691Y0052900D02*
X0558161Y0052900D01*
X0566751Y0054126D02*
X0566713Y0054520D01*
X0566760Y0054904D01*
X0566890Y0055267D01*
X0567099Y0055592D01*
X0567374Y0055863D01*
X0567703Y0056066D01*
X0568069Y0056190D01*
X0568453Y0056230D01*
X0568834Y0056196D01*
X0569199Y0056078D01*
X0569528Y0055882D01*
X0569805Y0055618D01*
X0570016Y0055298D01*
X0570151Y0054940D01*
X0570203Y0054560D01*
X0570168Y0054160D01*
X0570045Y0053777D01*
X0569839Y0053431D01*
X0569562Y0053140D01*
X0569227Y0052918D01*
X0568851Y0052775D01*
X0568453Y0052720D01*
X0568060Y0052772D01*
X0567688Y0052909D01*
X0567356Y0053125D01*
X0567081Y0053410D01*
X0566875Y0053749D01*
X0566751Y0054126D01*
X0566826Y0053897D02*
X0570083Y0053897D01*
X0570188Y0054396D02*
X0566725Y0054396D01*
X0566758Y0054894D02*
X0570157Y0054894D01*
X0569954Y0055393D02*
X0566971Y0055393D01*
X0567420Y0055891D02*
X0569513Y0055891D01*
X0569808Y0053399D02*
X0567092Y0053399D01*
X0567711Y0052900D02*
X0569181Y0052900D01*
X0685771Y0054219D02*
X0685817Y0054603D01*
X0685948Y0054966D01*
X0686156Y0055291D01*
X0686432Y0055562D01*
X0686761Y0055765D01*
X0687127Y0055889D01*
X0687511Y0055929D01*
X0687892Y0055895D01*
X0688257Y0055777D01*
X0688586Y0055581D01*
X0688863Y0055317D01*
X0689074Y0054997D01*
X0689209Y0054639D01*
X0689261Y0054259D01*
X0689226Y0053859D01*
X0689102Y0053476D01*
X0688897Y0053130D01*
X0688620Y0052839D01*
X0688285Y0052617D01*
X0687909Y0052474D01*
X0687511Y0052419D01*
X0687118Y0052471D01*
X0686746Y0052608D01*
X0686414Y0052824D01*
X0686138Y0053109D01*
X0685933Y0053448D01*
X0685809Y0053825D01*
X0685771Y0054219D01*
X0685792Y0054396D02*
X0689242Y0054396D01*
X0689229Y0053897D02*
X0685802Y0053897D01*
X0685963Y0053399D02*
X0689057Y0053399D01*
X0688678Y0052900D02*
X0686340Y0052900D01*
X0685922Y0054894D02*
X0689113Y0054894D01*
X0688783Y0055393D02*
X0686260Y0055393D01*
X0687145Y0055891D02*
X0687905Y0055891D01*
X0696838Y0054603D02*
X0696968Y0054966D01*
X0697177Y0055291D01*
X0697452Y0055562D01*
X0697781Y0055765D01*
X0698147Y0055889D01*
X0698531Y0055929D01*
X0698912Y0055895D01*
X0699277Y0055777D01*
X0699606Y0055581D01*
X0699883Y0055317D01*
X0700094Y0054997D01*
X0700229Y0054639D01*
X0700281Y0054259D01*
X0700246Y0053859D01*
X0700123Y0053476D01*
X0699917Y0053130D01*
X0699640Y0052839D01*
X0699305Y0052617D01*
X0698929Y0052474D01*
X0698531Y0052419D01*
X0698138Y0052471D01*
X0697766Y0052608D01*
X0697434Y0052824D01*
X0697159Y0053109D01*
X0696953Y0053448D01*
X0696829Y0053825D01*
X0696791Y0054219D01*
X0696838Y0054603D01*
X0696812Y0054396D02*
X0700262Y0054396D01*
X0700249Y0053897D02*
X0696822Y0053897D01*
X0696983Y0053399D02*
X0700077Y0053399D01*
X0699698Y0052900D02*
X0697360Y0052900D01*
X0696942Y0054894D02*
X0700133Y0054894D01*
X0699803Y0055393D02*
X0697280Y0055393D01*
X0698165Y0055891D02*
X0698925Y0055891D01*
X0815771Y0054918D02*
X0815817Y0055302D01*
X0815948Y0055665D01*
X0816156Y0055990D01*
X0816432Y0056261D01*
X0816761Y0056464D01*
X0817127Y0056588D01*
X0817511Y0056628D01*
X0817892Y0056594D01*
X0818257Y0056476D01*
X0818586Y0056280D01*
X0818863Y0056016D01*
X0819074Y0055696D01*
X0819209Y0055338D01*
X0819261Y0054958D01*
X0819226Y0054558D01*
X0819102Y0054175D01*
X0818897Y0053829D01*
X0818620Y0053538D01*
X0818285Y0053316D01*
X0817909Y0053173D01*
X0817511Y0053118D01*
X0817118Y0053170D01*
X0816746Y0053307D01*
X0816414Y0053523D01*
X0816138Y0053808D01*
X0815933Y0054147D01*
X0815809Y0054524D01*
X0815771Y0054918D01*
X0815773Y0054894D02*
X0819255Y0054894D01*
X0819188Y0055393D02*
X0815850Y0055393D01*
X0816093Y0055891D02*
X0818945Y0055891D01*
X0818402Y0056390D02*
X0816641Y0056390D01*
X0815851Y0054396D02*
X0819174Y0054396D01*
X0818938Y0053897D02*
X0816085Y0053897D01*
X0816605Y0053399D02*
X0818410Y0053399D01*
X0826829Y0054524D02*
X0826791Y0054918D01*
X0826838Y0055302D01*
X0826968Y0055665D01*
X0827177Y0055990D01*
X0827452Y0056261D01*
X0827781Y0056464D01*
X0828147Y0056588D01*
X0828531Y0056628D01*
X0828912Y0056594D01*
X0829277Y0056476D01*
X0829606Y0056280D01*
X0829883Y0056016D01*
X0830094Y0055696D01*
X0830229Y0055338D01*
X0830281Y0054958D01*
X0830246Y0054558D01*
X0830123Y0054175D01*
X0829917Y0053829D01*
X0829640Y0053538D01*
X0829305Y0053316D01*
X0828929Y0053173D01*
X0828531Y0053118D01*
X0828138Y0053170D01*
X0827766Y0053307D01*
X0827434Y0053523D01*
X0827159Y0053808D01*
X0826953Y0054147D01*
X0826829Y0054524D01*
X0826871Y0054396D02*
X0830194Y0054396D01*
X0830275Y0054894D02*
X0826793Y0054894D01*
X0826870Y0055393D02*
X0830208Y0055393D01*
X0829965Y0055891D02*
X0827113Y0055891D01*
X0827661Y0056390D02*
X0829422Y0056390D01*
X0829958Y0053897D02*
X0827105Y0053897D01*
X0827625Y0053399D02*
X0829430Y0053399D01*
X0945721Y0055537D02*
X0945773Y0055157D01*
X0945908Y0054799D01*
X0946119Y0054479D01*
X0946396Y0054215D01*
X0946725Y0054019D01*
X0947089Y0053901D01*
X0947471Y0053867D01*
X0947855Y0053907D01*
X0948221Y0054031D01*
X0948550Y0054234D01*
X0948825Y0054505D01*
X0949034Y0054830D01*
X0949164Y0055193D01*
X0949211Y0055577D01*
X0949173Y0055971D01*
X0949048Y0056348D01*
X0948843Y0056687D01*
X0948568Y0056972D01*
X0948236Y0057188D01*
X0947864Y0057325D01*
X0947471Y0057377D01*
X0947073Y0057322D01*
X0946697Y0057179D01*
X0946362Y0056957D01*
X0946085Y0056666D01*
X0945879Y0056320D01*
X0945756Y0055937D01*
X0945721Y0055537D01*
X0945741Y0055393D02*
X0949188Y0055393D01*
X0949181Y0055891D02*
X0945752Y0055891D01*
X0945921Y0056390D02*
X0949023Y0056390D01*
X0948648Y0056888D02*
X0946296Y0056888D01*
X0945872Y0054894D02*
X0949057Y0054894D01*
X0948715Y0054396D02*
X0946206Y0054396D01*
X0947127Y0053897D02*
X0947765Y0053897D01*
X0956793Y0055157D02*
X0956741Y0055537D01*
X0956776Y0055937D01*
X0956899Y0056320D01*
X0957105Y0056666D01*
X0957382Y0056957D01*
X0957717Y0057179D01*
X0958093Y0057322D01*
X0958491Y0057377D01*
X0958884Y0057325D01*
X0959256Y0057188D01*
X0959588Y0056972D01*
X0959863Y0056687D01*
X0960069Y0056348D01*
X0960193Y0055971D01*
X0960231Y0055577D01*
X0960184Y0055193D01*
X0960054Y0054830D01*
X0959845Y0054505D01*
X0959570Y0054234D01*
X0959241Y0054031D01*
X0958875Y0053907D01*
X0958491Y0053867D01*
X0958110Y0053901D01*
X0957745Y0054019D01*
X0957416Y0054215D01*
X0957139Y0054479D01*
X0956928Y0054799D01*
X0956793Y0055157D01*
X0956761Y0055393D02*
X0960209Y0055393D01*
X0960201Y0055891D02*
X0956772Y0055891D01*
X0956941Y0056390D02*
X0960043Y0056390D01*
X0959669Y0056888D02*
X0957317Y0056888D01*
X0956892Y0054894D02*
X0960077Y0054894D01*
X0959735Y0054396D02*
X0957226Y0054396D01*
X0958147Y0053897D02*
X0958786Y0053897D01*
D13*
X0924401Y0058398D02*
X0918401Y0058398D01*
X0918401Y0068398D02*
X0924401Y0068398D01*
X0924401Y0078398D02*
X0918401Y0078398D01*
X0920001Y0104398D02*
X0926001Y0104398D01*
X0926001Y0114398D02*
X0920001Y0114398D01*
X0920001Y0124398D02*
X0926001Y0124398D01*
X0926201Y0148398D02*
X0920201Y0148398D01*
X0920201Y0158398D02*
X0926201Y0158398D01*
X0926201Y0168398D02*
X0920201Y0168398D01*
X0795201Y0168699D02*
X0789201Y0168699D01*
X0789201Y0158699D02*
X0795201Y0158699D01*
X0795201Y0148699D02*
X0789201Y0148699D01*
X0790001Y0124699D02*
X0796001Y0124699D01*
X0796001Y0114699D02*
X0790001Y0114699D01*
X0790001Y0104699D02*
X0796001Y0104699D01*
X0795401Y0078699D02*
X0789401Y0078699D01*
X0789401Y0068699D02*
X0795401Y0068699D01*
X0795401Y0058699D02*
X0789401Y0058699D01*
X0666001Y0059000D02*
X0660001Y0059000D01*
X0660001Y0069000D02*
X0666001Y0069000D01*
X0666001Y0079000D02*
X0660001Y0079000D01*
X0535923Y0079500D02*
X0529923Y0079500D01*
X0529923Y0069500D02*
X0535923Y0069500D01*
X0535923Y0059500D02*
X0529923Y0059500D01*
X0405923Y0059500D02*
X0399923Y0059500D01*
X0399923Y0069500D02*
X0405923Y0069500D01*
X0405923Y0079500D02*
X0399923Y0079500D01*
X0399923Y0104500D02*
X0405923Y0104500D01*
X0405923Y0114500D02*
X0399923Y0114500D01*
X0399923Y0124500D02*
X0405923Y0124500D01*
X0405923Y0149500D02*
X0399923Y0149500D01*
X0399923Y0159500D02*
X0405923Y0159500D01*
X0405923Y0169500D02*
X0399923Y0169500D01*
X0280923Y0169500D02*
X0274923Y0169500D01*
X0274923Y0159500D02*
X0280923Y0159500D01*
X0280923Y0149500D02*
X0274923Y0149500D01*
X0274923Y0124500D02*
X0280923Y0124500D01*
X0280923Y0114500D02*
X0274923Y0114500D01*
X0274923Y0104500D02*
X0280923Y0104500D01*
X0280923Y0079500D02*
X0274923Y0079500D01*
X0274923Y0069500D02*
X0280923Y0069500D01*
X0280923Y0059500D02*
X0274923Y0059500D01*
X0529923Y0104500D02*
X0535923Y0104500D01*
X0535923Y0114500D02*
X0529923Y0114500D01*
X0529923Y0124500D02*
X0535923Y0124500D01*
X0660001Y0125000D02*
X0666001Y0125000D01*
X0666001Y0115000D02*
X0660001Y0115000D01*
X0660001Y0105000D02*
X0666001Y0105000D01*
X0666201Y0149000D02*
X0660201Y0149000D01*
X0660201Y0159000D02*
X0666201Y0159000D01*
X0666201Y0169000D02*
X0660201Y0169000D01*
X0535923Y0169500D02*
X0529923Y0169500D01*
X0529923Y0159500D02*
X0535923Y0159500D01*
X0535923Y0149500D02*
X0529923Y0149500D01*
D14*
X0557923Y0204500D03*
X0427923Y0204500D03*
X0302923Y0204500D03*
X0137923Y0229500D03*
X0192923Y0149500D03*
X0192923Y0079500D03*
X0302923Y0029500D03*
X0427923Y0029500D03*
X0552923Y0029500D03*
X0683030Y0029757D03*
X0813030Y0029456D03*
X0943030Y0029155D03*
X0947544Y0205155D03*
X0817544Y0205456D03*
X0687544Y0204757D03*
D15*
X0697544Y0204757D03*
X0827544Y0205456D03*
X0957544Y0205155D03*
X0567923Y0204500D03*
X0437923Y0204500D03*
X0312923Y0204500D03*
X0202773Y0194500D03*
X0183073Y0194500D03*
X0147923Y0229500D03*
X0192923Y0139500D03*
X0192923Y0089500D03*
X0202773Y0034500D03*
X0183073Y0034500D03*
X0312923Y0029500D03*
X0437923Y0029500D03*
X0562923Y0029500D03*
X0693030Y0029757D03*
X0823030Y0029456D03*
X0953030Y0029155D03*
D16*
X0908151Y0038764D03*
X0868151Y0038764D03*
X0778151Y0039065D03*
X0738151Y0039065D03*
X0648151Y0039366D03*
X0608151Y0039366D03*
X0517923Y0039500D03*
X0477923Y0039500D03*
X0402923Y0039500D03*
X0362923Y0039500D03*
X0282923Y0039500D03*
X0242923Y0039500D03*
X0242923Y0189500D03*
X0282923Y0189500D03*
X0367923Y0189500D03*
X0407923Y0189500D03*
X0477923Y0189500D03*
X0517923Y0189500D03*
X0608051Y0189366D03*
X0648051Y0189366D03*
X0738051Y0190065D03*
X0778051Y0190065D03*
X0868051Y0190764D03*
X0908051Y0190764D03*
X0192923Y0229500D03*
X0182923Y0229500D03*
X0172923Y0229500D03*
D17*
X0152923Y0194500D03*
X0132923Y0194500D03*
X0132923Y0034500D03*
X0152923Y0034500D03*
D18*
X0137348Y0059500D02*
X0128498Y0059500D01*
X0188498Y0059500D02*
X0197348Y0059500D01*
X0197348Y0169500D02*
X0188498Y0169500D01*
X0137348Y0169500D02*
X0128498Y0169500D01*
D19*
X0217923Y0214500D03*
X0232923Y0214500D03*
X0247923Y0214500D03*
X0262923Y0214500D03*
X0277923Y0214500D03*
X0292923Y0214500D03*
X0277923Y0224500D03*
X0247923Y0224500D03*
X0217923Y0224500D03*
X0232923Y0234500D03*
X0262923Y0234500D03*
X0292923Y0234500D03*
X0337923Y0224500D03*
X0367923Y0224500D03*
X0397923Y0224500D03*
X0397923Y0214500D03*
X0382923Y0214500D03*
X0367923Y0214500D03*
X0352923Y0214500D03*
X0337923Y0214500D03*
X0412923Y0214500D03*
X0462923Y0214500D03*
X0477923Y0214500D03*
X0492923Y0214500D03*
X0507923Y0214500D03*
X0522923Y0214500D03*
X0537923Y0214500D03*
X0522923Y0224500D03*
X0492923Y0224500D03*
X0462923Y0224500D03*
X0477923Y0234500D03*
X0507923Y0234500D03*
X0537923Y0234500D03*
X0593051Y0224199D03*
X0593051Y0214199D03*
X0608201Y0215199D03*
X0623341Y0214199D03*
X0637451Y0214199D03*
X0653196Y0214199D03*
X0667701Y0215199D03*
X0653196Y0224199D03*
X0623341Y0224199D03*
X0637451Y0234199D03*
X0667701Y0235199D03*
X0723051Y0224898D03*
X0752196Y0223898D03*
X0783341Y0224898D03*
X0797701Y0233898D03*
X0767451Y0234898D03*
X0738201Y0234898D03*
X0738201Y0214898D03*
X0752196Y0213898D03*
X0767451Y0214898D03*
X0783341Y0214898D03*
X0797701Y0213898D03*
X0853051Y0213597D03*
X0868201Y0213597D03*
X0883196Y0214597D03*
X0896451Y0214597D03*
X0912341Y0214597D03*
X0925701Y0214597D03*
X0912341Y0224597D03*
X0883196Y0224597D03*
X0853051Y0223597D03*
X0868201Y0233597D03*
X0896451Y0234597D03*
X0925701Y0234597D03*
X0723051Y0214898D03*
X0608201Y0235199D03*
X0412923Y0234500D03*
X0382923Y0234500D03*
X0352923Y0234500D03*
D20*
X0102923Y0171193D03*
X0102923Y0157413D03*
X0102923Y0141193D03*
X0102923Y0127413D03*
X0102923Y0071193D03*
X0102923Y0057413D03*
D21*
X0072923Y0059500D03*
X0072923Y0129500D03*
X0072923Y0169500D03*
D22*
X0073159Y0024500D02*
X0083002Y0024500D01*
X0092844Y0024500D02*
X0102687Y0024500D01*
X0102687Y0039500D02*
X0092844Y0039500D01*
X0083002Y0039500D02*
X0073159Y0039500D01*
X0073159Y0094500D02*
X0083002Y0094500D01*
X0092844Y0094500D02*
X0102687Y0094500D01*
X0102687Y0109500D02*
X0092844Y0109500D01*
X0083002Y0109500D02*
X0073159Y0109500D01*
X0078159Y0194500D02*
X0088002Y0194500D01*
X0097844Y0194500D02*
X0107687Y0194500D01*
X0107687Y0209500D02*
X0097844Y0209500D01*
X0088002Y0209500D02*
X0078159Y0209500D01*
D23*
X0267923Y0184500D03*
X0390423Y0184500D03*
X0407923Y0179500D03*
X0510423Y0187000D03*
X0525423Y0179500D03*
X0640923Y0187500D03*
X0654923Y0177500D03*
X0770923Y0187500D03*
X0804923Y0195500D03*
X0818923Y0181500D03*
X0784923Y0176500D03*
X0930923Y0197500D03*
X0939923Y0188500D03*
D24*
X0137923Y0149500D03*
X0127923Y0149500D03*
X0117923Y0149500D03*
X0087923Y0149500D03*
X0077923Y0149500D03*
X0067923Y0149500D03*
X0067923Y0079500D03*
X0077923Y0079500D03*
X0087923Y0079500D03*
X0097923Y0079500D03*
X0107923Y0079500D03*
X0117923Y0079500D03*
X0127923Y0079500D03*
X0137923Y0079500D03*
M02*
