%
M48
M72
T01C0.02362
T02C0.02756
T03C0.03150
T04C0.03200
T05C0.03543
T06C0.03937
T07C0.04000
T08C0.04400
T09C0.05118
T10C0.05900
T11C0.12598
T12C0.15000
%
T01
X67923Y79500
X77923Y79500
X87923Y79500
X97923Y79500
X107923Y79500
X117923Y79500
X127923Y79500
X137923Y79500
X137923Y149500
X127923Y149500
X117923Y149500
X87923Y149500
X77923Y149500
X67923Y149500
X267923Y184500
X390423Y184500
X407923Y179500
X510423Y187000
X525423Y179500
X640923Y187500
X654923Y177500
X770923Y187500
X804923Y195500
X818923Y181500
X784923Y176500
X930923Y197500
X939923Y188500
T02
X947544Y205155
X957544Y205155
X827544Y205456
X817544Y205456
X697544Y204757
X687544Y204757
X567923Y204500
X557923Y204500
X437923Y204500
X427923Y204500
X312923Y204500
X302923Y204500
X147923Y229500
X137923Y229500
X192923Y149500
X192923Y139500
X192923Y89500
X192923Y79500
X302923Y29500
X312923Y29500
X427923Y29500
X437923Y29500
X552923Y29500
X562923Y29500
X683030Y29757
X693030Y29757
X813030Y29456
X823030Y29456
X943030Y29155
X953030Y29155
T03
X152923Y34500
X132923Y34500
X132923Y194500
X152923Y194500
T04
X183073Y194500
X202773Y194500
X217923Y214500
X232923Y214500
X247923Y214500
X262923Y214500
X277923Y214500
X292923Y214500
X277923Y224500
X247923Y224500
X217923Y224500
X232923Y234500
X262923Y234500
X292923Y234500
X337923Y224500
X367923Y224500
X397923Y224500
X397923Y214500
X382923Y214500
X367923Y214500
X352923Y214500
X337923Y214500
X412923Y214500
X462923Y214500
X477923Y214500
X492923Y214500
X507923Y214500
X522923Y214500
X537923Y214500
X522923Y224500
X492923Y224500
X462923Y224500
X477923Y234500
X507923Y234500
X537923Y234500
X593051Y224199
X593051Y214199
X608201Y215199
X623341Y214199
X637451Y214199
X653196Y214199
X667701Y215199
X653196Y224199
X623341Y224199
X637451Y234199
X667701Y235199
X723051Y224898
X752196Y223898
X783341Y224898
X797701Y233898
X767451Y234898
X738201Y234898
X738201Y214898
X752196Y213898
X767451Y214898
X783341Y214898
X797701Y213898
X853051Y213597
X868201Y213597
X883196Y214597
X896451Y214597
X912341Y214597
X925701Y214597
X912341Y224597
X883196Y224597
X853051Y223597
X868201Y233597
X896451Y234597
X925701Y234597
X723051Y214898
X608201Y235199
X412923Y234500
X382923Y234500
X352923Y234500
X202773Y34500
X183073Y34500
T05
X182923Y229500
X192923Y229500
X172923Y229500
T06
X102923Y171193
X102923Y157413
X102923Y141193
X102923Y127413
X102923Y71193
X102923Y57413
T07
X277923Y59500
X302423Y54500
X313423Y54500
X277923Y69500
X302923Y72000
X312923Y72000
X277923Y79500
X302923Y82000
X312923Y82000
X312923Y92000
X302923Y92000
X302923Y102000
X312923Y102000
X277923Y104500
X302923Y112000
X312923Y112000
X277923Y114500
X302923Y122000
X312923Y122000
X277923Y124500
X302923Y132000
X312923Y132000
X312923Y142000
X302923Y142000
X277923Y149500
X277923Y159500
X302923Y161500
X317923Y161500
X277923Y169500
X302923Y172500
X317923Y172500
X402923Y169500
X427923Y164000
X442923Y164000
X402923Y159500
X402923Y149500
X427923Y144500
X437923Y144500
X437923Y134500
X427923Y134500
X427923Y124500
X437923Y124500
X402923Y124500
X402923Y114500
X427923Y114500
X437923Y114500
X437923Y104500
X427923Y104500
X402923Y104500
X427923Y94500
X437923Y94500
X437923Y84500
X427923Y84500
X402923Y79500
X427923Y74500
X437923Y74500
X402923Y69500
X402923Y59500
X427423Y54500
X438423Y54500
X532923Y59500
X557423Y54500
X568423Y54500
X532923Y69500
X557923Y74500
X567923Y74500
X532923Y79500
X557923Y84500
X567923Y84500
X567923Y94500
X557923Y94500
X557923Y104500
X567923Y104500
X532923Y104500
X532923Y114500
X557923Y114500
X567923Y114500
X567923Y124500
X557923Y124500
X532923Y124500
X557923Y134500
X567923Y134500
X567923Y144500
X557923Y144500
X532923Y149500
X532923Y159500
X557923Y164000
X572923Y164000
X572923Y175000
X557923Y175000
X532923Y169500
X442923Y175000
X427923Y175000
X663201Y169000
X688001Y164699
X703001Y163699
X663201Y159000
X663201Y149000
X688001Y144833
X698001Y144833
X698001Y134833
X688001Y134833
X688001Y124833
X698001Y124833
X663001Y125000
X663001Y115000
X688001Y114833
X698001Y114833
X698001Y104833
X688001Y104833
X663001Y105000
X688001Y94833
X698001Y94833
X698001Y84833
X688001Y84833
X663001Y79000
X688001Y74833
X698001Y74833
X663001Y69000
X663001Y59000
X687501Y54199
X698501Y54199
X792401Y58699
X817501Y54898
X828501Y54898
X792401Y68699
X818001Y74532
X828001Y74532
X792401Y78699
X818001Y84532
X828001Y84532
X828001Y94532
X818001Y94532
X818001Y104532
X828001Y104532
X793001Y104699
X793001Y114699
X818001Y114532
X828001Y114532
X828001Y124532
X818001Y124532
X793001Y124699
X818001Y134532
X828001Y134532
X828001Y144532
X818001Y144532
X792201Y148699
X792201Y158699
X818001Y163398
X833001Y163398
X792201Y168699
X818001Y174398
X833001Y174398
X923201Y168398
X950001Y164097
X963001Y164097
X923201Y158398
X923201Y148398
X948001Y144231
X958001Y144231
X958001Y134231
X948001Y134231
X948001Y124231
X958001Y124231
X923001Y124398
X923001Y114398
X948001Y114231
X958001Y114231
X958001Y104231
X948001Y104231
X923001Y104398
X948001Y94231
X958001Y94231
X958001Y84231
X948001Y84231
X921401Y78398
X948001Y74231
X958001Y74231
X921401Y68398
X921401Y58398
X947501Y55597
X958501Y55597
X963001Y175097
X950001Y175097
X703001Y174699
X688001Y175699
T08
X648051Y189366
X608051Y189366
X517923Y189500
X477923Y189500
X407923Y189500
X367923Y189500
X282923Y189500
X242923Y189500
X738051Y190065
X778051Y190065
X868051Y190764
X908051Y190764
X908151Y38764
X868151Y38764
X778151Y39065
X738151Y39065
X648151Y39366
X608151Y39366
X517923Y39500
X477923Y39500
X402923Y39500
X362923Y39500
X282923Y39500
X242923Y39500
T09
X78080Y24500
X97765Y24500
X97765Y39500
X78080Y39500
X78080Y94500
X97765Y94500
X97765Y109500
X78080Y109500
X83080Y194500
X102765Y194500
X102765Y209500
X83080Y209500
T10
X132923Y169500
X192923Y169500
X192923Y59500
X132923Y59500
T11
X167923Y19500
X229923Y124500
X357923Y124500
X487923Y124500
X612923Y124500
X744723Y123800
X877923Y124500
X982923Y29500
X982923Y229500
X72923Y229500
T12
X72923Y169500
X72923Y129500
X72923Y59500
M30
