G75*
%MOIN*%
%OFA0B0*%
%FSLAX25Y25*%
%IPPOS*%
%LPD*%
%AMOC8*
5,1,8,0,0,1.08239X$1,22.5*
%
%ADD10C,0.13398*%
%ADD11C,0.00100*%
%ADD12OC8,0.06800*%
%ADD13C,0.00500*%
%ADD14C,0.06800*%
%ADD15R,0.07300X0.07300*%
%ADD16C,0.07300*%
%ADD17C,0.07400*%
%ADD18C,0.08200*%
%ADD19C,0.09650*%
%ADD20OC8,0.06000*%
%ADD21C,0.09400*%
%ADD22C,0.22300*%
%ADD23C,0.10643*%
%ADD24C,0.04762*%
%ADD25R,0.04762X0.04762*%
D10*
X0167923Y0019500D03*
X0229923Y0124500D03*
X0357923Y0124500D03*
X0487923Y0124500D03*
X0612923Y0124500D03*
X0744723Y0123800D03*
X0877923Y0124500D03*
X0982923Y0029500D03*
X0982923Y0229500D03*
X0072923Y0229500D03*
D11*
X0303753Y0106239D02*
X0303771Y0102900D01*
X0307164Y0102846D01*
X0307173Y0103737D01*
X0304617Y0106239D01*
X0303753Y0106239D01*
X0303753Y0106190D02*
X0304667Y0106190D01*
X0304768Y0106091D02*
X0303754Y0106091D01*
X0303754Y0105993D02*
X0304868Y0105993D01*
X0304969Y0105894D02*
X0303755Y0105894D01*
X0303755Y0105796D02*
X0305070Y0105796D01*
X0305170Y0105697D02*
X0303756Y0105697D01*
X0303756Y0105599D02*
X0305271Y0105599D01*
X0305371Y0105500D02*
X0303757Y0105500D01*
X0303757Y0105402D02*
X0305472Y0105402D01*
X0305573Y0105303D02*
X0303758Y0105303D01*
X0303759Y0105205D02*
X0305673Y0105205D01*
X0305774Y0105106D02*
X0303759Y0105106D01*
X0303760Y0105008D02*
X0305875Y0105008D01*
X0305975Y0104909D02*
X0303760Y0104909D01*
X0303761Y0104811D02*
X0306076Y0104811D01*
X0306177Y0104712D02*
X0303761Y0104712D01*
X0303762Y0104614D02*
X0306277Y0104614D01*
X0306378Y0104515D02*
X0303762Y0104515D01*
X0303763Y0104417D02*
X0306478Y0104417D01*
X0306579Y0104318D02*
X0303763Y0104318D01*
X0303764Y0104220D02*
X0306680Y0104220D01*
X0306780Y0104121D02*
X0303764Y0104121D01*
X0303765Y0104023D02*
X0306881Y0104023D01*
X0306982Y0103924D02*
X0303765Y0103924D01*
X0303766Y0103826D02*
X0307082Y0103826D01*
X0307173Y0103727D02*
X0303766Y0103727D01*
X0303767Y0103629D02*
X0307172Y0103629D01*
X0307171Y0103530D02*
X0303768Y0103530D01*
X0303768Y0103432D02*
X0307170Y0103432D01*
X0307169Y0103333D02*
X0303769Y0103333D01*
X0303769Y0103235D02*
X0307168Y0103235D01*
X0307167Y0103136D02*
X0303770Y0103136D01*
X0303770Y0103038D02*
X0307166Y0103038D01*
X0307165Y0102939D02*
X0303771Y0102939D01*
D12*
X0302923Y0102000D03*
X0312923Y0102000D03*
X0312923Y0092000D03*
X0302923Y0092000D03*
X0302923Y0082000D03*
X0312923Y0082000D03*
X0312923Y0072000D03*
X0302923Y0072000D03*
X0427923Y0074500D03*
X0437923Y0074500D03*
X0437923Y0084500D03*
X0427923Y0084500D03*
X0427923Y0094500D03*
X0437923Y0094500D03*
X0437923Y0104500D03*
X0427923Y0104500D03*
X0427923Y0114500D03*
X0437923Y0114500D03*
X0437923Y0124500D03*
X0427923Y0124500D03*
X0427923Y0134500D03*
X0437923Y0134500D03*
X0437923Y0144500D03*
X0427923Y0144500D03*
X0312923Y0142000D03*
X0302923Y0142000D03*
X0302923Y0132000D03*
X0312923Y0132000D03*
X0312923Y0122000D03*
X0302923Y0122000D03*
X0302923Y0112000D03*
X0312923Y0112000D03*
X0557923Y0114500D03*
X0567923Y0114500D03*
X0567923Y0104500D03*
X0557923Y0104500D03*
X0557923Y0094500D03*
X0567923Y0094500D03*
X0567923Y0084500D03*
X0557923Y0084500D03*
X0557923Y0074500D03*
X0567923Y0074500D03*
X0688001Y0074833D03*
X0698001Y0074833D03*
X0698001Y0084833D03*
X0688001Y0084833D03*
X0688001Y0094833D03*
X0698001Y0094833D03*
X0698001Y0104833D03*
X0688001Y0104833D03*
X0688001Y0114833D03*
X0698001Y0114833D03*
X0698001Y0124833D03*
X0688001Y0124833D03*
X0688001Y0134833D03*
X0698001Y0134833D03*
X0698001Y0144833D03*
X0688001Y0144833D03*
X0567923Y0144500D03*
X0557923Y0144500D03*
X0557923Y0134500D03*
X0567923Y0134500D03*
X0567923Y0124500D03*
X0557923Y0124500D03*
X0818001Y0124532D03*
X0828001Y0124532D03*
X0828001Y0114532D03*
X0818001Y0114532D03*
X0818001Y0104532D03*
X0828001Y0104532D03*
X0828001Y0094532D03*
X0818001Y0094532D03*
X0818001Y0084532D03*
X0828001Y0084532D03*
X0828001Y0074532D03*
X0818001Y0074532D03*
X0948001Y0074231D03*
X0958001Y0074231D03*
X0958001Y0084231D03*
X0948001Y0084231D03*
X0948001Y0094231D03*
X0958001Y0094231D03*
X0958001Y0104231D03*
X0948001Y0104231D03*
X0948001Y0114231D03*
X0958001Y0114231D03*
X0958001Y0124231D03*
X0948001Y0124231D03*
X0948001Y0134231D03*
X0958001Y0134231D03*
X0958001Y0144231D03*
X0948001Y0144231D03*
X0828001Y0144532D03*
X0818001Y0144532D03*
X0818001Y0134532D03*
X0828001Y0134532D03*
D13*
X0832201Y0159746D02*
X0831511Y0159964D01*
X0830877Y0160312D01*
X0830323Y0160777D01*
X0829870Y0161341D01*
X0829536Y0161983D01*
X0829334Y0162677D01*
X0829271Y0163398D01*
X0829332Y0164123D01*
X0829534Y0164821D01*
X0829868Y0165467D01*
X0830322Y0166036D01*
X0830878Y0166505D01*
X0831515Y0166856D01*
X0832208Y0167076D01*
X0832931Y0167157D01*
X0833591Y0167108D01*
X0834232Y0166944D01*
X0834834Y0166672D01*
X0835381Y0166299D01*
X0835854Y0165837D01*
X0836240Y0165299D01*
X0836527Y0164703D01*
X0836706Y0164066D01*
X0836771Y0163408D01*
X0836704Y0162750D01*
X0836523Y0162113D01*
X0836235Y0161518D01*
X0835848Y0160981D01*
X0835373Y0160520D01*
X0834826Y0160149D01*
X0834222Y0159878D01*
X0833580Y0159716D01*
X0832921Y0159668D01*
X0832201Y0159746D01*
X0831299Y0160080D02*
X0834673Y0160080D01*
X0835433Y0160579D02*
X0830559Y0160579D01*
X0830082Y0161077D02*
X0835917Y0161077D01*
X0836263Y0161576D02*
X0829748Y0161576D01*
X0829509Y0162074D02*
X0836504Y0162074D01*
X0836654Y0162573D02*
X0829364Y0162573D01*
X0829299Y0163071D02*
X0836737Y0163071D01*
X0836755Y0163570D02*
X0829285Y0163570D01*
X0829328Y0164068D02*
X0836705Y0164068D01*
X0836565Y0164567D02*
X0829460Y0164567D01*
X0829660Y0165065D02*
X0836353Y0165065D01*
X0836050Y0165564D02*
X0829945Y0165564D01*
X0830354Y0166062D02*
X0835623Y0166062D01*
X0834997Y0166561D02*
X0830980Y0166561D01*
X0832154Y0167059D02*
X0833780Y0167059D01*
X0833580Y0170736D02*
X0832921Y0170688D01*
X0832201Y0170766D01*
X0831511Y0170984D01*
X0830877Y0171332D01*
X0830323Y0171797D01*
X0829870Y0172361D01*
X0829536Y0173003D01*
X0829334Y0173697D01*
X0829271Y0174418D01*
X0829332Y0175143D01*
X0829534Y0175842D01*
X0829868Y0176488D01*
X0830322Y0177056D01*
X0830878Y0177525D01*
X0831515Y0177876D01*
X0832208Y0178097D01*
X0832931Y0178178D01*
X0833591Y0178128D01*
X0834232Y0177964D01*
X0834834Y0177692D01*
X0835381Y0177319D01*
X0835854Y0176857D01*
X0836240Y0176319D01*
X0836527Y0175723D01*
X0836706Y0175086D01*
X0836771Y0174428D01*
X0836704Y0173770D01*
X0836523Y0173133D01*
X0836235Y0172538D01*
X0835848Y0172001D01*
X0835373Y0171540D01*
X0834826Y0171169D01*
X0834222Y0170898D01*
X0833580Y0170736D01*
X0834555Y0171047D02*
X0831395Y0171047D01*
X0830622Y0171546D02*
X0835379Y0171546D01*
X0835879Y0172044D02*
X0830124Y0172044D01*
X0829775Y0172543D02*
X0836238Y0172543D01*
X0836479Y0173041D02*
X0829525Y0173041D01*
X0829379Y0173540D02*
X0836639Y0173540D01*
X0836731Y0174039D02*
X0829304Y0174039D01*
X0829281Y0174537D02*
X0836760Y0174537D01*
X0836711Y0175036D02*
X0829323Y0175036D01*
X0829445Y0175534D02*
X0836580Y0175534D01*
X0836378Y0176033D02*
X0829633Y0176033D01*
X0829903Y0176531D02*
X0836088Y0176531D01*
X0835677Y0177030D02*
X0830301Y0177030D01*
X0830884Y0177528D02*
X0835074Y0177528D01*
X0833987Y0178027D02*
X0831988Y0178027D01*
X0821668Y0175119D02*
X0821731Y0174398D01*
X0821670Y0173673D01*
X0821468Y0172975D01*
X0821134Y0172329D01*
X0820680Y0171760D01*
X0820124Y0171291D01*
X0819487Y0170940D01*
X0818794Y0170720D01*
X0818071Y0170639D01*
X0817411Y0170688D01*
X0816770Y0170852D01*
X0816167Y0171124D01*
X0815621Y0171497D01*
X0815148Y0171959D01*
X0814762Y0172497D01*
X0814475Y0173093D01*
X0814296Y0173730D01*
X0814231Y0174388D01*
X0814298Y0175046D01*
X0814479Y0175683D01*
X0814767Y0176278D01*
X0815154Y0176815D01*
X0815629Y0177276D01*
X0816176Y0177647D01*
X0816780Y0177918D01*
X0817421Y0178080D01*
X0818081Y0178128D01*
X0818800Y0178050D01*
X0819490Y0177832D01*
X0820125Y0177484D01*
X0820679Y0177019D01*
X0821132Y0176455D01*
X0821466Y0175813D01*
X0821668Y0175119D01*
X0821676Y0175036D02*
X0814297Y0175036D01*
X0814246Y0174537D02*
X0821719Y0174537D01*
X0821701Y0174039D02*
X0814266Y0174039D01*
X0814350Y0173540D02*
X0821631Y0173540D01*
X0821487Y0173041D02*
X0814500Y0173041D01*
X0814740Y0172543D02*
X0821245Y0172543D01*
X0820907Y0172044D02*
X0815087Y0172044D01*
X0815571Y0171546D02*
X0820426Y0171546D01*
X0819682Y0171047D02*
X0816337Y0171047D01*
X0817418Y0167059D02*
X0818528Y0167059D01*
X0818800Y0167030D02*
X0819490Y0166812D01*
X0820125Y0166464D01*
X0820679Y0165999D01*
X0821132Y0165435D01*
X0821466Y0164793D01*
X0821668Y0164099D01*
X0821731Y0163378D01*
X0821670Y0162653D01*
X0821468Y0161954D01*
X0821134Y0161308D01*
X0820680Y0160740D01*
X0820124Y0160271D01*
X0819487Y0159920D01*
X0818794Y0159699D01*
X0818071Y0159618D01*
X0817411Y0159668D01*
X0816770Y0159832D01*
X0816167Y0160104D01*
X0815621Y0160477D01*
X0815148Y0160939D01*
X0814762Y0161477D01*
X0814475Y0162073D01*
X0814296Y0162710D01*
X0814231Y0163368D01*
X0814298Y0164026D01*
X0814479Y0164663D01*
X0814767Y0165258D01*
X0815154Y0165795D01*
X0815629Y0166256D01*
X0816176Y0166627D01*
X0816780Y0166898D01*
X0817421Y0167060D01*
X0818081Y0167108D01*
X0818800Y0167030D01*
X0819949Y0166561D02*
X0816078Y0166561D01*
X0815430Y0166062D02*
X0820604Y0166062D01*
X0821029Y0165564D02*
X0814987Y0165564D01*
X0814673Y0165065D02*
X0821324Y0165065D01*
X0821532Y0164567D02*
X0814451Y0164567D01*
X0814310Y0164068D02*
X0821671Y0164068D01*
X0821714Y0163570D02*
X0814251Y0163570D01*
X0814260Y0163071D02*
X0821705Y0163071D01*
X0821646Y0162573D02*
X0814335Y0162573D01*
X0814475Y0162074D02*
X0821502Y0162074D01*
X0821272Y0161576D02*
X0814714Y0161576D01*
X0815049Y0161077D02*
X0820949Y0161077D01*
X0820488Y0160579D02*
X0815517Y0160579D01*
X0816220Y0160080D02*
X0819777Y0160080D01*
X0821547Y0175534D02*
X0814436Y0175534D01*
X0814648Y0176033D02*
X0821352Y0176033D01*
X0821071Y0176531D02*
X0814949Y0176531D01*
X0815375Y0177030D02*
X0820667Y0177030D01*
X0820045Y0177528D02*
X0816000Y0177528D01*
X0817209Y0178027D02*
X0818874Y0178027D01*
X0706771Y0174729D02*
X0706704Y0174071D01*
X0706523Y0173434D01*
X0706235Y0172839D01*
X0705848Y0172302D01*
X0705373Y0171841D01*
X0704826Y0171470D01*
X0704222Y0171199D01*
X0703580Y0171037D01*
X0702921Y0170989D01*
X0702201Y0171067D01*
X0701511Y0171285D01*
X0700877Y0171633D01*
X0700323Y0172098D01*
X0699870Y0172662D01*
X0699536Y0173304D01*
X0699334Y0173998D01*
X0699271Y0174719D01*
X0699332Y0175444D01*
X0699534Y0176143D01*
X0699868Y0176789D01*
X0700322Y0177357D01*
X0700878Y0177826D01*
X0701515Y0178177D01*
X0702208Y0178398D01*
X0702931Y0178479D01*
X0703591Y0178429D01*
X0704232Y0178265D01*
X0704834Y0177993D01*
X0705381Y0177620D01*
X0705854Y0177158D01*
X0706240Y0176620D01*
X0706527Y0176024D01*
X0706706Y0175387D01*
X0706771Y0174729D01*
X0706751Y0174537D02*
X0699287Y0174537D01*
X0699298Y0175036D02*
X0706741Y0175036D01*
X0706664Y0175534D02*
X0699358Y0175534D01*
X0699502Y0176033D02*
X0706523Y0176033D01*
X0706283Y0176531D02*
X0699735Y0176531D01*
X0700061Y0177030D02*
X0705946Y0177030D01*
X0705475Y0177528D02*
X0700525Y0177528D01*
X0701242Y0178027D02*
X0704760Y0178027D01*
X0706695Y0174039D02*
X0699330Y0174039D01*
X0699467Y0173540D02*
X0706553Y0173540D01*
X0706333Y0173041D02*
X0699672Y0173041D01*
X0699965Y0172543D02*
X0706021Y0172543D01*
X0705582Y0172044D02*
X0700386Y0172044D01*
X0701035Y0171546D02*
X0704938Y0171546D01*
X0703622Y0171047D02*
X0702384Y0171047D01*
X0702931Y0167458D02*
X0703591Y0167409D01*
X0704232Y0167245D01*
X0704834Y0166973D01*
X0705381Y0166600D01*
X0705854Y0166138D01*
X0706240Y0165600D01*
X0706527Y0165004D01*
X0706706Y0164367D01*
X0706771Y0163709D01*
X0706704Y0163051D01*
X0706523Y0162414D01*
X0706235Y0161819D01*
X0705848Y0161282D01*
X0705373Y0160821D01*
X0704826Y0160450D01*
X0704222Y0160179D01*
X0703580Y0160017D01*
X0702921Y0159969D01*
X0702201Y0160047D01*
X0701511Y0160265D01*
X0700877Y0160613D01*
X0700323Y0161078D01*
X0699870Y0161642D01*
X0699536Y0162284D01*
X0699334Y0162978D01*
X0699271Y0163699D01*
X0699332Y0164424D01*
X0699534Y0165122D01*
X0699868Y0165768D01*
X0700322Y0166337D01*
X0700878Y0166806D01*
X0701515Y0167157D01*
X0702208Y0167377D01*
X0702931Y0167458D01*
X0701338Y0167059D02*
X0704643Y0167059D01*
X0705421Y0166561D02*
X0700588Y0166561D01*
X0700103Y0166062D02*
X0705908Y0166062D01*
X0706258Y0165564D02*
X0699762Y0165564D01*
X0699517Y0165065D02*
X0706497Y0165065D01*
X0706650Y0164567D02*
X0699374Y0164567D01*
X0699302Y0164068D02*
X0706735Y0164068D01*
X0706757Y0163570D02*
X0699282Y0163570D01*
X0699325Y0163071D02*
X0706706Y0163071D01*
X0706568Y0162573D02*
X0699452Y0162573D01*
X0699645Y0162074D02*
X0706359Y0162074D01*
X0706060Y0161576D02*
X0699923Y0161576D01*
X0700323Y0161077D02*
X0705637Y0161077D01*
X0705016Y0160579D02*
X0700939Y0160579D01*
X0702097Y0160080D02*
X0703832Y0160080D01*
X0691559Y0163570D02*
X0684420Y0163570D01*
X0684475Y0163374D02*
X0684296Y0164011D01*
X0684231Y0164669D01*
X0684298Y0165327D01*
X0684479Y0165964D01*
X0684767Y0166559D01*
X0685154Y0167096D01*
X0685629Y0167557D01*
X0686176Y0167928D01*
X0686780Y0168199D01*
X0687421Y0168361D01*
X0688081Y0168409D01*
X0688800Y0168331D01*
X0689490Y0168113D01*
X0690125Y0167765D01*
X0690679Y0167300D01*
X0691132Y0166736D01*
X0691466Y0166094D01*
X0691668Y0165400D01*
X0691731Y0164679D01*
X0691670Y0163954D01*
X0691468Y0163255D01*
X0691134Y0162609D01*
X0690680Y0162041D01*
X0690124Y0161572D01*
X0689487Y0161221D01*
X0688794Y0161000D01*
X0688071Y0160919D01*
X0687411Y0160969D01*
X0686770Y0161133D01*
X0686167Y0161405D01*
X0685621Y0161778D01*
X0685148Y0162240D01*
X0684762Y0162778D01*
X0684475Y0163374D01*
X0684621Y0163071D02*
X0691373Y0163071D01*
X0691104Y0162573D02*
X0684909Y0162573D01*
X0685318Y0162074D02*
X0690706Y0162074D01*
X0690128Y0161576D02*
X0685917Y0161576D01*
X0686988Y0161077D02*
X0689035Y0161077D01*
X0691679Y0164068D02*
X0684291Y0164068D01*
X0684241Y0164567D02*
X0691722Y0164567D01*
X0691697Y0165065D02*
X0684271Y0165065D01*
X0684365Y0165564D02*
X0691620Y0165564D01*
X0691475Y0166062D02*
X0684526Y0166062D01*
X0684768Y0166561D02*
X0691223Y0166561D01*
X0690872Y0167059D02*
X0685128Y0167059D01*
X0685630Y0167558D02*
X0690372Y0167558D01*
X0689594Y0168056D02*
X0686462Y0168056D01*
X0687411Y0171989D02*
X0686770Y0172153D01*
X0686167Y0172425D01*
X0685621Y0172798D01*
X0685148Y0173260D01*
X0684762Y0173798D01*
X0684475Y0174394D01*
X0684296Y0175031D01*
X0684231Y0175689D01*
X0684298Y0176347D01*
X0684479Y0176984D01*
X0684767Y0177579D01*
X0685154Y0178116D01*
X0685629Y0178577D01*
X0686176Y0178948D01*
X0686780Y0179219D01*
X0687421Y0179381D01*
X0688081Y0179429D01*
X0688800Y0179351D01*
X0689490Y0179133D01*
X0690125Y0178785D01*
X0690679Y0178320D01*
X0691132Y0177756D01*
X0691466Y0177114D01*
X0691668Y0176420D01*
X0691731Y0175699D01*
X0691670Y0174974D01*
X0691468Y0174276D01*
X0691134Y0173630D01*
X0690680Y0173061D01*
X0690124Y0172592D01*
X0689487Y0172241D01*
X0688794Y0172021D01*
X0688071Y0171940D01*
X0687411Y0171989D01*
X0687195Y0172044D02*
X0688869Y0172044D01*
X0690034Y0172543D02*
X0685995Y0172543D01*
X0685372Y0173041D02*
X0690656Y0173041D01*
X0691062Y0173540D02*
X0684947Y0173540D01*
X0684646Y0174039D02*
X0691345Y0174039D01*
X0691543Y0174537D02*
X0684435Y0174537D01*
X0684296Y0175036D02*
X0691675Y0175036D01*
X0691717Y0175534D02*
X0684246Y0175534D01*
X0684266Y0176033D02*
X0691702Y0176033D01*
X0691636Y0176531D02*
X0684350Y0176531D01*
X0684501Y0177030D02*
X0691491Y0177030D01*
X0691251Y0177528D02*
X0684742Y0177528D01*
X0685090Y0178027D02*
X0690915Y0178027D01*
X0690435Y0178525D02*
X0685576Y0178525D01*
X0686344Y0179024D02*
X0689690Y0179024D01*
X0576693Y0175030D02*
X0576626Y0174372D01*
X0576445Y0173735D01*
X0576157Y0173140D01*
X0575770Y0172603D01*
X0575295Y0172142D01*
X0574748Y0171771D01*
X0574144Y0171500D01*
X0573502Y0171338D01*
X0572843Y0171290D01*
X0572123Y0171368D01*
X0571433Y0171586D01*
X0570799Y0171934D01*
X0570245Y0172399D01*
X0569792Y0172963D01*
X0569458Y0173605D01*
X0569256Y0174299D01*
X0569193Y0175020D01*
X0569254Y0175745D01*
X0569456Y0176444D01*
X0569790Y0177090D01*
X0570244Y0177658D01*
X0570800Y0178127D01*
X0571437Y0178478D01*
X0572130Y0178699D01*
X0572853Y0178780D01*
X0573513Y0178730D01*
X0574154Y0178566D01*
X0574756Y0178294D01*
X0575303Y0177921D01*
X0575776Y0177459D01*
X0576162Y0176921D01*
X0576449Y0176325D01*
X0576628Y0175688D01*
X0576693Y0175030D01*
X0576692Y0175036D02*
X0569194Y0175036D01*
X0569236Y0175534D02*
X0576643Y0175534D01*
X0576531Y0176033D02*
X0569337Y0176033D01*
X0569501Y0176531D02*
X0576350Y0176531D01*
X0576084Y0177030D02*
X0569759Y0177030D01*
X0570140Y0177528D02*
X0575705Y0177528D01*
X0575148Y0178027D02*
X0570681Y0178027D01*
X0571585Y0178525D02*
X0574245Y0178525D01*
X0576643Y0174537D02*
X0569235Y0174537D01*
X0569332Y0174039D02*
X0576531Y0174039D01*
X0576351Y0173540D02*
X0569492Y0173540D01*
X0569751Y0173041D02*
X0576086Y0173041D01*
X0575708Y0172543D02*
X0570129Y0172543D01*
X0570667Y0172044D02*
X0575151Y0172044D01*
X0574247Y0171546D02*
X0571560Y0171546D01*
X0561592Y0174275D02*
X0561390Y0173577D01*
X0561056Y0172931D01*
X0560602Y0172362D01*
X0560046Y0171893D01*
X0559409Y0171542D01*
X0558716Y0171322D01*
X0557993Y0171241D01*
X0557333Y0171290D01*
X0556692Y0171454D01*
X0556089Y0171726D01*
X0555543Y0172099D01*
X0555070Y0172561D01*
X0554684Y0173099D01*
X0554397Y0173695D01*
X0554218Y0174332D01*
X0554153Y0174990D01*
X0554220Y0175648D01*
X0554401Y0176285D01*
X0554689Y0176880D01*
X0555076Y0177417D01*
X0555551Y0177878D01*
X0556098Y0178249D01*
X0556702Y0178520D01*
X0557343Y0178682D01*
X0558003Y0178730D01*
X0558722Y0178652D01*
X0559412Y0178434D01*
X0560047Y0178086D01*
X0560601Y0177621D01*
X0561054Y0177057D01*
X0561388Y0176415D01*
X0561590Y0175721D01*
X0561653Y0175000D01*
X0561592Y0174275D01*
X0561523Y0174039D02*
X0554301Y0174039D01*
X0554198Y0174537D02*
X0561614Y0174537D01*
X0561650Y0175036D02*
X0554157Y0175036D01*
X0554208Y0175534D02*
X0561607Y0175534D01*
X0561499Y0176033D02*
X0554329Y0176033D01*
X0554520Y0176531D02*
X0561328Y0176531D01*
X0561068Y0177030D02*
X0554797Y0177030D01*
X0555191Y0177528D02*
X0560676Y0177528D01*
X0560118Y0178027D02*
X0555770Y0178027D01*
X0556721Y0178525D02*
X0559124Y0178525D01*
X0561371Y0173540D02*
X0554472Y0173540D01*
X0554725Y0173041D02*
X0561113Y0173041D01*
X0560746Y0172543D02*
X0555088Y0172543D01*
X0555623Y0172044D02*
X0560225Y0172044D01*
X0559416Y0171546D02*
X0556488Y0171546D01*
X0557343Y0167662D02*
X0558003Y0167710D01*
X0558722Y0167632D01*
X0559412Y0167414D01*
X0560047Y0167066D01*
X0560601Y0166601D01*
X0561054Y0166037D01*
X0561388Y0165395D01*
X0561590Y0164701D01*
X0561653Y0163980D01*
X0561592Y0163255D01*
X0561390Y0162556D01*
X0561056Y0161910D01*
X0560602Y0161342D01*
X0560046Y0160873D01*
X0559409Y0160522D01*
X0558716Y0160301D01*
X0557993Y0160220D01*
X0557333Y0160270D01*
X0556692Y0160434D01*
X0556089Y0160706D01*
X0555543Y0161079D01*
X0555070Y0161541D01*
X0554684Y0162079D01*
X0554397Y0162675D01*
X0554218Y0163312D01*
X0554153Y0163970D01*
X0554220Y0164628D01*
X0554401Y0165265D01*
X0554689Y0165860D01*
X0555076Y0166397D01*
X0555551Y0166858D01*
X0556098Y0167229D01*
X0556702Y0167500D01*
X0557343Y0167662D01*
X0556930Y0167558D02*
X0558956Y0167558D01*
X0560055Y0167059D02*
X0555848Y0167059D01*
X0555245Y0166561D02*
X0560633Y0166561D01*
X0561034Y0166062D02*
X0554835Y0166062D01*
X0554545Y0165564D02*
X0561300Y0165564D01*
X0561484Y0165065D02*
X0554344Y0165065D01*
X0554214Y0164567D02*
X0561602Y0164567D01*
X0561646Y0164068D02*
X0554163Y0164068D01*
X0554193Y0163570D02*
X0561618Y0163570D01*
X0561539Y0163071D02*
X0554286Y0163071D01*
X0554446Y0162573D02*
X0561395Y0162573D01*
X0561140Y0162074D02*
X0554687Y0162074D01*
X0555045Y0161576D02*
X0560788Y0161576D01*
X0560288Y0161077D02*
X0555546Y0161077D01*
X0556371Y0160579D02*
X0559512Y0160579D01*
X0569256Y0163279D02*
X0569193Y0164000D01*
X0569254Y0164725D01*
X0569456Y0165423D01*
X0569790Y0166069D01*
X0570244Y0166638D01*
X0570800Y0167107D01*
X0571437Y0167458D01*
X0572130Y0167678D01*
X0572853Y0167759D01*
X0573513Y0167710D01*
X0574154Y0167546D01*
X0574756Y0167274D01*
X0575303Y0166901D01*
X0575776Y0166439D01*
X0576162Y0165901D01*
X0576449Y0165305D01*
X0576628Y0164668D01*
X0576693Y0164010D01*
X0576626Y0163352D01*
X0576445Y0162715D01*
X0576157Y0162120D01*
X0575770Y0161583D01*
X0575295Y0161122D01*
X0574748Y0160751D01*
X0574144Y0160480D01*
X0573502Y0160318D01*
X0572843Y0160270D01*
X0572123Y0160348D01*
X0571433Y0160566D01*
X0570799Y0160914D01*
X0570245Y0161379D01*
X0569792Y0161943D01*
X0569458Y0162585D01*
X0569256Y0163279D01*
X0569316Y0163071D02*
X0576546Y0163071D01*
X0576648Y0163570D02*
X0569230Y0163570D01*
X0569198Y0164068D02*
X0576687Y0164068D01*
X0576638Y0164567D02*
X0569241Y0164567D01*
X0569353Y0165065D02*
X0576516Y0165065D01*
X0576324Y0165564D02*
X0569529Y0165564D01*
X0569787Y0166062D02*
X0576046Y0166062D01*
X0575651Y0166561D02*
X0570183Y0166561D01*
X0570744Y0167059D02*
X0575071Y0167059D01*
X0574108Y0167558D02*
X0571751Y0167558D01*
X0569464Y0162573D02*
X0576376Y0162573D01*
X0576124Y0162074D02*
X0569724Y0162074D01*
X0570087Y0161576D02*
X0575762Y0161576D01*
X0575229Y0161077D02*
X0570604Y0161077D01*
X0571410Y0160579D02*
X0574365Y0160579D01*
X0446693Y0164010D02*
X0446626Y0163352D01*
X0446445Y0162715D01*
X0446157Y0162120D01*
X0445770Y0161583D01*
X0445295Y0161122D01*
X0444748Y0160751D01*
X0444144Y0160480D01*
X0443502Y0160318D01*
X0442843Y0160270D01*
X0442123Y0160348D01*
X0441433Y0160566D01*
X0440799Y0160914D01*
X0440245Y0161379D01*
X0439792Y0161943D01*
X0439458Y0162585D01*
X0439256Y0163279D01*
X0439193Y0164000D01*
X0439254Y0164725D01*
X0439456Y0165423D01*
X0439790Y0166069D01*
X0440244Y0166638D01*
X0440800Y0167107D01*
X0441437Y0167458D01*
X0442130Y0167678D01*
X0442853Y0167759D01*
X0443513Y0167710D01*
X0444154Y0167546D01*
X0444756Y0167274D01*
X0445303Y0166901D01*
X0445776Y0166439D01*
X0446162Y0165901D01*
X0446449Y0165305D01*
X0446628Y0164668D01*
X0446693Y0164010D01*
X0446687Y0164068D02*
X0439198Y0164068D01*
X0439230Y0163570D02*
X0446648Y0163570D01*
X0446546Y0163071D02*
X0439316Y0163071D01*
X0439464Y0162573D02*
X0446376Y0162573D01*
X0446124Y0162074D02*
X0439724Y0162074D01*
X0440087Y0161576D02*
X0445762Y0161576D01*
X0445229Y0161077D02*
X0440604Y0161077D01*
X0441410Y0160579D02*
X0444365Y0160579D01*
X0431592Y0163255D02*
X0431390Y0162556D01*
X0431056Y0161910D01*
X0430602Y0161342D01*
X0430046Y0160873D01*
X0429409Y0160522D01*
X0428716Y0160301D01*
X0427993Y0160220D01*
X0427333Y0160270D01*
X0426692Y0160434D01*
X0426089Y0160706D01*
X0425543Y0161079D01*
X0425070Y0161541D01*
X0424684Y0162079D01*
X0424397Y0162675D01*
X0424218Y0163312D01*
X0424153Y0163970D01*
X0424220Y0164628D01*
X0424401Y0165265D01*
X0424689Y0165860D01*
X0425076Y0166397D01*
X0425551Y0166858D01*
X0426098Y0167229D01*
X0426702Y0167500D01*
X0427343Y0167662D01*
X0428003Y0167710D01*
X0428722Y0167632D01*
X0429412Y0167414D01*
X0430047Y0167066D01*
X0430601Y0166601D01*
X0431054Y0166037D01*
X0431388Y0165395D01*
X0431590Y0164701D01*
X0431653Y0163980D01*
X0431592Y0163255D01*
X0431539Y0163071D02*
X0424286Y0163071D01*
X0424193Y0163570D02*
X0431618Y0163570D01*
X0431646Y0164068D02*
X0424163Y0164068D01*
X0424214Y0164567D02*
X0431602Y0164567D01*
X0431484Y0165065D02*
X0424344Y0165065D01*
X0424545Y0165564D02*
X0431300Y0165564D01*
X0431034Y0166062D02*
X0424835Y0166062D01*
X0425245Y0166561D02*
X0430633Y0166561D01*
X0430055Y0167059D02*
X0425848Y0167059D01*
X0426930Y0167558D02*
X0428956Y0167558D01*
X0428716Y0171322D02*
X0427993Y0171241D01*
X0427333Y0171290D01*
X0426692Y0171454D01*
X0426089Y0171726D01*
X0425543Y0172099D01*
X0425070Y0172561D01*
X0424684Y0173099D01*
X0424397Y0173695D01*
X0424218Y0174332D01*
X0424153Y0174990D01*
X0424220Y0175648D01*
X0424401Y0176285D01*
X0424689Y0176880D01*
X0425076Y0177417D01*
X0425551Y0177878D01*
X0426098Y0178249D01*
X0426702Y0178520D01*
X0427343Y0178682D01*
X0428003Y0178730D01*
X0428722Y0178652D01*
X0429412Y0178434D01*
X0430047Y0178086D01*
X0430601Y0177621D01*
X0431054Y0177057D01*
X0431388Y0176415D01*
X0431590Y0175721D01*
X0431653Y0175000D01*
X0431592Y0174275D01*
X0431390Y0173577D01*
X0431056Y0172931D01*
X0430602Y0172362D01*
X0430046Y0171893D01*
X0429409Y0171542D01*
X0428716Y0171322D01*
X0429416Y0171546D02*
X0426488Y0171546D01*
X0425623Y0172044D02*
X0430225Y0172044D01*
X0430746Y0172543D02*
X0425088Y0172543D01*
X0424725Y0173041D02*
X0431113Y0173041D01*
X0431371Y0173540D02*
X0424472Y0173540D01*
X0424301Y0174039D02*
X0431523Y0174039D01*
X0431614Y0174537D02*
X0424198Y0174537D01*
X0424157Y0175036D02*
X0431650Y0175036D01*
X0431607Y0175534D02*
X0424208Y0175534D01*
X0424329Y0176033D02*
X0431499Y0176033D01*
X0431328Y0176531D02*
X0424520Y0176531D01*
X0424797Y0177030D02*
X0431068Y0177030D01*
X0430676Y0177528D02*
X0425191Y0177528D01*
X0425770Y0178027D02*
X0430118Y0178027D01*
X0429124Y0178525D02*
X0426721Y0178525D01*
X0439254Y0175745D02*
X0439456Y0176444D01*
X0439790Y0177090D01*
X0440244Y0177658D01*
X0440800Y0178127D01*
X0441437Y0178478D01*
X0442130Y0178699D01*
X0442853Y0178780D01*
X0443513Y0178730D01*
X0444154Y0178566D01*
X0444756Y0178294D01*
X0445303Y0177921D01*
X0445776Y0177459D01*
X0446162Y0176921D01*
X0446449Y0176325D01*
X0446628Y0175688D01*
X0446693Y0175030D01*
X0446626Y0174372D01*
X0446445Y0173735D01*
X0446157Y0173140D01*
X0445770Y0172603D01*
X0445295Y0172142D01*
X0444748Y0171771D01*
X0444144Y0171500D01*
X0443502Y0171338D01*
X0442843Y0171290D01*
X0442123Y0171368D01*
X0441433Y0171586D01*
X0440799Y0171934D01*
X0440245Y0172399D01*
X0439792Y0172963D01*
X0439458Y0173605D01*
X0439256Y0174299D01*
X0439193Y0175020D01*
X0439254Y0175745D01*
X0439236Y0175534D02*
X0446643Y0175534D01*
X0446692Y0175036D02*
X0439194Y0175036D01*
X0439235Y0174537D02*
X0446643Y0174537D01*
X0446531Y0174039D02*
X0439332Y0174039D01*
X0439492Y0173540D02*
X0446351Y0173540D01*
X0446086Y0173041D02*
X0439751Y0173041D01*
X0440129Y0172543D02*
X0445708Y0172543D01*
X0445151Y0172044D02*
X0440667Y0172044D01*
X0441560Y0171546D02*
X0444247Y0171546D01*
X0446531Y0176033D02*
X0439337Y0176033D01*
X0439501Y0176531D02*
X0446350Y0176531D01*
X0446084Y0177030D02*
X0439759Y0177030D01*
X0440140Y0177528D02*
X0445705Y0177528D01*
X0445148Y0178027D02*
X0440681Y0178027D01*
X0441585Y0178525D02*
X0444245Y0178525D01*
X0444108Y0167558D02*
X0441751Y0167558D01*
X0440744Y0167059D02*
X0445071Y0167059D01*
X0445651Y0166561D02*
X0440183Y0166561D01*
X0439787Y0166062D02*
X0446046Y0166062D01*
X0446324Y0165564D02*
X0439529Y0165564D01*
X0439353Y0165065D02*
X0446516Y0165065D01*
X0446638Y0164567D02*
X0439241Y0164567D01*
X0431395Y0162573D02*
X0424446Y0162573D01*
X0424687Y0162074D02*
X0431140Y0162074D01*
X0430788Y0161576D02*
X0425045Y0161576D01*
X0425546Y0161077D02*
X0430288Y0161077D01*
X0429512Y0160579D02*
X0426371Y0160579D01*
X0321693Y0161510D02*
X0321626Y0160852D01*
X0321445Y0160215D01*
X0321157Y0159620D01*
X0320770Y0159083D01*
X0320295Y0158622D01*
X0319748Y0158251D01*
X0319144Y0157980D01*
X0318502Y0157818D01*
X0317843Y0157770D01*
X0317123Y0157848D01*
X0316433Y0158066D01*
X0315799Y0158414D01*
X0315245Y0158879D01*
X0314792Y0159443D01*
X0314458Y0160085D01*
X0314256Y0160779D01*
X0314193Y0161500D01*
X0314254Y0162225D01*
X0314456Y0162923D01*
X0314790Y0163569D01*
X0315244Y0164138D01*
X0315800Y0164607D01*
X0316437Y0164958D01*
X0317130Y0165178D01*
X0317853Y0165259D01*
X0318513Y0165210D01*
X0319154Y0165046D01*
X0319756Y0164774D01*
X0320303Y0164401D01*
X0320776Y0163939D01*
X0321162Y0163401D01*
X0321449Y0162805D01*
X0321628Y0162168D01*
X0321693Y0161510D01*
X0321686Y0161576D02*
X0314199Y0161576D01*
X0314230Y0161077D02*
X0321649Y0161077D01*
X0321548Y0160579D02*
X0314314Y0160579D01*
X0314460Y0160080D02*
X0321380Y0160080D01*
X0321130Y0159582D02*
X0314720Y0159582D01*
X0315081Y0159083D02*
X0320770Y0159083D01*
X0320240Y0158585D02*
X0315595Y0158585D01*
X0316396Y0158086D02*
X0319381Y0158086D01*
X0306592Y0160755D02*
X0306390Y0160056D01*
X0306056Y0159410D01*
X0305602Y0158842D01*
X0305046Y0158373D01*
X0304409Y0158022D01*
X0303716Y0157801D01*
X0302993Y0157720D01*
X0302333Y0157770D01*
X0301692Y0157934D01*
X0301089Y0158206D01*
X0300543Y0158579D01*
X0300070Y0159041D01*
X0299684Y0159579D01*
X0299397Y0160175D01*
X0299218Y0160812D01*
X0299153Y0161470D01*
X0299220Y0162128D01*
X0299401Y0162765D01*
X0299689Y0163360D01*
X0300076Y0163897D01*
X0300551Y0164358D01*
X0301098Y0164729D01*
X0301702Y0165000D01*
X0302343Y0165162D01*
X0303003Y0165210D01*
X0303722Y0165132D01*
X0304412Y0164914D01*
X0305047Y0164566D01*
X0305601Y0164101D01*
X0306054Y0163537D01*
X0306388Y0162895D01*
X0306590Y0162201D01*
X0306653Y0161480D01*
X0306592Y0160755D01*
X0306541Y0160579D02*
X0299284Y0160579D01*
X0299192Y0161077D02*
X0306619Y0161077D01*
X0306645Y0161576D02*
X0299164Y0161576D01*
X0299215Y0162074D02*
X0306601Y0162074D01*
X0306482Y0162573D02*
X0299346Y0162573D01*
X0299549Y0163071D02*
X0306296Y0163071D01*
X0306028Y0163570D02*
X0299840Y0163570D01*
X0300253Y0164068D02*
X0305627Y0164068D01*
X0305046Y0164567D02*
X0300859Y0164567D01*
X0301960Y0165065D02*
X0303933Y0165065D01*
X0303716Y0168822D02*
X0302993Y0168741D01*
X0302333Y0168790D01*
X0301692Y0168954D01*
X0301089Y0169226D01*
X0300543Y0169599D01*
X0300070Y0170061D01*
X0299684Y0170599D01*
X0299397Y0171195D01*
X0299218Y0171832D01*
X0299153Y0172490D01*
X0299220Y0173148D01*
X0299401Y0173785D01*
X0299689Y0174380D01*
X0300076Y0174917D01*
X0300551Y0175378D01*
X0301098Y0175749D01*
X0301702Y0176020D01*
X0302343Y0176182D01*
X0303003Y0176230D01*
X0303722Y0176152D01*
X0304412Y0175934D01*
X0305047Y0175586D01*
X0305601Y0175121D01*
X0306054Y0174557D01*
X0306388Y0173915D01*
X0306590Y0173221D01*
X0306653Y0172500D01*
X0306592Y0171775D01*
X0306390Y0171077D01*
X0306056Y0170431D01*
X0305602Y0169862D01*
X0305046Y0169393D01*
X0304409Y0169042D01*
X0303716Y0168822D01*
X0304430Y0169053D02*
X0301472Y0169053D01*
X0300612Y0169552D02*
X0305234Y0169552D01*
X0305752Y0170050D02*
X0300081Y0170050D01*
X0299720Y0170549D02*
X0306117Y0170549D01*
X0306375Y0171047D02*
X0299468Y0171047D01*
X0299299Y0171546D02*
X0306525Y0171546D01*
X0306615Y0172044D02*
X0299197Y0172044D01*
X0299158Y0172543D02*
X0306649Y0172543D01*
X0306606Y0173041D02*
X0299209Y0173041D01*
X0299331Y0173540D02*
X0306497Y0173540D01*
X0306324Y0174039D02*
X0299523Y0174039D01*
X0299802Y0174537D02*
X0306064Y0174537D01*
X0305670Y0175036D02*
X0300198Y0175036D01*
X0300781Y0175534D02*
X0305109Y0175534D01*
X0304101Y0176033D02*
X0301750Y0176033D01*
X0314254Y0173245D02*
X0314456Y0173944D01*
X0314790Y0174590D01*
X0315244Y0175158D01*
X0315800Y0175627D01*
X0316437Y0175978D01*
X0317130Y0176199D01*
X0317853Y0176280D01*
X0318513Y0176230D01*
X0319154Y0176066D01*
X0319756Y0175794D01*
X0320303Y0175421D01*
X0320776Y0174959D01*
X0321162Y0174421D01*
X0321449Y0173825D01*
X0321628Y0173188D01*
X0321693Y0172530D01*
X0321626Y0171872D01*
X0321445Y0171235D01*
X0321157Y0170640D01*
X0320770Y0170103D01*
X0320295Y0169642D01*
X0319748Y0169271D01*
X0319144Y0169000D01*
X0318502Y0168838D01*
X0317843Y0168790D01*
X0317123Y0168868D01*
X0316433Y0169086D01*
X0315799Y0169434D01*
X0315245Y0169899D01*
X0314792Y0170463D01*
X0314458Y0171105D01*
X0314256Y0171799D01*
X0314193Y0172520D01*
X0314254Y0173245D01*
X0314237Y0173041D02*
X0321642Y0173041D01*
X0321692Y0172543D02*
X0314195Y0172543D01*
X0314234Y0172044D02*
X0321643Y0172044D01*
X0321533Y0171546D02*
X0314329Y0171546D01*
X0314488Y0171047D02*
X0321354Y0171047D01*
X0321091Y0170549D02*
X0314747Y0170549D01*
X0315123Y0170050D02*
X0320715Y0170050D01*
X0320162Y0169552D02*
X0315658Y0169552D01*
X0316536Y0169053D02*
X0319263Y0169053D01*
X0321529Y0173540D02*
X0314339Y0173540D01*
X0314505Y0174039D02*
X0321346Y0174039D01*
X0321079Y0174537D02*
X0314763Y0174537D01*
X0315146Y0175036D02*
X0320698Y0175036D01*
X0320137Y0175534D02*
X0315690Y0175534D01*
X0316608Y0176033D02*
X0319228Y0176033D01*
X0319079Y0165065D02*
X0316774Y0165065D01*
X0315753Y0164567D02*
X0320060Y0164567D01*
X0320643Y0164068D02*
X0315189Y0164068D01*
X0314791Y0163570D02*
X0321041Y0163570D01*
X0321321Y0163071D02*
X0314532Y0163071D01*
X0314355Y0162573D02*
X0321514Y0162573D01*
X0321637Y0162074D02*
X0314241Y0162074D01*
X0306397Y0160080D02*
X0299443Y0160080D01*
X0299682Y0159582D02*
X0306144Y0159582D01*
X0305794Y0159083D02*
X0300040Y0159083D01*
X0300537Y0158585D02*
X0305296Y0158585D01*
X0304525Y0158086D02*
X0301355Y0158086D01*
X0302423Y0058230D02*
X0301702Y0058167D01*
X0301008Y0057965D01*
X0300366Y0057631D01*
X0299802Y0057178D01*
X0299337Y0056624D01*
X0298989Y0055990D01*
X0298771Y0055300D01*
X0298693Y0054580D01*
X0298741Y0053920D01*
X0298903Y0053279D01*
X0299174Y0052675D01*
X0299545Y0052128D01*
X0300006Y0051653D01*
X0300543Y0051266D01*
X0301138Y0050978D01*
X0301775Y0050797D01*
X0302433Y0050730D01*
X0303091Y0050795D01*
X0303728Y0050974D01*
X0304324Y0051261D01*
X0304862Y0051647D01*
X0305324Y0052120D01*
X0305697Y0052666D01*
X0305969Y0053269D01*
X0306133Y0053910D01*
X0306182Y0054570D01*
X0306101Y0055293D01*
X0305881Y0055986D01*
X0305530Y0056623D01*
X0305061Y0057179D01*
X0304492Y0057633D01*
X0303846Y0057967D01*
X0303148Y0058169D01*
X0302423Y0058230D01*
X0300855Y0057885D02*
X0304004Y0057885D01*
X0304800Y0057387D02*
X0300062Y0057387D01*
X0299558Y0056888D02*
X0305306Y0056888D01*
X0305658Y0056390D02*
X0299208Y0056390D01*
X0298958Y0055891D02*
X0305911Y0055891D01*
X0306070Y0055393D02*
X0298801Y0055393D01*
X0298727Y0054894D02*
X0306146Y0054894D01*
X0306169Y0054396D02*
X0298706Y0054396D01*
X0298747Y0053897D02*
X0306129Y0053897D01*
X0306002Y0053399D02*
X0298872Y0053399D01*
X0299073Y0052900D02*
X0305802Y0052900D01*
X0305516Y0052402D02*
X0299359Y0052402D01*
X0299763Y0051903D02*
X0305112Y0051903D01*
X0304525Y0051405D02*
X0300350Y0051405D01*
X0301390Y0050906D02*
X0303486Y0050906D01*
X0309923Y0053279D02*
X0310194Y0052675D01*
X0310565Y0052128D01*
X0311026Y0051653D01*
X0311563Y0051266D01*
X0312158Y0050978D01*
X0312795Y0050797D01*
X0313453Y0050730D01*
X0314111Y0050795D01*
X0314748Y0050974D01*
X0315344Y0051261D01*
X0315882Y0051647D01*
X0316344Y0052120D01*
X0316717Y0052666D01*
X0316989Y0053269D01*
X0317153Y0053910D01*
X0317202Y0054570D01*
X0317121Y0055293D01*
X0316901Y0055986D01*
X0316550Y0056623D01*
X0316081Y0057179D01*
X0315512Y0057633D01*
X0314866Y0057967D01*
X0314168Y0058169D01*
X0313443Y0058230D01*
X0312722Y0058167D01*
X0312028Y0057965D01*
X0311386Y0057631D01*
X0310822Y0057178D01*
X0310357Y0056624D01*
X0310009Y0055990D01*
X0309791Y0055300D01*
X0309713Y0054580D01*
X0309761Y0053920D01*
X0309923Y0053279D01*
X0309892Y0053399D02*
X0317022Y0053399D01*
X0317149Y0053897D02*
X0309767Y0053897D01*
X0309726Y0054396D02*
X0317189Y0054396D01*
X0317166Y0054894D02*
X0309747Y0054894D01*
X0309821Y0055393D02*
X0317090Y0055393D01*
X0316931Y0055891D02*
X0309978Y0055891D01*
X0310228Y0056390D02*
X0316678Y0056390D01*
X0316326Y0056888D02*
X0310579Y0056888D01*
X0311082Y0057387D02*
X0315820Y0057387D01*
X0315024Y0057885D02*
X0311875Y0057885D01*
X0310093Y0052900D02*
X0316822Y0052900D01*
X0316536Y0052402D02*
X0310379Y0052402D01*
X0310783Y0051903D02*
X0316132Y0051903D01*
X0315545Y0051405D02*
X0311370Y0051405D01*
X0312410Y0050906D02*
X0314506Y0050906D01*
X0423693Y0054580D02*
X0423771Y0055300D01*
X0423989Y0055990D01*
X0424337Y0056624D01*
X0424802Y0057178D01*
X0425366Y0057631D01*
X0426008Y0057965D01*
X0426702Y0058167D01*
X0427423Y0058230D01*
X0428148Y0058169D01*
X0428846Y0057967D01*
X0429492Y0057633D01*
X0430061Y0057179D01*
X0430530Y0056623D01*
X0430881Y0055986D01*
X0431101Y0055293D01*
X0431182Y0054570D01*
X0431133Y0053910D01*
X0430969Y0053269D01*
X0430697Y0052666D01*
X0430324Y0052120D01*
X0429862Y0051647D01*
X0429324Y0051261D01*
X0428728Y0050974D01*
X0428091Y0050795D01*
X0427433Y0050730D01*
X0426775Y0050797D01*
X0426138Y0050978D01*
X0425543Y0051266D01*
X0425006Y0051653D01*
X0424545Y0052128D01*
X0424174Y0052675D01*
X0423903Y0053279D01*
X0423741Y0053920D01*
X0423693Y0054580D01*
X0423706Y0054396D02*
X0431169Y0054396D01*
X0431146Y0054894D02*
X0423727Y0054894D01*
X0423801Y0055393D02*
X0431070Y0055393D01*
X0430911Y0055891D02*
X0423958Y0055891D01*
X0424208Y0056390D02*
X0430658Y0056390D01*
X0430306Y0056888D02*
X0424558Y0056888D01*
X0425062Y0057387D02*
X0429800Y0057387D01*
X0429004Y0057885D02*
X0425855Y0057885D01*
X0423747Y0053897D02*
X0431129Y0053897D01*
X0431002Y0053399D02*
X0423872Y0053399D01*
X0424073Y0052900D02*
X0430802Y0052900D01*
X0430516Y0052402D02*
X0424359Y0052402D01*
X0424763Y0051903D02*
X0430112Y0051903D01*
X0429525Y0051405D02*
X0425350Y0051405D01*
X0426390Y0050906D02*
X0428486Y0050906D01*
X0434923Y0053279D02*
X0435194Y0052675D01*
X0435565Y0052128D01*
X0436026Y0051653D01*
X0436563Y0051266D01*
X0437158Y0050978D01*
X0437795Y0050797D01*
X0438453Y0050730D01*
X0439111Y0050795D01*
X0439748Y0050974D01*
X0440344Y0051261D01*
X0440882Y0051647D01*
X0441344Y0052120D01*
X0441717Y0052666D01*
X0441989Y0053269D01*
X0442153Y0053910D01*
X0442202Y0054570D01*
X0442121Y0055293D01*
X0441901Y0055986D01*
X0441550Y0056623D01*
X0441081Y0057179D01*
X0440512Y0057633D01*
X0439866Y0057967D01*
X0439168Y0058169D01*
X0438443Y0058230D01*
X0437722Y0058167D01*
X0437028Y0057965D01*
X0436386Y0057631D01*
X0435822Y0057178D01*
X0435357Y0056624D01*
X0435009Y0055990D01*
X0434791Y0055300D01*
X0434713Y0054580D01*
X0434761Y0053920D01*
X0434923Y0053279D01*
X0434892Y0053399D02*
X0442022Y0053399D01*
X0442149Y0053897D02*
X0434767Y0053897D01*
X0434726Y0054396D02*
X0442189Y0054396D01*
X0442166Y0054894D02*
X0434747Y0054894D01*
X0434821Y0055393D02*
X0442090Y0055393D01*
X0441931Y0055891D02*
X0434978Y0055891D01*
X0435228Y0056390D02*
X0441678Y0056390D01*
X0441326Y0056888D02*
X0435579Y0056888D01*
X0436082Y0057387D02*
X0440820Y0057387D01*
X0440024Y0057885D02*
X0436875Y0057885D01*
X0435093Y0052900D02*
X0441822Y0052900D01*
X0441536Y0052402D02*
X0435379Y0052402D01*
X0435783Y0051903D02*
X0441132Y0051903D01*
X0440545Y0051405D02*
X0436370Y0051405D01*
X0437410Y0050906D02*
X0439506Y0050906D01*
X0553693Y0054580D02*
X0553771Y0055300D01*
X0553989Y0055990D01*
X0554337Y0056624D01*
X0554802Y0057178D01*
X0555366Y0057631D01*
X0556008Y0057965D01*
X0556702Y0058167D01*
X0557423Y0058230D01*
X0558148Y0058169D01*
X0558846Y0057967D01*
X0559492Y0057633D01*
X0560061Y0057179D01*
X0560530Y0056623D01*
X0560881Y0055986D01*
X0561101Y0055293D01*
X0561182Y0054570D01*
X0561133Y0053910D01*
X0560969Y0053269D01*
X0560697Y0052666D01*
X0560324Y0052120D01*
X0559862Y0051647D01*
X0559324Y0051261D01*
X0558728Y0050974D01*
X0558091Y0050795D01*
X0557433Y0050730D01*
X0556775Y0050797D01*
X0556138Y0050978D01*
X0555543Y0051266D01*
X0555006Y0051653D01*
X0554545Y0052128D01*
X0554174Y0052675D01*
X0553903Y0053279D01*
X0553741Y0053920D01*
X0553693Y0054580D01*
X0553706Y0054396D02*
X0561169Y0054396D01*
X0561146Y0054894D02*
X0553727Y0054894D01*
X0553801Y0055393D02*
X0561070Y0055393D01*
X0560911Y0055891D02*
X0553958Y0055891D01*
X0554208Y0056390D02*
X0560658Y0056390D01*
X0560306Y0056888D02*
X0554558Y0056888D01*
X0555062Y0057387D02*
X0559800Y0057387D01*
X0559004Y0057885D02*
X0555855Y0057885D01*
X0553747Y0053897D02*
X0561129Y0053897D01*
X0561002Y0053399D02*
X0553872Y0053399D01*
X0554073Y0052900D02*
X0560802Y0052900D01*
X0560516Y0052402D02*
X0554359Y0052402D01*
X0554763Y0051903D02*
X0560112Y0051903D01*
X0559525Y0051405D02*
X0555350Y0051405D01*
X0556390Y0050906D02*
X0558486Y0050906D01*
X0564923Y0053279D02*
X0564761Y0053920D01*
X0564713Y0054580D01*
X0564791Y0055300D01*
X0565009Y0055990D01*
X0565357Y0056624D01*
X0565822Y0057178D01*
X0566386Y0057631D01*
X0567028Y0057965D01*
X0567722Y0058167D01*
X0568443Y0058230D01*
X0569168Y0058169D01*
X0569866Y0057967D01*
X0570512Y0057633D01*
X0571081Y0057179D01*
X0571550Y0056623D01*
X0571901Y0055986D01*
X0572121Y0055293D01*
X0572202Y0054570D01*
X0572153Y0053910D01*
X0571989Y0053269D01*
X0571717Y0052666D01*
X0571344Y0052120D01*
X0570882Y0051647D01*
X0570344Y0051261D01*
X0569748Y0050974D01*
X0569111Y0050795D01*
X0568453Y0050730D01*
X0567795Y0050797D01*
X0567158Y0050978D01*
X0566563Y0051266D01*
X0566026Y0051653D01*
X0565565Y0052128D01*
X0565194Y0052675D01*
X0564923Y0053279D01*
X0564892Y0053399D02*
X0572022Y0053399D01*
X0572149Y0053897D02*
X0564767Y0053897D01*
X0564726Y0054396D02*
X0572189Y0054396D01*
X0572166Y0054894D02*
X0564747Y0054894D01*
X0564821Y0055393D02*
X0572090Y0055393D01*
X0571931Y0055891D02*
X0564978Y0055891D01*
X0565228Y0056390D02*
X0571678Y0056390D01*
X0571326Y0056888D02*
X0565579Y0056888D01*
X0566082Y0057387D02*
X0570820Y0057387D01*
X0570024Y0057885D02*
X0566875Y0057885D01*
X0565093Y0052900D02*
X0571822Y0052900D01*
X0571536Y0052402D02*
X0565379Y0052402D01*
X0565783Y0051903D02*
X0571132Y0051903D01*
X0570545Y0051405D02*
X0566370Y0051405D01*
X0567410Y0050906D02*
X0569506Y0050906D01*
X0683771Y0054279D02*
X0683849Y0054999D01*
X0684067Y0055689D01*
X0684415Y0056323D01*
X0684880Y0056877D01*
X0685444Y0057330D01*
X0686086Y0057664D01*
X0686780Y0057866D01*
X0687501Y0057929D01*
X0688226Y0057868D01*
X0688924Y0057666D01*
X0689570Y0057332D01*
X0690139Y0056878D01*
X0690608Y0056322D01*
X0690959Y0055685D01*
X0691179Y0054992D01*
X0691260Y0054269D01*
X0691211Y0053609D01*
X0691047Y0052968D01*
X0690775Y0052365D01*
X0690402Y0051819D01*
X0689940Y0051346D01*
X0689402Y0050960D01*
X0688806Y0050673D01*
X0688169Y0050494D01*
X0687511Y0050429D01*
X0686853Y0050496D01*
X0686216Y0050677D01*
X0685621Y0050965D01*
X0685084Y0051352D01*
X0684623Y0051827D01*
X0684252Y0052374D01*
X0683981Y0052978D01*
X0683819Y0053619D01*
X0683771Y0054279D01*
X0683783Y0054396D02*
X0691246Y0054396D01*
X0691232Y0053897D02*
X0683798Y0053897D01*
X0683874Y0053399D02*
X0691157Y0053399D01*
X0691016Y0052900D02*
X0684015Y0052900D01*
X0684239Y0052402D02*
X0690791Y0052402D01*
X0690459Y0051903D02*
X0684571Y0051903D01*
X0685033Y0051405D02*
X0689997Y0051405D01*
X0689291Y0050906D02*
X0685742Y0050906D01*
X0683838Y0054894D02*
X0691190Y0054894D01*
X0691052Y0055393D02*
X0683973Y0055393D01*
X0684178Y0055891D02*
X0690845Y0055891D01*
X0690550Y0056390D02*
X0684471Y0056390D01*
X0684894Y0056888D02*
X0690125Y0056888D01*
X0689464Y0057387D02*
X0685553Y0057387D01*
X0686998Y0057885D02*
X0688018Y0057885D01*
X0695087Y0055689D02*
X0695435Y0056323D01*
X0695900Y0056877D01*
X0696464Y0057330D01*
X0697106Y0057664D01*
X0697800Y0057866D01*
X0698521Y0057929D01*
X0699246Y0057868D01*
X0699944Y0057666D01*
X0700590Y0057332D01*
X0701159Y0056878D01*
X0701628Y0056322D01*
X0701979Y0055685D01*
X0702199Y0054992D01*
X0702280Y0054269D01*
X0702231Y0053609D01*
X0702067Y0052968D01*
X0701795Y0052365D01*
X0701422Y0051819D01*
X0700960Y0051346D01*
X0700422Y0050960D01*
X0699826Y0050673D01*
X0699189Y0050494D01*
X0698531Y0050429D01*
X0697873Y0050496D01*
X0697236Y0050677D01*
X0696641Y0050965D01*
X0696104Y0051352D01*
X0695643Y0051827D01*
X0695272Y0052374D01*
X0695001Y0052978D01*
X0694839Y0053619D01*
X0694791Y0054279D01*
X0694869Y0054999D01*
X0695087Y0055689D01*
X0695198Y0055891D02*
X0701865Y0055891D01*
X0702072Y0055393D02*
X0694994Y0055393D01*
X0694858Y0054894D02*
X0702210Y0054894D01*
X0702266Y0054396D02*
X0694803Y0054396D01*
X0694819Y0053897D02*
X0702252Y0053897D01*
X0702177Y0053399D02*
X0694894Y0053399D01*
X0695036Y0052900D02*
X0702036Y0052900D01*
X0701811Y0052402D02*
X0695259Y0052402D01*
X0695591Y0051903D02*
X0701479Y0051903D01*
X0701017Y0051405D02*
X0696053Y0051405D01*
X0696762Y0050906D02*
X0700311Y0050906D01*
X0701570Y0056390D02*
X0695491Y0056390D01*
X0695914Y0056888D02*
X0701146Y0056888D01*
X0700484Y0057387D02*
X0696573Y0057387D01*
X0698018Y0057885D02*
X0699038Y0057885D01*
X0813771Y0054978D02*
X0813849Y0055698D01*
X0814067Y0056388D01*
X0814415Y0057022D01*
X0814880Y0057576D01*
X0815444Y0058029D01*
X0816086Y0058363D01*
X0816780Y0058565D01*
X0817501Y0058628D01*
X0818226Y0058567D01*
X0818924Y0058365D01*
X0819570Y0058031D01*
X0820139Y0057577D01*
X0820608Y0057021D01*
X0820959Y0056384D01*
X0821179Y0055691D01*
X0821260Y0054968D01*
X0821211Y0054308D01*
X0821047Y0053667D01*
X0820775Y0053064D01*
X0820402Y0052518D01*
X0819940Y0052045D01*
X0819402Y0051659D01*
X0818806Y0051372D01*
X0818169Y0051193D01*
X0817511Y0051128D01*
X0816853Y0051195D01*
X0816216Y0051376D01*
X0815621Y0051664D01*
X0815084Y0052051D01*
X0814623Y0052526D01*
X0814252Y0053073D01*
X0813981Y0053677D01*
X0813819Y0054318D01*
X0813771Y0054978D01*
X0813777Y0054894D02*
X0821255Y0054894D01*
X0821217Y0054396D02*
X0813813Y0054396D01*
X0813925Y0053897D02*
X0821106Y0053897D01*
X0820926Y0053399D02*
X0814105Y0053399D01*
X0814369Y0052900D02*
X0820663Y0052900D01*
X0820288Y0052402D02*
X0814744Y0052402D01*
X0815289Y0051903D02*
X0819743Y0051903D01*
X0818874Y0051405D02*
X0816156Y0051405D01*
X0813816Y0055393D02*
X0821213Y0055393D01*
X0821116Y0055891D02*
X0813910Y0055891D01*
X0814068Y0056390D02*
X0820956Y0056390D01*
X0820681Y0056888D02*
X0814341Y0056888D01*
X0814721Y0057387D02*
X0820299Y0057387D01*
X0819752Y0057885D02*
X0815265Y0057885D01*
X0816157Y0058384D02*
X0818859Y0058384D01*
X0825087Y0056388D02*
X0825435Y0057022D01*
X0825900Y0057576D01*
X0826464Y0058029D01*
X0827106Y0058363D01*
X0827800Y0058565D01*
X0828521Y0058628D01*
X0829246Y0058567D01*
X0829944Y0058365D01*
X0830590Y0058031D01*
X0831159Y0057577D01*
X0831628Y0057021D01*
X0831979Y0056384D01*
X0832199Y0055691D01*
X0832280Y0054968D01*
X0832231Y0054308D01*
X0832067Y0053667D01*
X0831795Y0053064D01*
X0831422Y0052518D01*
X0830960Y0052045D01*
X0830422Y0051659D01*
X0829826Y0051372D01*
X0829189Y0051193D01*
X0828531Y0051128D01*
X0827873Y0051195D01*
X0827236Y0051376D01*
X0826641Y0051664D01*
X0826104Y0052051D01*
X0825643Y0052526D01*
X0825272Y0053073D01*
X0825001Y0053677D01*
X0824839Y0054318D01*
X0824791Y0054978D01*
X0824869Y0055698D01*
X0825087Y0056388D01*
X0825088Y0056390D02*
X0831976Y0056390D01*
X0832136Y0055891D02*
X0824930Y0055891D01*
X0824836Y0055393D02*
X0832233Y0055393D01*
X0832275Y0054894D02*
X0824797Y0054894D01*
X0824833Y0054396D02*
X0832237Y0054396D01*
X0832126Y0053897D02*
X0824945Y0053897D01*
X0825126Y0053399D02*
X0831946Y0053399D01*
X0831683Y0052900D02*
X0825389Y0052900D01*
X0825764Y0052402D02*
X0831308Y0052402D01*
X0830763Y0051903D02*
X0826309Y0051903D01*
X0827176Y0051405D02*
X0829894Y0051405D01*
X0831701Y0056888D02*
X0825361Y0056888D01*
X0825741Y0057387D02*
X0831319Y0057387D01*
X0830772Y0057885D02*
X0826285Y0057885D01*
X0827177Y0058384D02*
X0829879Y0058384D01*
X0943721Y0055527D02*
X0943802Y0054804D01*
X0944023Y0054111D01*
X0944374Y0053474D01*
X0944843Y0052918D01*
X0945411Y0052464D01*
X0946057Y0052130D01*
X0946756Y0051928D01*
X0947481Y0051867D01*
X0948202Y0051930D01*
X0948896Y0052132D01*
X0949538Y0052466D01*
X0950102Y0052919D01*
X0950567Y0053473D01*
X0950915Y0054107D01*
X0951133Y0054797D01*
X0951211Y0055517D01*
X0951163Y0056177D01*
X0951001Y0056818D01*
X0950730Y0057422D01*
X0950359Y0057969D01*
X0949898Y0058444D01*
X0949361Y0058831D01*
X0948766Y0059119D01*
X0948129Y0059300D01*
X0947471Y0059367D01*
X0946813Y0059302D01*
X0946176Y0059123D01*
X0945580Y0058836D01*
X0945042Y0058450D01*
X0944580Y0057977D01*
X0944207Y0057431D01*
X0943935Y0056828D01*
X0943771Y0056187D01*
X0943721Y0055527D01*
X0943736Y0055393D02*
X0951198Y0055393D01*
X0951184Y0055891D02*
X0943749Y0055891D01*
X0943823Y0056390D02*
X0951109Y0056390D01*
X0950970Y0056888D02*
X0943962Y0056888D01*
X0944187Y0057387D02*
X0950746Y0057387D01*
X0950416Y0057885D02*
X0944518Y0057885D01*
X0944977Y0058384D02*
X0949956Y0058384D01*
X0949255Y0058882D02*
X0945676Y0058882D01*
X0954843Y0056390D02*
X0962129Y0056390D01*
X0962183Y0056177D02*
X0962231Y0055517D01*
X0962153Y0054797D01*
X0961935Y0054107D01*
X0961587Y0053473D01*
X0961122Y0052919D01*
X0960558Y0052466D01*
X0959916Y0052132D01*
X0959222Y0051930D01*
X0958501Y0051867D01*
X0957776Y0051928D01*
X0957077Y0052130D01*
X0956431Y0052464D01*
X0955863Y0052918D01*
X0955394Y0053474D01*
X0955043Y0054111D01*
X0954822Y0054804D01*
X0954741Y0055527D01*
X0954791Y0056187D01*
X0954955Y0056828D01*
X0955227Y0057431D01*
X0955600Y0057977D01*
X0956062Y0058450D01*
X0956600Y0058836D01*
X0957196Y0059123D01*
X0957833Y0059302D01*
X0958491Y0059367D01*
X0959149Y0059300D01*
X0959786Y0059119D01*
X0960381Y0058831D01*
X0960918Y0058444D01*
X0961379Y0057969D01*
X0961750Y0057422D01*
X0962021Y0056818D01*
X0962183Y0056177D01*
X0962204Y0055891D02*
X0954769Y0055891D01*
X0954757Y0055393D02*
X0962218Y0055393D01*
X0962163Y0054894D02*
X0954812Y0054894D01*
X0954952Y0054396D02*
X0962026Y0054396D01*
X0961820Y0053897D02*
X0955161Y0053897D01*
X0955458Y0053399D02*
X0961525Y0053399D01*
X0961099Y0052900D02*
X0955886Y0052900D01*
X0956552Y0052402D02*
X0960435Y0052402D01*
X0958919Y0051903D02*
X0958071Y0051903D01*
X0951006Y0054396D02*
X0943932Y0054396D01*
X0943792Y0054894D02*
X0951143Y0054894D01*
X0950800Y0053897D02*
X0944141Y0053897D01*
X0944438Y0053399D02*
X0950505Y0053399D01*
X0950079Y0052900D02*
X0944866Y0052900D01*
X0945532Y0052402D02*
X0949414Y0052402D01*
X0947899Y0051903D02*
X0947051Y0051903D01*
X0954982Y0056888D02*
X0961990Y0056888D01*
X0961766Y0057387D02*
X0955207Y0057387D01*
X0955538Y0057885D02*
X0961436Y0057885D01*
X0960976Y0058384D02*
X0955997Y0058384D01*
X0956696Y0058882D02*
X0960275Y0058882D01*
X0962921Y0160367D02*
X0962201Y0160445D01*
X0961511Y0160663D01*
X0960877Y0161011D01*
X0960323Y0161476D01*
X0959870Y0162040D01*
X0959536Y0162682D01*
X0959334Y0163376D01*
X0959271Y0164097D01*
X0959332Y0164822D01*
X0959534Y0165520D01*
X0959868Y0166166D01*
X0960322Y0166735D01*
X0960878Y0167204D01*
X0961515Y0167555D01*
X0962208Y0167775D01*
X0962931Y0167856D01*
X0963591Y0167807D01*
X0964232Y0167643D01*
X0964834Y0167371D01*
X0965381Y0166998D01*
X0965854Y0166536D01*
X0966240Y0165998D01*
X0966527Y0165402D01*
X0966706Y0164765D01*
X0966771Y0164107D01*
X0966704Y0163449D01*
X0966523Y0162812D01*
X0966235Y0162217D01*
X0965848Y0161680D01*
X0965373Y0161219D01*
X0964826Y0160848D01*
X0964222Y0160577D01*
X0963580Y0160415D01*
X0962921Y0160367D01*
X0961778Y0160579D02*
X0964226Y0160579D01*
X0965164Y0161077D02*
X0960798Y0161077D01*
X0960243Y0161576D02*
X0965740Y0161576D01*
X0966132Y0162074D02*
X0959852Y0162074D01*
X0959593Y0162573D02*
X0966407Y0162573D01*
X0966597Y0163071D02*
X0959422Y0163071D01*
X0959317Y0163570D02*
X0966716Y0163570D01*
X0966767Y0164068D02*
X0959273Y0164068D01*
X0959311Y0164567D02*
X0966725Y0164567D01*
X0966621Y0165065D02*
X0959403Y0165065D01*
X0959556Y0165564D02*
X0966449Y0165564D01*
X0966194Y0166062D02*
X0959814Y0166062D01*
X0960183Y0166561D02*
X0965828Y0166561D01*
X0965291Y0167059D02*
X0960707Y0167059D01*
X0961524Y0167558D02*
X0964420Y0167558D01*
X0953668Y0164798D02*
X0953731Y0164077D01*
X0953670Y0163352D01*
X0953468Y0162653D01*
X0953134Y0162007D01*
X0952680Y0161439D01*
X0952124Y0160970D01*
X0951487Y0160619D01*
X0950794Y0160398D01*
X0950071Y0160317D01*
X0949411Y0160367D01*
X0948770Y0160531D01*
X0948167Y0160803D01*
X0947621Y0161176D01*
X0947148Y0161638D01*
X0946762Y0162176D01*
X0946475Y0162772D01*
X0946296Y0163409D01*
X0946231Y0164067D01*
X0946298Y0164725D01*
X0946479Y0165362D01*
X0946767Y0165957D01*
X0947154Y0166494D01*
X0947629Y0166955D01*
X0948176Y0167326D01*
X0948780Y0167597D01*
X0949421Y0167759D01*
X0950081Y0167807D01*
X0950800Y0167729D01*
X0951490Y0167511D01*
X0952125Y0167163D01*
X0952679Y0166698D01*
X0953132Y0166134D01*
X0953466Y0165492D01*
X0953668Y0164798D01*
X0953688Y0164567D02*
X0946282Y0164567D01*
X0946231Y0164068D02*
X0953731Y0164068D01*
X0953688Y0163570D02*
X0946280Y0163570D01*
X0946391Y0163071D02*
X0953588Y0163071D01*
X0953426Y0162573D02*
X0946571Y0162573D01*
X0946835Y0162074D02*
X0953168Y0162074D01*
X0952789Y0161576D02*
X0947212Y0161576D01*
X0947766Y0161077D02*
X0952251Y0161077D01*
X0951361Y0160579D02*
X0948664Y0160579D01*
X0946394Y0165065D02*
X0953590Y0165065D01*
X0953429Y0165564D02*
X0946576Y0165564D01*
X0946843Y0166062D02*
X0953169Y0166062D01*
X0952789Y0166561D02*
X0947223Y0166561D01*
X0947783Y0167059D02*
X0952249Y0167059D01*
X0951342Y0167558D02*
X0948692Y0167558D01*
X0949411Y0171387D02*
X0950071Y0171338D01*
X0950794Y0171419D01*
X0951487Y0171639D01*
X0952124Y0171990D01*
X0952680Y0172459D01*
X0953134Y0173028D01*
X0953468Y0173674D01*
X0953670Y0174372D01*
X0953731Y0175097D01*
X0953668Y0175818D01*
X0953466Y0176512D01*
X0953132Y0177154D01*
X0952679Y0177718D01*
X0952125Y0178183D01*
X0951490Y0178531D01*
X0950800Y0178749D01*
X0950081Y0178827D01*
X0949421Y0178779D01*
X0948780Y0178617D01*
X0948176Y0178346D01*
X0947629Y0177975D01*
X0947154Y0177514D01*
X0946767Y0176977D01*
X0946479Y0176382D01*
X0946298Y0175745D01*
X0946231Y0175087D01*
X0946296Y0174429D01*
X0946475Y0173792D01*
X0946762Y0173196D01*
X0947148Y0172658D01*
X0947621Y0172196D01*
X0948167Y0171823D01*
X0948770Y0171551D01*
X0949411Y0171387D01*
X0948789Y0171546D02*
X0951195Y0171546D01*
X0952188Y0172044D02*
X0947843Y0172044D01*
X0947266Y0172543D02*
X0952747Y0172543D01*
X0953141Y0173041D02*
X0946873Y0173041D01*
X0946596Y0173540D02*
X0953399Y0173540D01*
X0953573Y0174039D02*
X0946406Y0174039D01*
X0946286Y0174537D02*
X0953684Y0174537D01*
X0953726Y0175036D02*
X0946236Y0175036D01*
X0946276Y0175534D02*
X0953693Y0175534D01*
X0953606Y0176033D02*
X0946380Y0176033D01*
X0946551Y0176531D02*
X0953456Y0176531D01*
X0953197Y0177030D02*
X0946805Y0177030D01*
X0947169Y0177528D02*
X0952832Y0177528D01*
X0952312Y0178027D02*
X0947705Y0178027D01*
X0948574Y0178525D02*
X0951502Y0178525D01*
X0959387Y0176033D02*
X0966636Y0176033D01*
X0966706Y0175785D02*
X0966771Y0175127D01*
X0966704Y0174469D01*
X0966523Y0173832D01*
X0966235Y0173237D01*
X0965848Y0172700D01*
X0965373Y0172239D01*
X0964826Y0171868D01*
X0964222Y0171597D01*
X0963580Y0171435D01*
X0962921Y0171387D01*
X0962201Y0171465D01*
X0961511Y0171683D01*
X0960877Y0172031D01*
X0960323Y0172496D01*
X0959870Y0173060D01*
X0959536Y0173702D01*
X0959334Y0174396D01*
X0959271Y0175117D01*
X0959332Y0175842D01*
X0959534Y0176541D01*
X0959868Y0177187D01*
X0960322Y0177755D01*
X0960878Y0178224D01*
X0961515Y0178575D01*
X0962208Y0178796D01*
X0962931Y0178877D01*
X0963591Y0178827D01*
X0964232Y0178663D01*
X0964834Y0178391D01*
X0965381Y0178018D01*
X0965854Y0177556D01*
X0966240Y0177018D01*
X0966527Y0176422D01*
X0966706Y0175785D01*
X0966731Y0175534D02*
X0959306Y0175534D01*
X0959278Y0175036D02*
X0966762Y0175036D01*
X0966711Y0174537D02*
X0959321Y0174537D01*
X0959438Y0174039D02*
X0966582Y0174039D01*
X0966382Y0173540D02*
X0959620Y0173540D01*
X0959885Y0173041D02*
X0966094Y0173041D01*
X0965686Y0172543D02*
X0960285Y0172543D01*
X0960861Y0172044D02*
X0965086Y0172044D01*
X0964021Y0171546D02*
X0961946Y0171546D01*
X0959531Y0176531D02*
X0966474Y0176531D01*
X0966232Y0177030D02*
X0959787Y0177030D01*
X0960141Y0177528D02*
X0965874Y0177528D01*
X0965368Y0178027D02*
X0960644Y0178027D01*
X0961424Y0178525D02*
X0964537Y0178525D01*
D14*
X0926201Y0168398D02*
X0920201Y0168398D01*
X0920201Y0158398D02*
X0926201Y0158398D01*
X0926201Y0148398D02*
X0920201Y0148398D01*
X0920001Y0124398D02*
X0926001Y0124398D01*
X0926001Y0114398D02*
X0920001Y0114398D01*
X0920001Y0104398D02*
X0926001Y0104398D01*
X0924401Y0078398D02*
X0918401Y0078398D01*
X0918401Y0068398D02*
X0924401Y0068398D01*
X0924401Y0058398D02*
X0918401Y0058398D01*
X0795401Y0058699D02*
X0789401Y0058699D01*
X0789401Y0068699D02*
X0795401Y0068699D01*
X0795401Y0078699D02*
X0789401Y0078699D01*
X0790001Y0104699D02*
X0796001Y0104699D01*
X0796001Y0114699D02*
X0790001Y0114699D01*
X0790001Y0124699D02*
X0796001Y0124699D01*
X0795201Y0148699D02*
X0789201Y0148699D01*
X0789201Y0158699D02*
X0795201Y0158699D01*
X0795201Y0168699D02*
X0789201Y0168699D01*
X0666201Y0169000D02*
X0660201Y0169000D01*
X0660201Y0159000D02*
X0666201Y0159000D01*
X0666201Y0149000D02*
X0660201Y0149000D01*
X0660001Y0125000D02*
X0666001Y0125000D01*
X0666001Y0115000D02*
X0660001Y0115000D01*
X0660001Y0105000D02*
X0666001Y0105000D01*
X0666001Y0079000D02*
X0660001Y0079000D01*
X0660001Y0069000D02*
X0666001Y0069000D01*
X0666001Y0059000D02*
X0660001Y0059000D01*
X0535923Y0059500D02*
X0529923Y0059500D01*
X0529923Y0069500D02*
X0535923Y0069500D01*
X0535923Y0079500D02*
X0529923Y0079500D01*
X0529923Y0104500D02*
X0535923Y0104500D01*
X0535923Y0114500D02*
X0529923Y0114500D01*
X0529923Y0124500D02*
X0535923Y0124500D01*
X0535923Y0149500D02*
X0529923Y0149500D01*
X0529923Y0159500D02*
X0535923Y0159500D01*
X0535923Y0169500D02*
X0529923Y0169500D01*
X0405923Y0169500D02*
X0399923Y0169500D01*
X0399923Y0159500D02*
X0405923Y0159500D01*
X0405923Y0149500D02*
X0399923Y0149500D01*
X0399923Y0124500D02*
X0405923Y0124500D01*
X0405923Y0114500D02*
X0399923Y0114500D01*
X0399923Y0104500D02*
X0405923Y0104500D01*
X0405923Y0079500D02*
X0399923Y0079500D01*
X0399923Y0069500D02*
X0405923Y0069500D01*
X0405923Y0059500D02*
X0399923Y0059500D01*
X0280923Y0059500D02*
X0274923Y0059500D01*
X0274923Y0069500D02*
X0280923Y0069500D01*
X0280923Y0079500D02*
X0274923Y0079500D01*
X0274923Y0104500D02*
X0280923Y0104500D01*
X0280923Y0114500D02*
X0274923Y0114500D01*
X0274923Y0124500D02*
X0280923Y0124500D01*
X0280923Y0149500D02*
X0274923Y0149500D01*
X0274923Y0159500D02*
X0280923Y0159500D01*
X0280923Y0169500D02*
X0274923Y0169500D01*
D15*
X0192923Y0149500D03*
X0302923Y0204500D03*
X0427923Y0204500D03*
X0557923Y0204500D03*
X0687544Y0204757D03*
X0817544Y0205456D03*
X0947544Y0205155D03*
X0192923Y0079500D03*
X0302923Y0029500D03*
X0427923Y0029500D03*
X0552923Y0029500D03*
X0683030Y0029757D03*
X0813030Y0029456D03*
X0943030Y0029155D03*
X0137923Y0229500D03*
D16*
X0147923Y0229500D03*
X0183073Y0194500D03*
X0202773Y0194500D03*
X0312923Y0204500D03*
X0437923Y0204500D03*
X0567923Y0204500D03*
X0697544Y0204757D03*
X0827544Y0205456D03*
X0957544Y0205155D03*
X0192923Y0139500D03*
X0192923Y0089500D03*
X0202773Y0034500D03*
X0183073Y0034500D03*
X0312923Y0029500D03*
X0437923Y0029500D03*
X0562923Y0029500D03*
X0693030Y0029757D03*
X0823030Y0029456D03*
X0953030Y0029155D03*
D17*
X0908151Y0038764D03*
X0868151Y0038764D03*
X0778151Y0039065D03*
X0738151Y0039065D03*
X0648151Y0039366D03*
X0608151Y0039366D03*
X0517923Y0039500D03*
X0477923Y0039500D03*
X0402923Y0039500D03*
X0362923Y0039500D03*
X0282923Y0039500D03*
X0242923Y0039500D03*
X0242923Y0189500D03*
X0282923Y0189500D03*
X0367923Y0189500D03*
X0407923Y0189500D03*
X0477923Y0189500D03*
X0517923Y0189500D03*
X0608051Y0189366D03*
X0648051Y0189366D03*
X0738051Y0190065D03*
X0778051Y0190065D03*
X0868051Y0190764D03*
X0908051Y0190764D03*
X0192923Y0229500D03*
X0182923Y0229500D03*
X0172923Y0229500D03*
D18*
X0152923Y0194500D03*
X0132923Y0194500D03*
X0132923Y0034500D03*
X0152923Y0034500D03*
D19*
X0137348Y0059500D02*
X0128498Y0059500D01*
X0188498Y0059500D02*
X0197348Y0059500D01*
X0197348Y0169500D02*
X0188498Y0169500D01*
X0137348Y0169500D02*
X0128498Y0169500D01*
D20*
X0217923Y0214500D03*
X0232923Y0214500D03*
X0247923Y0214500D03*
X0262923Y0214500D03*
X0277923Y0214500D03*
X0292923Y0214500D03*
X0277923Y0224500D03*
X0247923Y0224500D03*
X0217923Y0224500D03*
X0232923Y0234500D03*
X0262923Y0234500D03*
X0292923Y0234500D03*
X0337923Y0224500D03*
X0367923Y0224500D03*
X0397923Y0224500D03*
X0397923Y0214500D03*
X0382923Y0214500D03*
X0367923Y0214500D03*
X0352923Y0214500D03*
X0337923Y0214500D03*
X0412923Y0214500D03*
X0462923Y0214500D03*
X0477923Y0214500D03*
X0492923Y0214500D03*
X0507923Y0214500D03*
X0522923Y0214500D03*
X0537923Y0214500D03*
X0522923Y0224500D03*
X0492923Y0224500D03*
X0462923Y0224500D03*
X0477923Y0234500D03*
X0507923Y0234500D03*
X0537923Y0234500D03*
X0593051Y0224199D03*
X0593051Y0214199D03*
X0608201Y0215199D03*
X0623341Y0214199D03*
X0637451Y0214199D03*
X0653196Y0214199D03*
X0667701Y0215199D03*
X0653196Y0224199D03*
X0623341Y0224199D03*
X0637451Y0234199D03*
X0667701Y0235199D03*
X0723051Y0224898D03*
X0752196Y0223898D03*
X0783341Y0224898D03*
X0797701Y0233898D03*
X0767451Y0234898D03*
X0738201Y0234898D03*
X0738201Y0214898D03*
X0752196Y0213898D03*
X0767451Y0214898D03*
X0783341Y0214898D03*
X0797701Y0213898D03*
X0853051Y0213597D03*
X0868201Y0213597D03*
X0883196Y0214597D03*
X0896451Y0214597D03*
X0912341Y0214597D03*
X0925701Y0214597D03*
X0912341Y0224597D03*
X0883196Y0224597D03*
X0853051Y0223597D03*
X0868201Y0233597D03*
X0896451Y0234597D03*
X0925701Y0234597D03*
X0723051Y0214898D03*
X0608201Y0235199D03*
X0412923Y0234500D03*
X0382923Y0234500D03*
X0352923Y0234500D03*
D21*
X0102923Y0171193D03*
X0102923Y0157413D03*
X0102923Y0141193D03*
X0102923Y0127413D03*
X0102923Y0071193D03*
X0102923Y0057413D03*
D22*
X0072923Y0059500D03*
X0072923Y0129500D03*
X0072923Y0169500D03*
D23*
X0073159Y0024500D02*
X0083002Y0024500D01*
X0092844Y0024500D02*
X0102687Y0024500D01*
X0102687Y0039500D02*
X0092844Y0039500D01*
X0083002Y0039500D02*
X0073159Y0039500D01*
X0073159Y0094500D02*
X0083002Y0094500D01*
X0092844Y0094500D02*
X0102687Y0094500D01*
X0102687Y0109500D02*
X0092844Y0109500D01*
X0083002Y0109500D02*
X0073159Y0109500D01*
X0078159Y0194500D02*
X0088002Y0194500D01*
X0097844Y0194500D02*
X0107687Y0194500D01*
X0107687Y0209500D02*
X0097844Y0209500D01*
X0088002Y0209500D02*
X0078159Y0209500D01*
D24*
X0267923Y0184500D03*
X0390423Y0184500D03*
X0407923Y0179500D03*
X0510423Y0187000D03*
X0525423Y0179500D03*
X0640923Y0187500D03*
X0654923Y0177500D03*
X0770923Y0187500D03*
X0804923Y0195500D03*
X0818923Y0181500D03*
X0784923Y0176500D03*
X0930923Y0197500D03*
X0939923Y0188500D03*
D25*
X0137923Y0149500D03*
X0127923Y0149500D03*
X0117923Y0149500D03*
X0087923Y0149500D03*
X0077923Y0149500D03*
X0067923Y0149500D03*
X0067923Y0079500D03*
X0077923Y0079500D03*
X0087923Y0079500D03*
X0097923Y0079500D03*
X0107923Y0079500D03*
X0117923Y0079500D03*
X0127923Y0079500D03*
X0137923Y0079500D03*
M02*
